<?xml version="1.0" encoding="UTF-8"?>
<!DOCTYPE svg PUBLIC "-//W3C//DTD SVG 1.1//EN" "http://www.w3.org/Graphics/SVG/1.1/DTD/svg11.dtd">
<svg xmlns="http://www.w3.org/2000/svg" version="1.1" width="680px" height="855px" style="shape-rendering:geometricPrecision; text-rendering:geometricPrecision; image-rendering:optimizeQuality; fill-rule:evenodd; clip-rule:evenodd" xmlns:xlink="http://www.w3.org/1999/xlink">
<g><path style="opacity:1" fill="#fefefe" d="M -0.5,-0.5 C 226.167,-0.5 452.833,-0.5 679.5,-0.5C 679.5,284.5 679.5,569.5 679.5,854.5C 452.833,854.5 226.167,854.5 -0.5,854.5C -0.5,569.5 -0.5,284.5 -0.5,-0.5 Z"/></g>
<g><path style="opacity:1" fill="#76413b" d="M 421.5,170.5 C 422.411,183.755 419.078,195.755 411.5,206.5C 402.938,219.637 391.604,229.804 377.5,237C 360.963,242.625 344.297,247.625 327.5,252C 313.67,251.3 301.003,254.633 289.5,262C 283.67,266.828 280.336,272.995 279.5,280.5C 277.882,283.888 276.882,287.554 276.5,291.5C 274.979,302.877 273.979,314.21 273.5,325.5C 273.824,321.445 273.491,317.445 272.5,313.5C 229.856,276.905 208.522,230.905 208.5,175.5C 217.309,171.269 226.309,167.102 235.5,163C 242.262,158.242 248.429,152.742 254,146.5C 262.088,134.657 270.421,122.991 279,111.5C 289.868,99.6508 303.368,93.6508 319.5,93.5C 359.1,93.1628 389.933,109.163 412,141.5C 416.879,150.637 420.046,160.303 421.5,170.5 Z"/></g>
<g><path style="opacity:1" fill="#955450" d="M 421.5,170.5 C 445.862,176.352 462.695,191.019 472,214.5C 482.567,244.614 484.4,275.281 477.5,306.5C 476.353,311.642 475.52,316.975 475,322.5C 474.752,334.859 474.086,347.192 473,359.5C 471.943,365.073 470.276,370.406 468,375.5C 467.814,372.964 467.314,370.631 466.5,368.5C 463.996,340.459 461.163,312.459 458,284.5C 429.92,266.007 414.42,240.007 411.5,206.5C 419.078,195.755 422.411,183.755 421.5,170.5 Z"/></g>
<g><path style="opacity:1" fill="#633b3b" d="M 208.5,175.5 C 208.522,230.905 229.856,276.905 272.5,313.5C 273.491,317.445 273.824,321.445 273.5,325.5C 272.583,328.005 272.583,330.338 273.5,332.5C 271.939,337.505 270.272,342.505 268.5,347.5C 267.167,347.5 266.5,348.167 266.5,349.5C 261.001,358.51 254.168,366.51 246,373.5C 242.646,378.666 241.646,384.332 243,390.5C 246.531,400.761 249.865,411.094 253,421.5C 254.243,432.711 253.41,443.711 250.5,454.5C 242.992,471.345 230.326,482.011 212.5,486.5C 211.833,486.5 211.5,486.167 211.5,485.5C 229.987,478.683 241.32,465.683 245.5,446.5C 247.555,432.179 245.055,418.512 238,405.5C 238.363,413.454 238.53,421.454 238.5,429.5C 228.954,459.503 208.287,473.669 176.5,472C 158.29,466.122 146.457,453.956 141,435.5C 140.333,430.5 140.333,425.5 141,420.5C 143.99,429.154 149.49,435.654 157.5,440C 168.09,440.788 176.256,436.621 182,427.5C 182.965,423.218 182.298,419.218 180,415.5C 172.667,406.167 165.333,396.833 158,387.5C 140.652,362.666 141.652,338.666 161,315.5C 166.667,309.833 172.333,304.167 178,298.5C 182.617,292.596 185.617,285.929 187,278.5C 187.755,268.799 187.588,259.132 186.5,249.5C 184.474,231.323 187.307,213.99 195,197.5C 196.812,194.72 198.979,192.22 201.5,190C 199.255,190.195 197.422,191.362 196,193.5C 190.088,202.662 186.421,212.662 185,223.5C 183.606,238.122 183.106,252.789 183.5,267.5C 182.885,275.292 180.719,282.626 177,289.5C 168.983,299.018 160.149,307.684 150.5,315.5C 145.997,320.497 142.497,326.163 140,332.5C 141.591,325.645 144.591,319.312 149,313.5C 155.691,305.811 162.691,298.478 170,291.5C 172.374,288.086 174.207,284.419 175.5,280.5C 177.163,278.562 177.829,276.228 177.5,273.5C 177.602,261.822 177.269,250.155 176.5,238.5C 175.71,220.319 180.21,203.652 190,188.5C 195.262,182.794 201.429,178.46 208.5,175.5 Z"/></g>
<g><path style="opacity:1" fill="#feab9d" d="M 411.5,206.5 C 414.42,240.007 429.92,266.007 458,284.5C 461.163,312.459 463.996,340.459 466.5,368.5C 467.503,376.518 467.17,384.518 465.5,392.5C 459.465,413.748 450.965,434.081 440,453.5C 429.307,470.692 415.474,484.692 398.5,495.5C 387.738,501.032 376.405,504.865 364.5,507C 350.833,507.667 337.167,507.667 323.5,507C 310.866,504.345 299.199,499.512 288.5,492.5C 279.341,486.81 271.174,479.81 264,471.5C 259.636,465.646 255.136,459.979 250.5,454.5C 253.41,443.711 254.243,432.711 253,421.5C 249.865,411.094 246.531,400.761 243,390.5C 241.646,384.332 242.646,378.666 246,373.5C 254.168,366.51 261.001,358.51 266.5,349.5C 267.161,350.718 267.828,352.051 268.5,353.5C 269.944,351.392 270.61,349.059 270.5,346.5C 276.137,330.857 286.137,327.357 300.5,336C 304.323,339.813 306.99,344.313 308.5,349.5C 308.709,350.922 309.209,352.255 310,353.5C 310.796,350.961 310.629,348.628 309.5,346.5C 308.071,336.814 302.738,330.314 293.5,327C 285.713,325.132 279.047,326.965 273.5,332.5C 272.583,330.338 272.583,328.005 273.5,325.5C 273.979,314.21 274.979,302.877 276.5,291.5C 289.598,292.436 301.598,296.436 312.5,303.5C 312.833,303.167 313.167,302.833 313.5,302.5C 306.395,288.615 295.061,281.282 279.5,280.5C 280.336,272.995 283.67,266.828 289.5,262C 301.003,254.633 313.67,251.3 327.5,252C 344.297,247.625 360.963,242.625 377.5,237C 391.604,229.804 402.938,219.637 411.5,206.5 Z"/></g>
<g><path style="opacity:1" fill="#dad0cf" d="M 186.5,249.5 C 185.672,243.681 185.172,237.681 185,231.5C 184.831,243.674 184.331,255.674 183.5,267.5C 183.106,252.789 183.606,238.122 185,223.5C 186.421,212.662 190.088,202.662 196,193.5C 197.422,191.362 199.255,190.195 201.5,190C 198.979,192.22 196.812,194.72 195,197.5C 187.307,213.99 184.474,231.323 186.5,249.5 Z"/></g>
<g><path style="opacity:1" fill="#987d7c" d="M 177.5,273.5 C 177.829,276.228 177.163,278.562 175.5,280.5C 175.721,277.933 176.388,275.599 177.5,273.5 Z"/></g>
<g><path style="opacity:1" fill="#382d39" d="M 400.5,280.5 C 419.516,278.839 433.516,286.339 442.5,303C 435.277,300.066 427.944,297.066 420.5,294C 412.98,291.699 405.314,291.032 397.5,292C 390.984,294.508 384.817,297.675 379,301.5C 380.384,296.262 383.217,291.762 387.5,288C 391.602,284.954 395.935,282.454 400.5,280.5 Z"/></g>
<g><path style="opacity:1" fill="#372c39" d="M 279.5,280.5 C 295.061,281.282 306.395,288.615 313.5,302.5C 313.167,302.833 312.833,303.167 312.5,303.5C 301.598,296.436 289.598,292.436 276.5,291.5C 276.882,287.554 277.882,283.888 279.5,280.5 Z"/></g>
<g><path style="opacity:1" fill="#cc887f" d="M 477.5,306.5 C 477.281,307.675 477.614,308.675 478.5,309.5C 498.544,314.895 506.377,327.895 502,348.5C 500.095,361.567 495.095,373.234 487,383.5C 481.094,389.597 473.927,392.597 465.5,392.5C 467.17,384.518 467.503,376.518 466.5,368.5C 467.314,370.631 467.814,372.964 468,375.5C 470.276,370.406 471.943,365.073 473,359.5C 474.086,347.192 474.752,334.859 475,322.5C 475.52,316.975 476.353,311.642 477.5,306.5 Z"/></g>
<g><path style="opacity:1" fill="#3b2f3b" d="M 385.5,348.5 C 384.532,346.393 384.198,344.059 384.5,341.5C 385.893,330.605 392.06,325.272 403,325.5C 414.22,325.375 421.553,330.708 425,341.5C 425.667,344.167 425.667,346.833 425,349.5C 418.815,330.447 407.148,325.78 390,335.5C 387.793,339.624 386.293,343.957 385.5,348.5 Z"/></g>
<g><path style="opacity:1" fill="#3c303b" d="M 309.5,346.5 C 309.737,347.791 309.404,348.791 308.5,349.5C 306.99,344.313 304.323,339.813 300.5,336C 286.137,327.357 276.137,330.857 270.5,346.5C 269.732,347.263 269.232,348.263 269,349.5C 268.536,348.906 268.369,348.239 268.5,347.5C 270.272,342.505 271.939,337.505 273.5,332.5C 279.047,326.965 285.713,325.132 293.5,327C 302.738,330.314 308.071,336.814 309.5,346.5 Z"/></g>
<g><path style="opacity:1" fill="#896061" d="M 384.5,341.5 C 384.198,344.059 384.532,346.393 385.5,348.5C 385.607,350.379 385.107,350.712 384,349.5C 383.199,346.633 383.366,343.966 384.5,341.5 Z"/></g>
<g><path style="opacity:1" fill="#b27a75" d="M 270.5,346.5 C 270.61,349.059 269.944,351.392 268.5,353.5C 267.828,352.051 267.161,350.718 266.5,349.5C 266.5,348.167 267.167,347.5 268.5,347.5C 268.369,348.239 268.536,348.906 269,349.5C 269.232,348.263 269.732,347.263 270.5,346.5 Z"/></g>
<g><path style="opacity:1" fill="#8c6263" d="M 309.5,346.5 C 310.629,348.628 310.796,350.961 310,353.5C 309.209,352.255 308.709,350.922 308.5,349.5C 309.404,348.791 309.737,347.791 309.5,346.5 Z"/></g>
<g><path style="opacity:1" fill="#ce8a80" d="M 362.5,350.5 C 364.446,352.353 365.946,354.686 367,357.5C 371.032,368.324 373.532,379.491 374.5,391C 369.324,396.839 363.49,402.006 357,406.5C 356.333,405.833 356.333,405.167 357,404.5C 361.091,399.303 364.925,393.97 368.5,388.5C 364.363,376.21 362.363,363.544 362.5,350.5 Z"/></g>
<g><path style="opacity:1" fill="#f0a396" d="M 256.5,340.5 C 257.043,340.56 257.376,340.893 257.5,341.5C 255.667,344.5 253.833,347.5 252,350.5C 246.667,356.5 241.333,362.5 236,368.5C 234.205,372.052 232.705,375.718 231.5,379.5C 230.13,374.327 230.63,369.327 233,364.5C 239.372,356.461 246.705,349.461 255,343.5C 255.513,342.473 256.013,341.473 256.5,340.5 Z"/></g>
<g><path style="opacity:1" fill="#f2a597" d="M 245.5,446.5 C 244.027,440.543 241.693,434.877 238.5,429.5C 238.53,421.454 238.363,413.454 238,405.5C 245.055,418.512 247.555,432.179 245.5,446.5 Z"/></g>
<g><path style="opacity:1" fill="#fefcfb" d="M 315.5,431.5 C 342.835,431.333 370.169,431.5 397.5,432C 380.165,446.631 360.165,451.965 337.5,448C 324.026,445.733 311.693,440.733 300.5,433C 305.684,432.826 310.684,432.326 315.5,431.5 Z"/></g>
<g><path style="opacity:1" fill="#af9999" d="M 211.5,485.5 C 211.5,486.167 211.833,486.5 212.5,486.5C 210.956,487.914 209.289,488.247 207.5,487.5C 208.577,486.295 209.91,485.628 211.5,485.5 Z"/></g>
<g><path style="opacity:1" fill="#cc887f" d="M 288.5,492.5 C 299.199,499.512 310.866,504.345 323.5,507C 337.167,507.667 350.833,507.667 364.5,507C 376.405,504.865 387.738,501.032 398.5,495.5C 399.334,506.838 400.334,518.171 401.5,529.5C 400.666,530.748 399.333,531.415 397.5,531.5C 358.924,536.797 320.424,542.797 282,549.5C 281.235,549.43 280.735,549.097 280.5,548.5C 285.663,530.213 288.33,511.546 288.5,492.5 Z"/></g>
<g><path style="opacity:1" fill="#feac9d" d="M 401.5,529.5 C 403.477,540.685 407.31,551.351 413,561.5C 418.666,569.256 426.166,574.422 435.5,577C 442.206,578.842 448.873,580.676 455.5,582.5C 430.761,596.802 404.095,605.635 375.5,609C 349.744,611.467 324.078,610.967 298.5,607.5C 296.485,606.076 294.152,605.41 291.5,605.5C 269.636,601.569 248.969,594.236 229.5,583.5C 229.611,582.883 229.944,582.383 230.5,582C 243.707,580.043 256.041,575.709 267.5,569C 273.245,562.998 277.578,556.165 280.5,548.5C 280.735,549.097 281.235,549.43 282,549.5C 320.424,542.797 358.924,536.797 397.5,531.5C 399.333,531.415 400.666,530.748 401.5,529.5 Z"/></g>
<g><path style="opacity:1" fill="#7ba7ce" d="M 455.5,582.5 C 463.573,584.185 471.573,586.185 479.5,588.5C 473.363,625.326 467.03,661.993 460.5,698.5C 460.657,697.127 460.49,695.793 460,694.5C 396.213,713.99 332.046,732.323 267.5,749.5C 246.836,696.171 226.169,642.838 205.5,589.5C 213.238,586.881 221.238,584.881 229.5,583.5C 248.969,594.236 269.636,601.569 291.5,605.5C 293.515,606.924 295.848,607.59 298.5,607.5C 324.078,610.967 349.744,611.467 375.5,609C 404.095,605.635 430.761,596.802 455.5,582.5 Z"/></g>
<g><path style="opacity:1" fill="#d58951" d="M 479.5,588.5 C 508.348,596.659 535.348,608.659 560.5,624.5C 526.677,684.806 493.343,745.473 460.5,806.5C 454.5,806.5 448.5,806.5 442.5,806.5C 442.5,805.167 442.5,803.833 442.5,802.5C 448.501,767.828 454.501,733.161 460.5,698.5C 467.03,661.993 473.363,625.326 479.5,588.5 Z"/></g>
<g><path style="opacity:1" fill="#d58950" d="M 205.5,589.5 C 226.169,642.838 246.836,696.171 267.5,749.5C 274.204,767.915 281.204,786.249 288.5,804.5C 281.913,806.461 274.913,807.128 267.5,806.5C 227.862,741.546 187.862,676.879 147.5,612.5C 165.93,602.905 185.264,595.238 205.5,589.5 Z"/></g>
<g><path style="opacity:1" fill="#c4a9b3" d="M 291.5,605.5 C 294.152,605.41 296.485,606.076 298.5,607.5C 295.848,607.59 293.515,606.924 291.5,605.5 Z"/></g>
<g><path style="opacity:1" fill="#fea45b" d="M 147.5,612.5 C 187.862,676.879 227.862,741.546 267.5,806.5C 194.833,806.5 122.167,806.5 49.5,806.5C 45.8709,773.882 48.7043,741.882 58,710.5C 74.728,665.936 104.561,633.269 147.5,612.5 Z"/></g>
<g><path style="opacity:1" fill="#fea45b" d="M 560.5,624.5 C 606.779,655.033 632.612,698.033 638,753.5C 638.5,767.496 638.667,781.496 638.5,795.5C 637.518,798.962 637.185,802.629 637.5,806.5C 578.5,806.5 519.5,806.5 460.5,806.5C 493.343,745.473 526.677,684.806 560.5,624.5 Z"/></g>
<g><path style="opacity:1" fill="#6f96bd" d="M 460.5,698.5 C 454.501,733.161 448.501,767.828 442.5,802.5C 441.549,803.919 441.216,805.585 441.5,807.5C 390.833,807.5 340.167,807.5 289.5,807.5C 289.737,806.209 289.404,805.209 288.5,804.5C 281.204,786.249 274.204,767.915 267.5,749.5C 332.046,732.323 396.213,713.99 460,694.5C 460.49,695.793 460.657,697.127 460.5,698.5 Z"/></g>
<g><path style="opacity:1" fill="#d8b093" d="M 288.5,804.5 C 289.404,805.209 289.737,806.209 289.5,807.5C 209.332,807.833 129.332,807.499 49.5,806.5C 122.167,806.5 194.833,806.5 267.5,806.5C 274.913,807.128 281.913,806.461 288.5,804.5 Z"/></g>
<g><path style="opacity:1" fill="#d8b195" d="M 638.5,795.5 C 638.5,799.5 638.5,803.5 638.5,807.5C 572.833,807.5 507.167,807.5 441.5,807.5C 441.216,805.585 441.549,803.919 442.5,802.5C 442.5,803.833 442.5,805.167 442.5,806.5C 448.5,806.5 454.5,806.5 460.5,806.5C 519.5,806.5 578.5,806.5 637.5,806.5C 637.185,802.629 637.518,798.962 638.5,795.5 Z"/></g>
</svg>
