<?xml version="1.0" encoding="UTF-8"?>
<!DOCTYPE svg PUBLIC "-//W3C//DTD SVG 1.1//EN" "http://www.w3.org/Graphics/SVG/1.1/DTD/svg11.dtd">
<svg xmlns="http://www.w3.org/2000/svg" version="1.1" width="680px" height="855px" style="shape-rendering:geometricPrecision; text-rendering:geometricPrecision; image-rendering:optimizeQuality; fill-rule:evenodd; clip-rule:evenodd" xmlns:xlink="http://www.w3.org/1999/xlink">
<g><path style="opacity:1" fill="#fefefe" d="M -0.5,-0.5 C 226.167,-0.5 452.833,-0.5 679.5,-0.5C 679.5,284.5 679.5,569.5 679.5,854.5C 452.833,854.5 226.167,854.5 -0.5,854.5C -0.5,569.5 -0.5,284.5 -0.5,-0.5 Z"/></g>
<g><path style="opacity:1" fill="#955450" d="M 490.5,410.5 C 489.676,406.688 489.176,402.688 489,398.5C 480.833,410.503 470.333,419.836 457.5,426.5C 446.522,451.643 429.855,472.143 407.5,488C 405.167,489.167 402.833,490.333 400.5,491.5C 399.534,493.396 399.201,495.396 399.5,497.5C 398.566,496.432 398.232,495.099 398.5,493.5C 369.84,505.966 340.173,508.799 309.5,502C 301.79,499.824 294.456,496.991 287.5,493.5C 270.163,483.663 256.663,469.996 247,452.5C 241.77,442.776 236.936,432.943 232.5,423C 220.477,418.114 208.81,412.614 197.5,406.5C 196.946,384.656 189.446,365.656 175,349.5C 161.858,331.081 154.025,310.581 151.5,288C 152.041,276.709 155.208,266.209 161,256.5C 169.981,246.491 176.981,235.158 182,222.5C 189.315,195.212 198.982,168.879 211,143.5C 230.766,112.915 259.1,98.2486 296,99.5C 316.499,97.4211 332.499,104.754 344,121.5C 354.659,105.101 369.825,97.7675 389.5,99.5C 437.648,98.4841 470.148,120.484 487,165.5C 493.759,187.021 501.092,208.354 509,229.5C 515.21,241.035 522.21,252.035 530,262.5C 534.04,269.994 535.873,277.994 535.5,286.5C 534.884,304.851 529.717,321.851 520,337.5C 514.825,345.851 509.158,353.851 503,361.5C 494.433,376.703 490.266,393.036 490.5,410.5 Z"/></g>
<g><path style="opacity:1" fill="#feab9d" d="M 422.5,228.5 C 422.828,240.012 422.495,251.346 421.5,262.5C 402.36,256.742 388.027,262.575 378.5,280C 385.26,277.137 392.26,274.471 399.5,272C 406.932,271.221 414.265,271.721 421.5,273.5C 422.172,274.267 423.005,274.934 424,275.5C 424.275,285.899 426.941,295.565 432,304.5C 439.2,312.958 448.367,316.625 459.5,315.5C 459.5,316.833 459.5,318.167 459.5,319.5C 458.92,323.81 458.586,328.143 458.5,332.5C 455.861,354.984 451.695,377.317 446,399.5C 443.497,408.171 440.164,416.505 436,424.5C 431.4,434.048 423.9,437.548 413.5,435C 412.667,434.167 411.833,433.333 411,432.5C 409.722,423.601 409.055,414.601 409,405.5C 407.622,400.792 404.788,397.292 400.5,395C 394.765,392.399 388.765,390.733 382.5,390C 372.139,389.423 361.806,388.589 351.5,387.5C 350.402,386.603 350.402,385.77 351.5,385C 358.996,381.086 366.329,376.92 373.5,372.5C 373.873,356.428 372.706,340.428 370,324.5C 368.534,315.362 366.534,306.362 364,297.5C 363.333,308.5 363.333,319.5 364,330.5C 365.622,343.511 366.956,356.511 368,369.5C 361.207,374.625 354.707,380.125 348.5,386C 347.552,386.483 346.552,386.649 345.5,386.5C 334.22,384.936 322.887,383.936 311.5,383.5C 297.347,381.822 287.514,387.489 282,400.5C 280.146,408.821 278.479,417.154 277,425.5C 274.847,427.444 272.347,427.944 269.5,427C 266,424.833 263.167,422 261,418.5C 245.879,392.631 236.045,364.965 231.5,335.5C 230.701,332.57 230.368,329.57 230.5,326.5C 230.392,321.29 229.725,316.29 228.5,311.5C 228.5,310.833 228.5,310.167 228.5,309.5C 228.5,307.833 228.5,306.167 228.5,304.5C 233.977,303.613 238.81,301.279 243,297.5C 246.974,291.884 250.14,285.884 252.5,279.5C 264.948,271.215 278.281,269.381 292.5,274C 299.319,276.91 305.985,280.077 312.5,283.5C 312.833,283.167 313.167,282.833 313.5,282.5C 303.714,264.398 288.714,257.565 268.5,262C 261.87,264.301 256.87,268.468 253.5,274.5C 254.051,251.883 256.218,229.216 260,206.5C 265.213,188.955 276.713,177.788 294.5,173C 309.319,169.672 324.319,168.672 339.5,170C 362.59,169.756 384.257,175.089 404.5,186C 417.951,196.811 423.951,210.977 422.5,228.5 Z"/></g>
<g><path style="opacity:1" fill="#bd756d" d="M 422.5,228.5 C 423.495,239.988 423.828,251.655 423.5,263.5C 422.508,263.672 421.842,263.338 421.5,262.5C 422.495,251.346 422.828,240.012 422.5,228.5 Z"/></g>
<g><path style="opacity:1" fill="#eea193" d="M 433.5,270.5 C 432.5,269.833 431.5,269.167 430.5,268.5C 430.333,255.496 430.5,242.496 431,229.5C 432.904,243.295 433.737,256.962 433.5,270.5 Z"/></g>
<g><path style="opacity:1" fill="#372d39" d="M 421.5,262.5 C 421.842,263.338 422.508,263.672 423.5,263.5C 424.069,267.329 423.402,270.663 421.5,273.5C 414.265,271.721 406.932,271.221 399.5,272C 392.26,274.471 385.26,277.137 378.5,280C 388.027,262.575 402.36,256.742 421.5,262.5 Z"/></g>
<g><path style="opacity:1" fill="#382d39" d="M 252.5,279.5 C 251.957,279.44 251.624,279.107 251.5,278.5C 252.18,277.14 252.847,275.807 253.5,274.5C 256.87,268.468 261.87,264.301 268.5,262C 288.714,257.565 303.714,264.398 313.5,282.5C 313.167,282.833 312.833,283.167 312.5,283.5C 305.985,280.077 299.319,276.91 292.5,274C 278.281,269.381 264.948,271.215 252.5,279.5 Z"/></g>
<g><path style="opacity:1" fill="#382d39" d="M 430.5,268.5 C 431.5,269.167 432.5,269.833 433.5,270.5C 434.993,272.911 435.993,275.578 436.5,278.5C 436.043,279.298 435.376,279.631 434.5,279.5C 433.391,279.443 432.391,279.11 431.5,278.5C 430.586,275.272 430.253,271.939 430.5,268.5 Z"/></g>
<g><path style="opacity:1" fill="#faa99b" d="M 431.5,278.5 C 432.391,279.11 433.391,279.443 434.5,279.5C 435.172,280.267 436.005,280.934 437,281.5C 439.543,292.037 445.709,299.537 455.5,304C 457.134,304.494 458.801,304.66 460.5,304.5C 460.5,307.167 460.5,309.833 460.5,312.5C 439.239,310.914 429.573,299.581 431.5,278.5 Z"/></g>
<g><path style="opacity:1" fill="#ce8980" d="M 351.5,387.5 C 349.265,387.795 347.265,387.461 345.5,386.5C 346.552,386.649 347.552,386.483 348.5,386C 354.707,380.125 361.207,374.625 368,369.5C 366.956,356.511 365.622,343.511 364,330.5C 363.333,319.5 363.333,308.5 364,297.5C 366.534,306.362 368.534,315.362 370,324.5C 372.706,340.428 373.873,356.428 373.5,372.5C 366.329,376.92 358.996,381.086 351.5,385C 350.402,385.77 350.402,386.603 351.5,387.5 Z"/></g>
<g><path style="opacity:1" fill="#75403a" d="M 228.5,309.5 C 228.5,310.167 228.5,310.833 228.5,311.5C 228.096,316.783 228.762,321.783 230.5,326.5C 230.368,329.57 230.701,332.57 231.5,335.5C 231.949,338.29 231.949,340.956 231.5,343.5C 226.845,345.712 222.178,347.712 217.5,349.5C 216.811,334.843 216.478,320.177 216.5,305.5C 220.167,305.5 223.833,305.5 227.5,305.5C 227.232,307.099 227.566,308.432 228.5,309.5 Z"/></g>
<g><path style="opacity:1" fill="#76413b" d="M 476.5,304.5 C 476.5,308.167 476.5,311.833 476.5,315.5C 471.819,313.12 466.819,312.12 461.5,312.5C 461.5,310.167 461.5,307.833 461.5,305.5C 466.562,305.726 471.562,305.392 476.5,304.5 Z"/></g>
<g><path style="opacity:1" fill="#cb877e" d="M 217.5,349.5 C 218.887,361.209 220.554,372.876 222.5,384.5C 209.425,383.601 199.925,377.268 194,365.5C 189.002,352.853 187.669,339.853 190,326.5C 193.83,313.488 202.33,306.155 215.5,304.5C 215.333,315.838 215.5,327.172 216,338.5C 216.177,342.356 216.677,346.023 217.5,349.5 Z"/></g>
<g><path style="opacity:1" fill="#cb877e" d="M 476.5,304.5 C 488.828,308.332 495.995,316.666 498,329.5C 499.13,341.051 498.13,352.384 495,363.5C 491.574,369.921 487.074,375.421 481.5,380C 478.395,381.868 475.062,383.035 471.5,383.5C 472.905,370.183 474.239,356.85 475.5,343.5C 476.469,335.252 476.802,326.918 476.5,318.5C 482.071,320.271 485.904,323.938 488,329.5C 488.164,326.478 487.164,323.811 485,321.5C 482.287,319.28 479.454,317.28 476.5,315.5C 476.5,311.833 476.5,308.167 476.5,304.5 Z"/></g>
<g><path style="opacity:1" fill="#3b2f3b" d="M 281.5,306.5 C 300.093,305.261 309.593,313.928 310,332.5C 307.948,322.899 302.448,316.065 293.5,312C 278.288,310.211 270.122,317.044 269,332.5C 266.519,320.466 270.686,311.799 281.5,306.5 Z"/></g>
<g><path style="opacity:1" fill="#392e39" d="M 424.5,320.5 C 425.258,323.352 425.258,326.019 424.5,328.5C 419.147,311.653 408.481,306.487 392.5,313C 388.691,317.117 386.358,321.951 385.5,327.5C 384.532,325.393 384.198,323.059 384.5,320.5C 386.392,310.611 392.392,305.277 402.5,304.5C 413.501,304.839 420.834,310.172 424.5,320.5 Z"/></g>
<g><path style="opacity:1" fill="#77413c" d="M 476.5,318.5 C 476.802,326.918 476.469,335.252 475.5,343.5C 469.903,341.635 464.237,339.968 458.5,338.5C 458.5,336.5 458.5,334.5 458.5,332.5C 458.586,328.143 458.92,323.81 459.5,319.5C 460.434,318.432 460.768,317.099 460.5,315.5C 466.228,315.053 471.562,316.053 476.5,318.5 Z"/></g>
<g><path style="opacity:1" fill="#a5655c" d="M 228.5,311.5 C 229.725,316.29 230.392,321.29 230.5,326.5C 228.762,321.783 228.096,316.783 228.5,311.5 Z"/></g>
<g><path style="opacity:1" fill="#845e5f" d="M 384.5,320.5 C 384.198,323.059 384.532,325.393 385.5,327.5C 385.607,329.379 385.107,329.712 384,328.5C 383.199,325.633 383.366,322.966 384.5,320.5 Z"/></g>
<g><path style="opacity:1" fill="#a77472" d="M 424.5,320.5 C 426.507,323.57 426.84,326.903 425.5,330.5C 424.702,330.043 424.369,329.376 424.5,328.5C 425.258,326.019 425.258,323.352 424.5,320.5 Z"/></g>
<g><path style="opacity:1" fill="#c49f9d" d="M 327.5,411.5 C 318.833,412.167 310.167,412.833 301.5,413.5C 300.957,413.44 300.624,413.107 300.5,412.5C 309.475,411.502 318.475,411.168 327.5,411.5 Z"/></g>
<g><path style="opacity:1" fill="#fcfbfa" d="M 327.5,411.5 C 350.836,411.333 374.169,411.5 397.5,412C 380.569,425.66 361.235,430.993 339.5,428C 325.572,426.179 312.905,421.346 301.5,413.5C 310.167,412.833 318.833,412.167 327.5,411.5 Z"/></g>
<g><path style="opacity:1" fill="#76413b" d="M 197.5,406.5 C 208.81,412.614 220.477,418.114 232.5,423C 236.936,432.943 241.77,442.776 247,452.5C 256.663,469.996 270.163,483.663 287.5,493.5C 287.156,509.91 284.49,525.91 279.5,541.5C 275.191,556.808 265.191,565.808 249.5,568.5C 248.109,548.376 253.943,530.709 267,515.5C 271.708,510.624 276.541,505.957 281.5,501.5C 250.368,494.499 225.535,478.166 207,452.5C 197.924,438.373 194.757,423.04 197.5,406.5 Z"/></g>
<g><path style="opacity:1" fill="#76413b" d="M 490.5,410.5 C 492.579,429.767 487.079,446.767 474,461.5C 456.024,481.341 434.19,494.675 408.5,501.5C 422.504,517.502 432.337,535.836 438,556.5C 438.499,560.486 438.666,564.486 438.5,568.5C 428.312,567.5 420.145,562.833 414,554.5C 407.865,544.57 403.699,533.903 401.5,522.5C 400.972,514.107 400.305,505.773 399.5,497.5C 399.201,495.396 399.534,493.396 400.5,491.5C 402.833,490.333 405.167,489.167 407.5,488C 429.855,472.143 446.522,451.643 457.5,426.5C 470.333,419.836 480.833,410.503 489,398.5C 489.176,402.688 489.676,406.688 490.5,410.5 Z"/></g>
<g><path style="opacity:1" fill="#cb877e" d="M 287.5,493.5 C 294.456,496.991 301.79,499.824 309.5,502C 340.173,508.799 369.84,505.966 398.5,493.5C 398.232,495.099 398.566,496.432 399.5,497.5C 400.305,505.773 400.972,514.107 401.5,522.5C 360.797,528.671 320.131,535.004 279.5,541.5C 284.49,525.91 287.156,509.91 287.5,493.5 Z"/></g>
<g><path style="opacity:1" fill="#feab9d" d="M 401.5,522.5 C 403.699,533.903 407.865,544.57 414,554.5C 420.145,562.833 428.312,567.5 438.5,568.5C 439.347,569.966 440.68,570.8 442.5,571C 458.13,574.24 473.463,578.407 488.5,583.5C 463.019,604.237 434.019,618.07 401.5,625C 391.254,627.208 380.921,628.874 370.5,630C 367.45,638.362 364.784,646.862 362.5,655.5C 355.997,678.847 349.497,702.181 343,725.5C 339.715,702.455 336.215,679.455 332.5,656.5C 331.302,647.943 329.968,639.443 328.5,631C 288.632,628.708 251.632,617.375 217.5,597C 210.738,592.631 204.405,587.798 198.5,582.5C 215.588,577.799 232.588,573.132 249.5,568.5C 265.191,565.808 275.191,556.808 279.5,541.5C 320.131,535.004 360.797,528.671 401.5,522.5 Z"/></g>
<g><path style="opacity:1" fill="#77a7a4" d="M 198.5,582.5 C 204.405,587.798 210.738,592.631 217.5,597C 251.632,617.375 288.632,628.708 328.5,631C 329.968,639.443 331.302,647.943 332.5,656.5C 286.955,655.491 243.288,645.991 201.5,628C 183.992,619.963 168.992,608.797 156.5,594.5C 168.844,589.006 181.511,584.006 194.5,579.5C 195.852,580.524 197.185,581.524 198.5,582.5 Z"/></g>
<g><path style="opacity:1" fill="#77a7a4" d="M 536.5,596.5 C 528.359,604.127 519.692,611.293 510.5,618C 480.209,634.99 447.876,645.99 413.5,651C 396.649,654.218 379.649,655.718 362.5,655.5C 364.784,646.862 367.45,638.362 370.5,630C 380.921,628.874 391.254,627.208 401.5,625C 434.019,618.07 463.019,604.237 488.5,583.5C 490.319,582.416 491.985,581.082 493.5,579.5C 508.227,584.622 522.56,590.288 536.5,596.5 Z"/></g>
<g><path style="opacity:1" fill="#5d8584" d="M 156.5,594.5 C 168.992,608.797 183.992,619.963 201.5,628C 243.288,645.991 286.955,655.491 332.5,656.5C 336.215,679.455 339.715,702.455 343,725.5C 349.497,702.181 355.997,678.847 362.5,655.5C 379.649,655.718 396.649,654.218 413.5,651C 447.876,645.99 480.209,634.99 510.5,618C 519.692,611.293 528.359,604.127 536.5,596.5C 623.486,635.775 661.819,703.109 651.5,798.5C 446.5,798.5 241.5,798.5 36.5,798.5C 34.7127,775.748 35.3794,753.081 38.5,730.5C 40.0395,728.162 40.7062,725.495 40.5,722.5C 50.5729,680.176 73.2396,646.342 108.5,621C 123.461,610.352 139.461,601.518 156.5,594.5 Z"/></g>
<g><path style="opacity:1" fill="#aabfbe" d="M 40.5,722.5 C 40.7062,725.495 40.0395,728.162 38.5,730.5C 38.5651,727.572 39.2318,724.905 40.5,722.5 Z"/></g>
<g><path style="opacity:1" fill="#76a7a4" d="M 343.5,739.5 C 356.149,738.643 360.983,744.31 358,756.5C 349.986,765.038 342.986,764.371 337,754.5C 336.333,751.833 336.333,749.167 337,746.5C 338.862,743.833 341.028,741.5 343.5,739.5 Z"/></g>
</svg>
