<?xml version="1.0" encoding="UTF-8"?>
<!DOCTYPE svg PUBLIC "-//W3C//DTD SVG 1.1//EN" "http://www.w3.org/Graphics/SVG/1.1/DTD/svg11.dtd">
<svg xmlns="http://www.w3.org/2000/svg" version="1.1" width="680px" height="855px" style="shape-rendering:geometricPrecision; text-rendering:geometricPrecision; image-rendering:optimizeQuality; fill-rule:evenodd; clip-rule:evenodd" xmlns:xlink="http://www.w3.org/1999/xlink">
<g><path style="opacity:1" fill="#fefefe" d="M -0.5,-0.5 C 226.167,-0.5 452.833,-0.5 679.5,-0.5C 679.5,284.5 679.5,569.5 679.5,854.5C 452.833,854.5 226.167,854.5 -0.5,854.5C -0.5,569.5 -0.5,284.5 -0.5,-0.5 Z"/></g>
<g><path style="opacity:1" fill="#625b64" d="M 365.5,93.5 C 353.765,93.184 342.099,93.8506 330.5,95.5C 333.258,94.2395 336.258,93.4061 339.5,93C 348.343,92.1764 357.01,92.3431 365.5,93.5 Z"/></g>
<g><path style="opacity:1" fill="#362b39" d="M 365.5,93.5 C 378.22,94.5964 390.553,97.4298 402.5,102C 430.338,113.183 455.005,129.183 476.5,150C 467.31,145.744 457.977,141.41 448.5,137C 443.508,136.168 438.841,134.668 434.5,132.5C 432.485,131.076 430.152,130.41 427.5,130.5C 419.889,128.681 412.222,127.015 404.5,125.5C 397.767,123.256 390.767,122.089 383.5,122C 390.277,123.195 396.943,124.695 403.5,126.5C 434.738,133.364 460.572,149.031 481,173.5C 488.178,183.857 493.178,195.19 496,207.5C 496.828,212.202 496.662,216.869 495.5,221.5C 490.661,222.917 485.828,224.251 481,225.5C 481.25,251.158 481.416,276.825 481.5,302.5C 480.359,329.971 476.359,356.971 469.5,383.5C 465.828,394.509 460.828,404.843 454.5,414.5C 448.841,408.165 443.507,401.499 438.5,394.5C 463.86,341.403 468.527,286.57 452.5,230C 440.838,229.5 429.171,229.333 417.5,229.5C 410.736,227.765 403.736,226.765 396.5,226.5C 390.288,225.652 384.288,223.986 378.5,221.5C 378.167,221.833 377.833,222.167 377.5,222.5C 382.745,229.324 387.745,236.324 392.5,243.5C 376.738,246.466 361.072,245.966 345.5,242C 314.298,232.484 288.131,215.317 267,190.5C 268.503,209.481 264.503,227.148 255,243.5C 251.833,246.667 248.667,249.833 245.5,253C 241.619,255.107 237.619,256.941 233.5,258.5C 230.915,291.575 234.748,323.909 245,355.5C 248.938,367.146 252.771,378.812 256.5,390.5C 249.042,396.962 241.042,402.628 232.5,407.5C 229.76,400.28 227.426,392.947 225.5,385.5C 222.292,364.303 220.125,342.97 219,321.5C 218.251,316.5 216.584,311.833 214,307.5C 209.924,303.966 205.591,303.633 201,306.5C 200.617,305.944 200.117,305.611 199.5,305.5C 188.69,274.753 184.857,243.086 188,210.5C 192.898,174.603 213.398,154.437 249.5,150C 266.721,126.733 288.721,109.733 315.5,99C 320.302,96.8974 325.302,95.7308 330.5,95.5C 342.099,93.8506 353.765,93.184 365.5,93.5 Z"/></g>
<g><path style="opacity:1" fill="#9d989e" d="M 404.5,125.5 C 403.833,125.5 403.5,125.833 403.5,126.5C 396.943,124.695 390.277,123.195 383.5,122C 390.767,122.089 397.767,123.256 404.5,125.5 Z"/></g>
<g><path style="opacity:1" fill="#6f6971" d="M 427.5,130.5 C 430.152,130.41 432.485,131.076 434.5,132.5C 431.848,132.59 429.515,131.924 427.5,130.5 Z"/></g>
<g><path style="opacity:1" fill="#f09b7c" d="M 396.5,226.5 C 403.224,228.508 410.224,229.508 417.5,229.5C 429.171,229.333 440.838,229.5 452.5,230C 468.527,286.57 463.86,341.403 438.5,394.5C 443.507,401.499 448.841,408.165 454.5,414.5C 444.446,444.303 426.446,467.969 400.5,485.5C 399.508,489.783 399.174,494.116 399.5,498.5C 398.676,494.688 398.176,490.688 398,486.5C 386.963,493.872 374.796,498.039 361.5,499C 334.802,503.693 310.135,498.86 287.5,484.5C 261.597,464.406 243.264,438.739 232.5,407.5C 241.042,402.628 249.042,396.962 256.5,390.5C 252.771,378.812 248.938,367.146 245,355.5C 234.748,323.909 230.915,291.575 233.5,258.5C 237.619,256.941 241.619,255.107 245.5,253C 248.667,249.833 251.833,246.667 255,243.5C 264.503,227.148 268.503,209.481 267,190.5C 288.131,215.317 314.298,232.484 345.5,242C 361.072,245.966 376.738,246.466 392.5,243.5C 387.745,236.324 382.745,229.324 377.5,222.5C 377.833,222.167 378.167,221.833 378.5,221.5C 384.288,223.986 390.288,225.652 396.5,226.5 Z"/></g>
<g><path style="opacity:1" fill="#714f4e" d="M 396.5,226.5 C 403.736,226.765 410.736,227.765 417.5,229.5C 410.224,229.508 403.224,228.508 396.5,226.5 Z"/></g>
<g><path style="opacity:1" fill="#6e4e4b" d="M 297.5,258.5 C 290.045,258.152 282.712,258.818 275.5,260.5C 277.277,259.4 279.277,258.566 281.5,258C 287.016,257.183 292.35,257.349 297.5,258.5 Z"/></g>
<g><path style="opacity:1" fill="#7d5752" d="M 413.5,258.5 C 407.464,258.36 401.464,258.693 395.5,259.5C 398.695,257.97 402.195,257.304 406,257.5C 408.69,257.503 411.19,257.836 413.5,258.5 Z"/></g>
<g><path style="opacity:1" fill="#372c39" d="M 413.5,258.5 C 427.85,261.524 437.516,269.857 442.5,283.5C 435.697,281.844 429.03,279.677 422.5,277C 406,271.78 390.166,273.28 375,281.5C 374.333,280.167 374.333,278.833 375,277.5C 379.226,268.436 386.059,262.436 395.5,259.5C 401.464,258.693 407.464,258.36 413.5,258.5 Z"/></g>
<g><path style="opacity:1" fill="#372c38" d="M 297.5,258.5 C 310.589,261.247 320.255,268.581 326.5,280.5C 326.167,280.833 325.833,281.167 325.5,281.5C 313.76,277.628 301.76,274.961 289.5,273.5C 277.604,274.596 266.437,277.93 256,283.5C 255.882,279.384 257.216,275.717 260,272.5C 264.181,267.144 269.347,263.144 275.5,260.5C 282.712,258.818 290.045,258.152 297.5,258.5 Z"/></g>
<g><path style="opacity:1" fill="#c37c66" d="M 225.5,385.5 C 212.062,385.031 201.895,379.031 195,367.5C 186.948,352.864 183.948,337.197 186,320.5C 188.284,313.389 192.784,308.389 199.5,305.5C 200.117,305.611 200.617,305.944 201,306.5C 205.591,303.633 209.924,303.966 214,307.5C 216.584,311.833 218.251,316.5 219,321.5C 220.125,342.97 222.292,364.303 225.5,385.5 Z"/></g>
<g><path style="opacity:1" fill="#3a2e3a" d="M 385.5,328.5 C 384.527,326.052 384.194,323.385 384.5,320.5C 387.973,307.753 396.306,302.587 409.5,305C 420.379,309.189 425.546,317.022 425,328.5C 421.655,317.645 414.488,311.312 403.5,309.5C 392.115,310.555 386.115,316.888 385.5,328.5 Z"/></g>
<g><path style="opacity:1" fill="#c27b65" d="M 481.5,302.5 C 498.867,308.212 505.701,320.212 502,338.5C 500.489,355.074 493.655,368.907 481.5,380C 477.813,382.285 473.813,383.452 469.5,383.5C 476.359,356.971 480.359,329.971 481.5,302.5 Z"/></g>
<g><path style="opacity:1" fill="#a56955" d="M 359.5,386.5 C 355.833,386.5 352.167,386.5 348.5,386.5C 353.681,381.157 359.348,376.323 365.5,372C 367.594,370.745 368.594,368.912 368.5,366.5C 364.349,342.67 362.515,318.67 363,294.5C 366.342,304.536 368.676,314.87 370,325.5C 373.156,341.055 374.323,356.722 373.5,372.5C 366.5,376.667 359.5,380.833 352.5,385C 355.036,385.186 357.369,385.686 359.5,386.5 Z"/></g>
<g><path style="opacity:1" fill="#372d39" d="M 308.5,321.5 C 309.417,324.005 309.417,326.338 308.5,328.5C 304.485,315.66 295.818,310.16 282.5,312C 273.895,316.023 269.395,322.856 269,332.5C 266.513,314.324 274.347,305.824 292.5,307C 300.55,308.885 305.883,313.718 308.5,321.5 Z"/></g>
<g><path style="opacity:1" fill="#af7363" d="M 308.5,321.5 C 309.309,322.469 310.309,323.302 311.5,324C 310.712,327.076 310.212,330.242 310,333.5C 308.991,331.975 308.491,330.308 308.5,328.5C 309.417,326.338 309.417,324.005 308.5,321.5 Z"/></g>
<g><path style="opacity:1" fill="#8b5f57" d="M 384.5,320.5 C 384.194,323.385 384.527,326.052 385.5,328.5C 385.631,329.376 385.298,330.043 384.5,330.5C 383.194,327.02 383.194,323.687 384.5,320.5 Z"/></g>
<g><path style="opacity:1" fill="#362b38" d="M 348.5,386.5 C 352.167,386.5 355.833,386.5 359.5,386.5C 375.924,387.031 390.924,391.864 404.5,401C 407.704,404.036 410.704,407.203 413.5,410.5C 408.025,411.489 402.358,411.822 396.5,411.5C 384.5,411.5 372.5,411.5 360.5,411.5C 335.167,410.833 309.833,410.167 284.5,409.5C 294.57,397.461 307.57,390.628 323.5,389C 331.748,387.274 340.082,386.441 348.5,386.5 Z"/></g>
<g><path style="opacity:1" fill="#ae7565" d="M 284.5,409.5 C 309.833,410.167 335.167,410.833 360.5,411.5C 341.5,411.5 322.5,411.5 303.5,411.5C 296.8,411.83 290.134,411.497 283.5,410.5C 283.624,409.893 283.957,409.56 284.5,409.5 Z"/></g>
<g><path style="opacity:1" fill="#875d56" d="M 413.5,410.5 C 414.043,410.56 414.376,410.893 414.5,411.5C 408.537,412.496 402.537,412.829 396.5,412.5C 396.5,412.167 396.5,411.833 396.5,411.5C 402.358,411.822 408.025,411.489 413.5,410.5 Z"/></g>
<g><path style="opacity:1" fill="#fdfbfa" d="M 303.5,411.5 C 322.5,411.5 341.5,411.5 360.5,411.5C 372.5,411.5 384.5,411.5 396.5,411.5C 396.5,411.833 396.5,412.167 396.5,412.5C 384.365,423.328 370.032,428.661 353.5,428.5C 334.669,428.78 318.003,423.113 303.5,411.5 Z"/></g>
<g><path style="opacity:1" fill="#c47d66" d="M 287.5,484.5 C 310.135,498.86 334.802,503.693 361.5,499C 374.796,498.039 386.963,493.872 398,486.5C 398.176,490.688 398.676,494.688 399.5,498.5C 399.672,506.545 400.339,514.545 401.5,522.5C 365.505,528 329.505,533.5 293.5,539C 288.599,539.683 283.933,540.849 279.5,542.5C 285.594,523.661 288.26,504.328 287.5,484.5 Z"/></g>
<g><path style="opacity:1" fill="#f09b7c" d="M 401.5,522.5 C 403.868,537.067 409.868,549.901 419.5,561C 423.387,564.111 427.72,566.444 432.5,568C 441.937,570.58 451.271,573.08 460.5,575.5C 458.011,575.298 455.677,575.798 453.5,577C 420.67,603.055 383.17,615.555 341,614.5C 299.857,614.344 263.357,601.511 231.5,576C 229.866,575.506 228.199,575.34 226.5,575.5C 236.282,572.384 246.282,569.55 256.5,567C 267.681,562.143 275.347,553.977 279.5,542.5C 283.933,540.849 288.599,539.683 293.5,539C 329.505,533.5 365.505,528 401.5,522.5 Z"/></g>
<g><path style="opacity:1" fill="#8e727f" d="M 222.5,575.5 C 229.005,622.195 236.005,668.862 243.5,715.5C 248.288,742.013 251.954,768.68 254.5,795.5C 254.565,795.938 254.399,796.272 254,796.5C 223.119,748.57 192.619,700.404 162.5,652C 173.961,635.584 185.795,619.418 198,603.5C 198.483,602.552 198.649,601.552 198.5,600.5C 184.147,595.715 169.813,590.715 155.5,585.5C 154.4,584.442 153.066,583.608 151.5,583C 173.685,572.787 197.019,567.287 221.5,566.5C 221.963,569.482 222.296,572.482 222.5,575.5 Z"/></g>
<g><path style="opacity:1" fill="#8e717f" d="M 529.5,585.5 C 515.627,589.771 501.96,594.604 488.5,600C 487.572,600.388 486.905,601.055 486.5,602C 498.5,618.667 510.5,635.333 522.5,652C 491.598,700.725 460.931,749.558 430.5,798.5C 430.167,798.5 429.833,798.5 429.5,798.5C 435.507,755.456 441.841,712.456 448.5,669.5C 452.732,638.105 457.399,606.772 462.5,575.5C 462.833,572.833 463.167,570.167 463.5,567.5C 487.821,568.247 511.155,573.414 533.5,583C 531.68,583.2 530.347,584.034 529.5,585.5 Z"/></g>
<g><path style="opacity:1" fill="#fb6a5a" d="M 222.5,575.5 C 223.833,575.5 225.167,575.5 226.5,575.5C 228.199,575.34 229.866,575.506 231.5,576C 263.357,601.511 299.857,614.344 341,614.5C 383.17,615.555 420.67,603.055 453.5,577C 455.677,575.798 458.011,575.298 460.5,575.5C 461.167,575.5 461.833,575.5 462.5,575.5C 457.399,606.772 452.732,638.105 448.5,669.5C 414.874,677.902 380.874,685.402 346.5,692C 312.118,700.04 277.785,707.874 243.5,715.5C 236.005,668.862 229.005,622.195 222.5,575.5 Z"/></g>
<g><path style="opacity:1" fill="#755d6a" d="M 155.5,585.5 C 169.813,590.715 184.147,595.715 198.5,600.5C 198.649,601.552 198.483,602.552 198,603.5C 185.795,619.418 173.961,635.584 162.5,652C 192.619,700.404 223.119,748.57 254,796.5C 254.399,796.272 254.565,795.938 254.5,795.5C 255.404,796.209 255.737,797.209 255.5,798.5C 181.833,798.5 108.167,798.5 34.5,798.5C 29.676,742.46 43.5093,691.46 76,645.5C 97.3326,618.591 123.833,598.591 155.5,585.5 Z"/></g>
<g><path style="opacity:1" fill="#755d6a" d="M 529.5,585.5 C 593.478,613.999 632.644,662.665 647,731.5C 651.022,752.979 652.522,774.646 651.5,796.5C 578.047,798.492 504.38,799.159 430.5,798.5C 460.931,749.558 491.598,700.725 522.5,652C 510.5,635.333 498.5,618.667 486.5,602C 486.905,601.055 487.572,600.388 488.5,600C 501.96,594.604 515.627,589.771 529.5,585.5 Z"/></g>
<g><path style="opacity:1" fill="#d35450" d="M 448.5,669.5 C 441.841,712.456 435.507,755.456 429.5,798.5C 371.5,798.5 313.5,798.5 255.5,798.5C 255.737,797.209 255.404,796.209 254.5,795.5C 251.954,768.68 248.288,742.013 243.5,715.5C 277.785,707.874 312.118,700.04 346.5,692C 380.874,685.402 414.874,677.902 448.5,669.5 Z"/></g>
<g><path style="opacity:1" fill="#c79798" d="M 651.5,796.5 C 651.5,797.5 651.5,798.5 651.5,799.5C 445.666,799.833 239.999,799.5 34.5,798.5C 108.167,798.5 181.833,798.5 255.5,798.5C 313.5,798.5 371.5,798.5 429.5,798.5C 429.833,798.5 430.167,798.5 430.5,798.5C 504.38,799.159 578.047,798.492 651.5,796.5 Z"/></g>
</svg>
