<?xml version="1.0" encoding="UTF-8"?>
<!DOCTYPE svg PUBLIC "-//W3C//DTD SVG 1.1//EN" "http://www.w3.org/Graphics/SVG/1.1/DTD/svg11.dtd">
<svg xmlns="http://www.w3.org/2000/svg" version="1.1" width="680px" height="855px" style="shape-rendering:geometricPrecision; text-rendering:geometricPrecision; image-rendering:optimizeQuality; fill-rule:evenodd; clip-rule:evenodd" xmlns:xlink="http://www.w3.org/1999/xlink">
<g><path style="opacity:1" fill="#fefefe" d="M -0.5,-0.5 C 226.167,-0.5 452.833,-0.5 679.5,-0.5C 679.5,284.5 679.5,569.5 679.5,854.5C 452.833,854.5 226.167,854.5 -0.5,854.5C -0.5,569.5 -0.5,284.5 -0.5,-0.5 Z"/></g>
<g><path style="opacity:1" fill="#fcddc1" d="M 480.5,463.5 C 476.888,454.838 475.721,445.838 477,436.5C 480.369,421.023 484.369,405.69 489,390.5C 489.936,386.886 490.436,383.22 490.5,379.5C 495.699,360.254 489.699,345.92 472.5,336.5C 470.95,335.559 469.284,334.893 467.5,334.5C 462.961,330.731 457.961,327.731 452.5,325.5C 443.742,319.099 435.742,311.766 428.5,303.5C 426.649,301.224 424.982,298.891 423.5,296.5C 421.345,292.861 419.178,289.194 417,285.5C 417.469,290.105 419.302,294.105 422.5,297.5C 422.392,299.514 423.058,301.18 424.5,302.5C 426.458,305.792 428.791,308.792 431.5,311.5C 436.167,316.833 441.167,321.833 446.5,326.5C 449.319,329.075 452.319,331.408 455.5,333.5C 458.45,335.115 461.116,337.115 463.5,339.5C 464.833,340.167 466.167,340.833 467.5,341.5C 479.946,355.911 482.946,372.245 476.5,390.5C 470.672,407.131 464.839,423.798 459,440.5C 457.637,445.084 456.803,449.751 456.5,454.5C 456.641,459.867 456.808,465.201 457,470.5C 454.132,465.187 452.965,459.521 453.5,453.5C 453.312,447.112 453.812,440.778 455,434.5C 458.843,420.457 462.676,406.457 466.5,392.5C 469.161,384.156 469.994,375.49 469,366.5C 467.658,359.017 463.825,353.351 457.5,349.5C 456.421,347.457 454.754,346.124 452.5,345.5C 436.544,335.211 423.211,322.211 412.5,306.5C 411.89,304.566 410.89,302.899 409.5,301.5C 409.02,298.557 408.02,295.89 406.5,293.5C 405.304,290.579 404.304,287.579 403.5,284.5C 400.569,268.283 398.069,251.95 396,235.5C 394.21,224.104 389.376,214.271 381.5,206C 369.206,197.182 357.04,197.349 345,206.5C 340.444,204.472 335.944,202.306 331.5,200C 311.441,197.06 298.274,205.226 292,224.5C 287.526,244.347 284.026,264.347 281.5,284.5C 279.928,287.215 278.928,290.215 278.5,293.5C 276.62,295.755 275.62,298.422 275.5,301.5C 273.684,303.118 272.351,305.118 271.5,307.5C 264.28,318.724 255.28,328.39 244.5,336.5C 241.127,339.178 237.794,341.844 234.5,344.5C 228.285,346.716 223.619,350.716 220.5,356.5C 218.59,357.975 217.424,359.975 217,362.5C 214.822,372.659 215.322,382.659 218.5,392.5C 222.429,406.458 226.263,420.458 230,434.5C 231.16,439.434 231.66,444.434 231.5,449.5C 232.175,458.129 230.342,466.129 226,473.5C 227.629,468.563 228.462,463.396 228.5,458C 228.497,455.31 228.164,452.81 227.5,450.5C 227.543,447.09 227.043,443.757 226,440.5C 219.094,422.943 212.927,405.276 207.5,387.5C 200.833,366.509 206.167,349.509 223.5,336.5C 225.434,335.89 227.101,334.89 228.5,333.5C 242.568,324.433 253.901,312.766 262.5,298.5C 265.427,294.694 267.094,290.694 267.5,286.5C 264.806,290.851 262.14,295.184 259.5,299.5C 249.779,311.215 238.445,321.215 225.5,329.5C 223.216,329.975 221.216,330.975 219.5,332.5C 200.239,339.431 191.572,353.098 193.5,373.5C 196.247,391.49 200.414,409.156 206,426.5C 206.985,435.968 207.818,445.302 208.5,454.5C 206.084,458.486 203.751,462.653 201.5,467C 192.533,468.106 183.533,468.606 174.5,468.5C 172.285,460.406 169.785,452.406 167,444.5C 166.239,452.586 166.739,460.586 168.5,468.5C 160.09,468.233 151.757,467.4 143.5,466C 137.436,452.911 133.936,439.078 133,424.5C 132.667,414.167 132.333,403.833 132,393.5C 130.847,396.711 130.18,400.044 130,403.5C 128.386,423.76 129.886,443.76 134.5,463.5C 112.353,460.67 98.8534,448.337 94,426.5C 80.6615,380.973 93.1615,344.473 131.5,317C 141.838,311.166 151.838,304.833 161.5,298C 164.979,294.85 168.146,291.35 171,287.5C 171.667,286.833 171.667,286.167 171,285.5C 166.939,289.806 162.772,293.973 158.5,298C 144.174,305.494 130.174,313.494 116.5,322C 89.5517,342.068 77.385,368.901 80,402.5C 81.1201,411.604 82.4534,420.604 84,429.5C 73.713,404.362 73.0463,379.029 82,353.5C 89.5535,337.615 100.387,324.448 114.5,314C 126.839,306.162 139.506,298.828 152.5,292C 165.557,281.599 174.723,268.432 180,252.5C 186.36,227.069 193.36,201.735 201,176.5C 213.483,147.687 234.65,128.187 264.5,118C 283.576,113.13 302.576,113.463 321.5,119C 328.137,120.768 334.637,122.934 341,125.5C 368.691,106.342 397.524,104.509 427.5,120C 443.076,128.572 457.242,139.072 470,151.5C 475.167,158.674 479.5,166.34 483,174.5C 490.548,197.568 496.881,220.901 502,244.5C 507.066,262.214 516.233,277.38 529.5,290C 539.175,296.173 549.175,301.84 559.5,307C 606.09,336.462 619.924,377.295 601,429.5C 601.94,421.796 603.273,414.129 605,406.5C 608.639,367.279 593.806,337.445 560.5,317C 548.876,311.188 537.542,304.854 526.5,298C 520.991,292.313 515.657,287.146 510.5,282.5C 516.311,291.478 523.645,298.978 532.5,305C 593.899,335.744 610.732,382.577 583,445.5C 577.207,453.649 569.373,458.649 559.5,460.5C 559.666,456.486 559.499,452.486 559,448.5C 557.341,453.473 555.841,458.473 554.5,463.5C 549.585,464.82 544.585,465.82 539.5,466.5C 538.5,466.167 537.5,465.833 536.5,465.5C 540.297,451.37 541.297,437.037 539.5,422.5C 538.108,430.515 536.608,438.515 535,446.5C 532.725,453.822 530.559,461.155 528.5,468.5C 513.473,468.757 498.473,468.257 483.5,467C 482.364,465.855 481.364,464.688 480.5,463.5 Z"/></g>
<g><path style="opacity:1" fill="#feab9d" d="M 403.5,284.5 C 392.047,286.607 383.714,292.94 378.5,303.5C 378.833,303.833 379.167,304.167 379.5,304.5C 387.794,298.845 396.794,295.178 406.5,293.5C 408.02,295.89 409.02,298.557 409.5,301.5C 393.789,302.604 381.956,309.937 374,323.5C 371.679,328.476 369.513,333.476 367.5,338.5C 353.516,332.112 340.349,333.446 328,342.5C 322.459,313.635 304.959,299.968 275.5,301.5C 275.62,298.422 276.62,295.755 278.5,293.5C 283.02,294.719 287.687,295.885 292.5,297C 299.976,300.412 307.31,303.745 314.5,307C 307.54,293.524 296.54,286.024 281.5,284.5C 284.026,264.347 287.526,244.347 292,224.5C 298.274,205.226 311.441,197.06 331.5,200C 335.944,202.306 340.444,204.472 345,206.5C 357.04,197.349 369.206,197.182 381.5,206C 389.376,214.271 394.21,224.104 396,235.5C 398.069,251.95 400.569,268.283 403.5,284.5 Z"/></g>
<g><path style="opacity:1" fill="#3a303c" d="M 423.5,296.5 C 423.5,297.167 423.167,297.5 422.5,297.5C 419.302,294.105 417.469,290.105 417,285.5C 419.178,289.194 421.345,292.861 423.5,296.5 Z"/></g>
<g><path style="opacity:1" fill="#362c38" d="M 281.5,284.5 C 296.54,286.024 307.54,293.524 314.5,307C 307.31,303.745 299.976,300.412 292.5,297C 287.687,295.885 283.02,294.719 278.5,293.5C 278.928,290.215 279.928,287.215 281.5,284.5 Z"/></g>
<g><path style="opacity:1" fill="#332a36" d="M 403.5,284.5 C 404.304,287.579 405.304,290.579 406.5,293.5C 396.794,295.178 387.794,298.845 379.5,304.5C 379.167,304.167 378.833,303.833 378.5,303.5C 383.714,292.94 392.047,286.607 403.5,284.5 Z"/></g>
<g><path style="opacity:1" fill="#3e333e" d="M 262.5,298.5 C 261.609,299.11 260.609,299.443 259.5,299.5C 262.14,295.184 264.806,290.851 267.5,286.5C 267.094,290.694 265.427,294.694 262.5,298.5 Z"/></g>
<g><path style="opacity:1" fill="#f1a899" d="M 423.5,296.5 C 424.982,298.891 426.649,301.224 428.5,303.5C 427.167,303.167 425.833,302.833 424.5,302.5C 423.058,301.18 422.392,299.514 422.5,297.5C 423.167,297.5 423.5,297.167 423.5,296.5 Z"/></g>
<g><path style="opacity:1" fill="#a8c6da" d="M 244.5,336.5 C 255.28,328.39 264.28,318.724 271.5,307.5C 295.226,303.417 311.726,312.417 321,334.5C 325.387,361.762 314.22,378.595 287.5,385C 263.3,385.806 248.8,374.306 244,350.5C 243.283,345.78 243.45,341.114 244.5,336.5 Z"/></g>
<g><path style="opacity:1" fill="#a9c4d7" d="M 431.5,311.5 C 438.167,314.833 443.167,319.833 446.5,326.5C 441.167,321.833 436.167,316.833 431.5,311.5 Z"/></g>
<g><path style="opacity:1" fill="#79626d" d="M 424.5,302.5 C 425.833,302.833 427.167,303.167 428.5,303.5C 435.742,311.766 443.742,319.099 452.5,325.5C 454.06,327.954 455.06,330.62 455.5,333.5C 452.319,331.408 449.319,329.075 446.5,326.5C 443.167,319.833 438.167,314.833 431.5,311.5C 428.791,308.792 426.458,305.792 424.5,302.5 Z"/></g>
<g><path style="opacity:1" fill="#fcac9d" d="M 262.5,298.5 C 253.901,312.766 242.568,324.433 228.5,333.5C 227.5,332.167 226.5,330.833 225.5,329.5C 238.445,321.215 249.779,311.215 259.5,299.5C 260.609,299.443 261.609,299.11 262.5,298.5 Z"/></g>
<g><path style="opacity:1" fill="#f9ac9c" d="M 452.5,325.5 C 457.961,327.731 462.961,330.731 467.5,334.5C 465.107,335.353 463.774,337.019 463.5,339.5C 461.116,337.115 458.45,335.115 455.5,333.5C 455.06,330.62 454.06,327.954 452.5,325.5 Z"/></g>
<g><path style="opacity:1" fill="#a8c6da" d="M 412.5,306.5 C 423.211,322.211 436.544,335.211 452.5,345.5C 449.419,372.739 434.085,385.905 406.5,385C 389.408,380.908 378.575,370.408 374,353.5C 371.972,330.066 382.139,314.566 404.5,307C 407.146,306.503 409.813,306.336 412.5,306.5 Z"/></g>
<g><path style="opacity:1" fill="#7d626c" d="M 225.5,329.5 C 226.5,330.833 227.5,332.167 228.5,333.5C 227.101,334.89 225.434,335.89 223.5,336.5C 221.861,335.527 220.527,334.194 219.5,332.5C 221.216,330.975 223.216,329.975 225.5,329.5 Z"/></g>
<g><path style="opacity:1" fill="#ce8a81" d="M 219.5,332.5 C 220.527,334.194 221.861,335.527 223.5,336.5C 206.167,349.509 200.833,366.509 207.5,387.5C 207.44,388.043 207.107,388.376 206.5,388.5C 201.397,384.071 197.064,379.071 193.5,373.5C 191.572,353.098 200.239,339.431 219.5,332.5 Z"/></g>
<g><path style="opacity:1" fill="#775e69" d="M 467.5,334.5 C 469.284,334.893 470.95,335.559 472.5,336.5C 471.167,338.5 469.5,340.167 467.5,341.5C 466.167,340.833 464.833,340.167 463.5,339.5C 463.774,337.019 465.107,335.353 467.5,334.5 Z"/></g>
<g><path style="opacity:1" fill="#39303d" d="M 280.5,330.5 C 299.572,328.741 309.406,337.408 310,356.5C 308.22,349.054 304.386,342.887 298.5,338C 281.493,331.59 271.66,337.423 269,355.5C 266.921,344.331 270.754,335.997 280.5,330.5 Z"/></g>
<g><path style="opacity:1" fill="#ce8b81" d="M 472.5,336.5 C 489.699,345.92 495.699,360.254 490.5,379.5C 486.97,384.6 482.304,388.267 476.5,390.5C 482.946,372.245 479.946,355.911 467.5,341.5C 469.5,340.167 471.167,338.5 472.5,336.5 Z"/></g>
<g><path style="opacity:1" fill="#3a323f" d="M 385.5,351.5 C 384.527,349.052 384.194,346.385 384.5,343.5C 388.214,330.97 396.547,326.136 409.5,329C 420.57,332.982 425.737,340.815 425,352.5C 421.444,337.973 412.277,331.806 397.5,334C 390.398,337.702 386.398,343.535 385.5,351.5 Z"/></g>
<g><path style="opacity:1" fill="#feac9d" d="M 356.5,340.5 C 360.424,341.586 364.091,343.253 367.5,345.5C 373.243,380.757 393.577,394.924 428.5,388C 445.602,380.735 455.269,367.902 457.5,349.5C 463.825,353.351 467.658,359.017 469,366.5C 469.994,375.49 469.161,384.156 466.5,392.5C 464.753,393.981 463.586,395.981 463,398.5C 458.08,417.095 450.914,434.762 441.5,451.5C 430.952,468.884 417.119,483.217 400,494.5C 399.501,498.486 399.334,502.486 399.5,506.5C 398.834,502.979 398.167,499.313 397.5,495.5C 380.857,505.489 362.857,509.489 343.5,507.5C 334.027,507.865 324.693,507.032 315.5,505C 305.991,502.224 296.991,498.391 288.5,493.5C 288.5,492.833 288.167,492.5 287.5,492.5C 270.985,480.655 257.651,465.988 247.5,448.5C 238.127,430.714 231.127,412.048 226.5,392.5C 223.11,380.773 221.11,368.773 220.5,356.5C 223.619,350.716 228.285,346.716 234.5,344.5C 235.688,345.364 236.855,346.364 238,347.5C 241.605,373.608 256.439,387.941 282.5,390.5C 307.461,388.376 322.627,375.043 328,350.5C 331.784,346.363 336.284,343.363 341.5,341.5C 346.463,340.746 351.463,340.413 356.5,340.5 Z"/></g>
<g><path style="opacity:1" fill="#707b8b" d="M 384.5,343.5 C 384.194,346.385 384.527,349.052 385.5,351.5C 385.657,352.873 385.49,354.207 385,355.5C 384.667,355.167 384.333,354.833 384,354.5C 383.19,350.642 383.357,346.976 384.5,343.5 Z"/></g>
<g><path style="opacity:1" fill="#ce8a80" d="M 363.5,355.5 C 366.422,359.684 368.588,364.351 370,369.5C 372.894,377.964 374.228,386.631 374,395.5C 368.98,400.021 363.813,404.355 358.5,408.5C 357.479,407.998 357.312,407.332 358,406.5C 361.873,401.915 365.373,397.081 368.5,392C 364.133,380.206 362.467,368.039 363.5,355.5 Z"/></g>
<g><path style="opacity:1" fill="#ce8b81" d="M 220.5,356.5 C 221.11,368.773 223.11,380.773 226.5,392.5C 223.833,392.5 221.167,392.5 218.5,392.5C 215.322,382.659 214.822,372.659 217,362.5C 217.424,359.975 218.59,357.975 220.5,356.5 Z"/></g>
<g><path style="opacity:1" fill="#d3b8a3" d="M 193.5,373.5 C 197.064,379.071 201.397,384.071 206.5,388.5C 207.107,388.376 207.44,388.043 207.5,387.5C 212.927,405.276 219.094,422.943 226,440.5C 227.043,443.757 227.543,447.09 227.5,450.5C 220.984,451.07 214.651,452.403 208.5,454.5C 207.818,445.302 206.985,435.968 206,426.5C 200.414,409.156 196.247,391.49 193.5,373.5 Z"/></g>
<g><path style="opacity:1" fill="#785f6a" d="M 275.5,301.5 C 304.959,299.968 322.459,313.635 328,342.5C 340.349,333.446 353.516,332.112 367.5,338.5C 369.513,333.476 371.679,328.476 374,323.5C 381.956,309.937 393.789,302.604 409.5,301.5C 410.89,302.899 411.89,304.566 412.5,306.5C 409.813,306.336 407.146,306.503 404.5,307C 382.139,314.566 371.972,330.066 374,353.5C 378.575,370.408 389.408,380.908 406.5,385C 434.085,385.905 449.419,372.739 452.5,345.5C 454.754,346.124 456.421,347.457 457.5,349.5C 455.269,367.902 445.602,380.735 428.5,388C 393.577,394.924 373.243,380.757 367.5,345.5C 364.091,343.253 360.424,341.586 356.5,340.5C 354.696,339.838 352.696,339.505 350.5,339.5C 347.186,339.343 344.186,340.009 341.5,341.5C 336.284,343.363 331.784,346.363 328,350.5C 322.627,375.043 307.461,388.376 282.5,390.5C 256.439,387.941 241.605,373.608 238,347.5C 236.855,346.364 235.688,345.364 234.5,344.5C 237.794,341.844 241.127,339.178 244.5,336.5C 243.45,341.114 243.283,345.78 244,350.5C 248.8,374.306 263.3,385.806 287.5,385C 314.22,378.595 325.387,361.762 321,334.5C 311.726,312.417 295.226,303.417 271.5,307.5C 272.351,305.118 273.684,303.118 275.5,301.5 Z"/></g>
<g><path style="opacity:1" fill="#b48181" d="M 356.5,340.5 C 351.463,340.413 346.463,340.746 341.5,341.5C 344.186,340.009 347.186,339.343 350.5,339.5C 352.696,339.505 354.696,339.838 356.5,340.5 Z"/></g>
<g><path style="opacity:1" fill="#d3b8a2" d="M 218.5,392.5 C 221.167,392.5 223.833,392.5 226.5,392.5C 231.127,412.048 238.127,430.714 247.5,448.5C 242.146,448.569 236.813,448.902 231.5,449.5C 231.66,444.434 231.16,439.434 230,434.5C 226.263,420.458 222.429,406.458 218.5,392.5 Z"/></g>
<g><path style="opacity:1" fill="#d3b8a3" d="M 490.5,379.5 C 490.436,383.22 489.936,386.886 489,390.5C 484.369,405.69 480.369,421.023 477,436.5C 475.721,445.838 476.888,454.838 480.5,463.5C 472.792,459.709 464.792,456.709 456.5,454.5C 456.803,449.751 457.637,445.084 459,440.5C 464.839,423.798 470.672,407.131 476.5,390.5C 482.304,388.267 486.97,384.6 490.5,379.5 Z"/></g>
<g><path style="opacity:1" fill="#fefcfb" d="M 349.5,434.5 C 365.514,434.167 381.514,434.501 397.5,435.5C 379.288,450.053 358.622,455.22 335.5,451C 322.717,448.438 311.051,443.438 300.5,436C 317.005,435.831 333.338,435.331 349.5,434.5 Z"/></g>
<g><path style="opacity:1" fill="#d5baa4" d="M 466.5,392.5 C 462.676,406.457 458.843,420.457 455,434.5C 453.812,440.778 453.312,447.112 453.5,453.5C 449.606,452.407 445.606,451.74 441.5,451.5C 450.914,434.762 458.08,417.095 463,398.5C 463.586,395.981 464.753,393.981 466.5,392.5 Z"/></g>
<g><path style="opacity:1" fill="#cc887f" d="M 288.5,493.5 C 296.991,498.391 305.991,502.224 315.5,505C 324.693,507.032 334.027,507.865 343.5,507.5C 362.857,509.489 380.857,505.489 397.5,495.5C 398.167,499.313 398.834,502.979 399.5,506.5C 399.755,514.869 400.421,523.202 401.5,531.5C 361.376,536.409 321.376,542.409 281.5,549.5C 280.702,549.043 280.369,548.376 280.5,547.5C 282.974,538.604 284.974,529.604 286.5,520.5C 288.259,511.733 288.925,502.733 288.5,493.5 Z"/></g>
<g><path style="opacity:1" fill="#deaaa3" d="M 287.5,492.5 C 288.167,492.5 288.5,492.833 288.5,493.5C 288.925,502.733 288.259,511.733 286.5,520.5C 287.183,511.182 287.517,501.849 287.5,492.5 Z"/></g>
<g><path style="opacity:1" fill="#feab9d" d="M 401.5,531.5 C 403.789,543.41 408.289,554.41 415,564.5C 422.736,572.236 431.903,577.236 442.5,579.5C 433.833,587.161 424.5,593.827 414.5,599.5C 413.391,599.557 412.391,599.89 411.5,600.5C 408.101,602.199 404.768,603.866 401.5,605.5C 400.041,605.433 398.708,605.766 397.5,606.5C 387.066,610.109 376.399,612.775 365.5,614.5C 360.149,615.037 354.816,615.704 349.5,616.5C 345.833,616.5 342.167,616.5 338.5,616.5C 327.507,615.681 316.507,614.015 305.5,611.5C 304.292,610.766 302.959,610.433 301.5,610.5C 296.162,608.833 290.829,607.166 285.5,605.5C 284.609,604.89 283.609,604.557 282.5,604.5C 268.497,598.167 255.83,589.834 244.5,579.5C 252.429,576.685 260.095,573.185 267.5,569C 273.79,562.907 278.123,555.741 280.5,547.5C 280.369,548.376 280.702,549.043 281.5,549.5C 321.376,542.409 361.376,536.409 401.5,531.5 Z"/></g>
<g><path style="opacity:1" fill="#6f95bc" d="M 244.5,579.5 C 255.83,589.834 268.497,598.167 282.5,604.5C 278.878,610.018 276.211,616.018 274.5,622.5C 285.937,620.994 296.937,618.327 307.5,614.5C 306.807,613.482 306.141,612.482 305.5,611.5C 316.507,614.015 327.507,615.681 338.5,616.5C 334.849,616.162 333.183,617.828 333.5,621.5C 343.907,620.201 354.24,618.368 364.5,616C 365.056,615.617 365.389,615.117 365.5,614.5C 376.399,612.775 387.066,610.109 397.5,606.5C 395.474,611.874 393.474,617.207 391.5,622.5C 402.901,620.826 413.901,618.16 424.5,614.5C 421.391,609.262 418.058,604.262 414.5,599.5C 424.5,593.827 433.833,587.161 442.5,579.5C 443.857,578.315 445.357,577.315 447,576.5C 472.292,582.087 496.792,589.753 520.5,599.5C 519.504,599.414 518.671,599.748 518,600.5C 514.557,607.719 511.39,615.052 508.5,622.5C 519.243,620.785 529.909,618.618 540.5,616C 541.022,615.439 541.355,614.772 541.5,614C 540.368,612.235 539.368,610.402 538.5,608.5C 565.806,620.462 588.806,638.129 607.5,661.5C 604.244,664.336 602.244,668.003 601.5,672.5C 605.837,672.416 609.837,671.416 613.5,669.5C 630.228,694.511 639.728,722.178 642,752.5C 642.703,770.846 642.536,789.179 641.5,807.5C 502.167,807.5 362.833,807.5 223.5,807.5C 210.265,806.816 196.932,806.15 183.5,805.5C 180.879,800.578 177.546,796.245 173.5,792.5C 172.558,792.608 171.725,792.941 171,793.5C 169.154,797.855 167.321,802.188 165.5,806.5C 152.167,806.5 138.833,806.5 125.5,806.5C 122.71,801.232 119.21,796.565 115,792.5C 113.739,792.759 112.739,793.426 112,794.5C 110.202,798.422 108.702,802.422 107.5,806.5C 108.5,806.5 109.5,806.5 110.5,806.5C 110.5,806.833 110.5,807.167 110.5,807.5C 89.1209,807.822 67.7876,807.489 46.5,806.5C 45.1345,803.313 44.3012,799.98 44,796.5C 41.7861,770.955 43.9528,745.955 50.5,721.5C 56.7982,720.274 63.1316,719.107 69.5,718C 71.2861,717.804 72.6195,716.971 73.5,715.5C 69.2476,708.661 64.7476,701.994 60,695.5C 59.6174,696.056 59.1174,696.389 58.5,696.5C 63.3056,685.714 69.3056,675.714 76.5,666.5C 76.1231,668.258 75.4565,669.925 74.5,671.5C 75.5,671.833 76.5,672.167 77.5,672.5C 87.5127,670.496 97.5127,668.496 107.5,666.5C 105.035,660.512 101.869,654.845 98,649.5C 96.6927,647.808 95.1927,646.475 93.5,645.5C 114.719,625.382 139.052,610.048 166.5,599.5C 163.223,607.055 160.223,614.722 157.5,622.5C 168.407,620.398 179.24,618.064 190,615.5C 190.315,614.092 189.982,612.759 189,611.5C 185.419,606.672 182.085,601.672 179,596.5C 178.329,595.748 177.496,595.414 176.5,595.5C 196.902,587.543 217.902,581.21 239.5,576.5C 241.423,577.092 243.089,578.092 244.5,579.5 Z"/></g>
<g><path style="opacity:1" fill="#6e93ba" d="M 171.5,597.5 C 172.209,596.596 173.209,596.263 174.5,596.5C 178.405,601.968 182.072,607.635 185.5,613.5C 177.734,616.514 169.734,618.348 161.5,619C 164.791,611.786 168.458,604.786 172.5,598C 172.272,597.601 171.938,597.435 171.5,597.5 Z"/></g>
<g><path style="opacity:1" fill="#37303d" d="M 464.5,590.5 C 466.39,590.297 467.89,590.963 469,592.5C 473,598.5 477,604.5 481,610.5C 482.128,612.345 482.628,614.345 482.5,616.5C 472.121,618.175 461.787,620.175 451.5,622.5C 450.833,622.167 450.167,621.833 449.5,621.5C 454.313,611.05 459.313,600.717 464.5,590.5 Z"/></g>
<g><path style="opacity:1" fill="#6d93ba" d="M 465.5,595.5 C 470.426,601.162 474.76,607.329 478.5,614C 470.519,616.505 462.519,618.005 454.5,618.5C 458.453,610.929 462.12,603.262 465.5,595.5 Z"/></g>
<g><path style="opacity:1" fill="#6e93ba" d="M 521.5,599.5 C 524.899,601.199 528.232,602.866 531.5,604.5C 532.889,607.607 534.555,610.607 536.5,613.5C 528.764,615.945 521.098,617.611 513.5,618.5C 516.455,612.26 519.122,605.927 521.5,599.5 Z"/></g>
<g><path style="opacity:1" fill="#37303d" d="M 229.5,591.5 C 231.288,591.215 232.955,591.548 234.5,592.5C 239.379,599.542 244.045,606.709 248.5,614C 248.095,614.945 247.428,615.612 246.5,616C 236.636,618.039 226.802,620.206 217,622.5C 216.5,622.167 216,621.833 215.5,621.5C 220.725,611.719 225.392,601.719 229.5,591.5 Z"/></g>
<g><path style="opacity:1" fill="#6d93b9" d="M 231.5,595.5 C 236.166,601.518 240.499,607.851 244.5,614.5C 237.274,615.937 230.108,617.603 223,619.5C 222.167,619.167 221.333,618.833 220.5,618.5C 223.924,610.655 227.59,602.988 231.5,595.5 Z"/></g>
<g><path style="opacity:1" fill="#6e93ba" d="M 411.5,600.5 C 414.474,605.149 417.474,609.816 420.5,614.5C 412.55,616.423 404.55,618.09 396.5,619.5C 397.804,614.723 399.804,610.223 402.5,606C 402.272,605.601 401.938,605.435 401.5,605.5C 404.768,603.866 408.101,602.199 411.5,600.5 Z"/></g>
<g><path style="opacity:1" fill="#372f3c" d="M 520.5,599.5 C 520.833,599.5 521.167,599.5 521.5,599.5C 519.122,605.927 516.455,612.26 513.5,618.5C 521.098,617.611 528.764,615.945 536.5,613.5C 534.555,610.607 532.889,607.607 531.5,604.5C 534.004,605.584 536.337,606.917 538.5,608.5C 539.368,610.402 540.368,612.235 541.5,614C 541.355,614.772 541.022,615.439 540.5,616C 529.909,618.618 519.243,620.785 508.5,622.5C 511.39,615.052 514.557,607.719 518,600.5C 518.671,599.748 519.504,599.414 520.5,599.5 Z"/></g>
<g><path style="opacity:1" fill="#38303e" d="M 414.5,599.5 C 418.058,604.262 421.391,609.262 424.5,614.5C 413.901,618.16 402.901,620.826 391.5,622.5C 393.474,617.207 395.474,611.874 397.5,606.5C 398.708,605.766 400.041,605.433 401.5,605.5C 401.938,605.435 402.272,605.601 402.5,606C 399.804,610.223 397.804,614.723 396.5,619.5C 404.55,618.09 412.55,616.423 420.5,614.5C 417.474,609.816 414.474,605.149 411.5,600.5C 412.391,599.89 413.391,599.557 414.5,599.5 Z"/></g>
<g><path style="opacity:1" fill="#6e94ba" d="M 285.5,605.5 C 290.829,607.166 296.162,608.833 301.5,610.5C 301.539,611.583 301.873,612.583 302.5,613.5C 301.833,613.833 301.167,614.167 300.5,614.5C 293.774,615.954 287.107,617.621 280.5,619.5C 279.417,618.635 279.251,617.635 280,616.5C 281.558,612.637 283.391,608.97 285.5,605.5 Z"/></g>
<g><path style="opacity:1" fill="#372f3c" d="M 176.5,595.5 C 177.496,595.414 178.329,595.748 179,596.5C 182.085,601.672 185.419,606.672 189,611.5C 189.982,612.759 190.315,614.092 190,615.5C 179.24,618.064 168.407,620.398 157.5,622.5C 160.223,614.722 163.223,607.055 166.5,599.5C 168.05,598.559 169.716,597.893 171.5,597.5C 171.938,597.435 172.272,597.601 172.5,598C 168.458,604.786 164.791,611.786 161.5,619C 169.734,618.348 177.734,616.514 185.5,613.5C 182.072,607.635 178.405,601.968 174.5,596.5C 174.842,595.662 175.508,595.328 176.5,595.5 Z"/></g>
<g><path style="opacity:1" fill="#3e3a49" d="M 365.5,614.5 C 365.389,615.117 365.056,615.617 364.5,616C 354.24,618.368 343.907,620.201 333.5,621.5C 333.183,617.828 334.849,616.162 338.5,616.5C 337.15,617.824 337.317,618.824 339,619.5C 342.757,618.971 346.257,617.971 349.5,616.5C 354.816,615.704 360.149,615.037 365.5,614.5 Z"/></g>
<g><path style="opacity:1" fill="#6c90b6" d="M 338.5,616.5 C 342.167,616.5 345.833,616.5 349.5,616.5C 346.257,617.971 342.757,618.971 339,619.5C 337.317,618.824 337.15,617.824 338.5,616.5 Z"/></g>
<g><path style="opacity:1" fill="#38303d" d="M 282.5,604.5 C 283.609,604.557 284.609,604.89 285.5,605.5C 283.391,608.97 281.558,612.637 280,616.5C 279.251,617.635 279.417,618.635 280.5,619.5C 287.107,617.621 293.774,615.954 300.5,614.5C 301.167,614.167 301.833,613.833 302.5,613.5C 301.873,612.583 301.539,611.583 301.5,610.5C 302.959,610.433 304.292,610.766 305.5,611.5C 306.141,612.482 306.807,613.482 307.5,614.5C 296.937,618.327 285.937,620.994 274.5,622.5C 276.211,616.018 278.878,610.018 282.5,604.5 Z"/></g>
<g><path style="opacity:1" fill="#37303d" d="M 323.5,640.5 C 325.592,640.561 327.092,641.561 328,643.5C 332,649.5 336,655.5 340,661.5C 341.009,663.025 341.509,664.692 341.5,666.5C 331.54,668.625 321.54,670.625 311.5,672.5C 310.5,672.167 309.5,671.833 308.5,671.5C 313.257,660.987 318.257,650.654 323.5,640.5 Z"/></g>
<g><path style="opacity:1" fill="#38313f" d="M 147.5,640.5 C 148.822,640.33 149.989,640.663 151,641.5C 156.167,649.167 161.333,656.833 166.5,664.5C 165.619,665.971 164.286,666.804 162.5,667C 152.953,669.48 143.287,671.313 133.5,672.5C 133.687,670.436 134.187,668.436 135,666.5C 139.435,657.964 143.601,649.298 147.5,640.5 Z"/></g>
<g><path style="opacity:1" fill="#37303d" d="M 93.5,645.5 C 95.1927,646.475 96.6927,647.808 98,649.5C 101.869,654.845 105.035,660.512 107.5,666.5C 97.5127,668.496 87.5127,670.496 77.5,672.5C 76.5,672.167 75.5,671.833 74.5,671.5C 75.4565,669.925 76.1231,668.258 76.5,666.5C 79.0745,661.591 82.4078,657.258 86.5,653.5C 86.9382,653.435 87.2716,653.601 87.5,654C 83.994,658.333 81.3273,663.166 79.5,668.5C 80,668.833 80.5,669.167 81,669.5C 88.152,667.969 95.3186,666.636 102.5,665.5C 102.649,664.448 102.483,663.448 102,662.5C 98.312,657.782 95.1454,652.782 92.5,647.5C 92.8333,646.833 93.1667,646.167 93.5,645.5 Z"/></g>
<g><path style="opacity:1" fill="#372f3c" d="M 557.5,640.5 C 558.822,640.33 559.989,640.663 561,641.5C 565.965,649.266 570.798,657.099 575.5,665C 575.095,665.945 574.428,666.612 573.5,667C 563.198,669.493 552.864,671.66 542.5,673.5C 546.658,662.18 551.658,651.18 557.5,640.5 Z"/></g>
<g><path style="opacity:1" fill="#6d92b9" d="M 558.5,646.5 C 563.215,651.574 567.215,657.24 570.5,663.5C 569.088,664.806 567.421,665.64 565.5,666C 560.124,666.975 554.791,668.142 549.5,669.5C 548.833,669.167 548.167,668.833 547.5,668.5C 551.18,661.14 554.847,653.807 558.5,646.5 Z"/></g>
<g><path style="opacity:1" fill="#38313f" d="M 264.5,641.5 C 265.978,641.238 267.311,641.571 268.5,642.5C 273.696,649.864 278.696,657.364 283.5,665C 272.76,668.408 261.76,670.908 250.5,672.5C 254.341,661.817 259.007,651.484 264.5,641.5 Z"/></g>
<g><path style="opacity:1" fill="#6e94bb" d="M 324.5,646.5 C 328.557,651.59 332.39,656.923 336,662.5C 336.483,663.448 336.649,664.448 336.5,665.5C 329.566,666.253 322.732,667.587 316,669.5C 315.167,669.167 314.333,668.833 313.5,668.5C 317.196,661.109 320.862,653.776 324.5,646.5 Z"/></g>
<g><path style="opacity:1" fill="#6e94ba" d="M 265.5,645.5 C 270.166,651.518 274.499,657.851 278.5,664.5C 271.086,666.765 263.586,668.765 256,670.5C 255.5,670.167 255,669.833 254.5,669.5C 258.156,661.519 261.823,653.519 265.5,645.5 Z"/></g>
<g><path style="opacity:1" fill="#6e94ba" d="M 148.5,646.5 C 153.551,651.899 157.884,657.899 161.5,664.5C 153.929,666.643 146.263,668.31 138.5,669.5C 141.004,661.489 144.338,653.823 148.5,646.5 Z"/></g>
<g><path style="opacity:1" fill="#38313f" d="M 381.5,641.5 C 384.509,641.423 386.676,642.756 388,645.5C 392.167,651.833 396.333,658.167 400.5,664.5C 398.208,666.258 395.541,667.424 392.5,668C 384.183,669.663 375.85,671.163 367.5,672.5C 371.397,661.804 376.064,651.47 381.5,641.5 Z"/></g>
<g><path style="opacity:1" fill="#6e93ba" d="M 382.5,646.5 C 387.494,651.857 391.827,657.857 395.5,664.5C 387.905,666.649 380.238,668.649 372.5,670.5C 374.577,662.299 377.911,654.299 382.5,646.5 Z"/></g>
<g><path style="opacity:1" fill="#6e94ba" d="M 92.5,647.5 C 95.1454,652.782 98.312,657.782 102,662.5C 102.483,663.448 102.649,664.448 102.5,665.5C 95.3186,666.636 88.152,667.969 81,669.5C 80.5,669.167 80,668.833 79.5,668.5C 81.3273,663.166 83.994,658.333 87.5,654C 87.2716,653.601 86.9382,653.435 86.5,653.5C 88.1667,651.167 90.1667,649.167 92.5,647.5 Z"/></g>
<g><path style="opacity:1" fill="#38303e" d="M 206.5,640.5 C 207.675,640.281 208.675,640.614 209.5,641.5C 214.881,649.096 219.881,656.929 224.5,665C 224.095,665.945 223.428,666.612 222.5,667C 212.045,668.724 201.712,670.891 191.5,673.5C 195.674,662.149 200.674,651.149 206.5,640.5 Z"/></g>
<g><path style="opacity:1" fill="#6e94ba" d="M 206.5,646.5 C 207.496,646.414 208.329,646.748 209,647.5C 213.197,653.173 216.697,659.173 219.5,665.5C 212.693,666.195 206.027,667.528 199.5,669.5C 198.5,669.167 197.5,668.833 196.5,668.5C 200.043,661.18 203.376,653.846 206.5,646.5 Z"/></g>
<g><path style="opacity:1" fill="#372f3c" d="M 499.5,640.5 C 501.017,640.511 502.184,641.177 503,642.5C 507.637,649.969 512.47,657.302 517.5,664.5C 516.619,665.971 515.286,666.804 513.5,667C 503.789,669.073 494.122,671.239 484.5,673.5C 484.343,672.127 484.51,670.793 485,669.5C 489.756,659.689 494.59,650.022 499.5,640.5 Z"/></g>
<g><path style="opacity:1" fill="#6d93ba" d="M 499.5,646.5 C 504.494,651.857 508.827,657.857 512.5,664.5C 504.9,666.553 497.233,668.22 489.5,669.5C 492.054,661.51 495.387,653.844 499.5,646.5 Z"/></g>
<g><path style="opacity:1" fill="#3a3543" d="M 607.5,661.5 C 607.833,662.167 608.167,662.833 608.5,663.5C 607.559,665.466 606.559,667.466 605.5,669.5C 608.044,669.949 610.71,669.949 613.5,669.5C 609.837,671.416 605.837,672.416 601.5,672.5C 602.244,668.003 604.244,664.336 607.5,661.5 Z"/></g>
<g><path style="opacity:1" fill="#38303e" d="M 440.5,640.5 C 442.592,640.561 444.092,641.561 445,643.5C 449.5,650.5 454,657.5 458.5,664.5C 457.619,665.971 456.286,666.804 454.5,667C 447.075,668.285 439.742,669.952 432.5,672C 430.098,672.814 427.765,672.647 425.5,671.5C 430.313,661.05 435.313,650.717 440.5,640.5 Z"/></g>
<g><path style="opacity:1" fill="#6d93ba" d="M 441.5,645.5 C 446.058,651.594 450.391,657.927 454.5,664.5C 446.268,667.084 437.935,668.917 429.5,670C 433.914,662.007 437.914,653.84 441.5,645.5 Z"/></g>
<g><path style="opacity:1" fill="#7191b4" d="M 608.5,663.5 C 610.156,665.46 611.823,667.46 613.5,669.5C 610.71,669.949 608.044,669.949 605.5,669.5C 606.559,667.466 607.559,665.466 608.5,663.5 Z"/></g>
<g><path style="opacity:1" fill="#372f3c" d="M 288.5,691.5 C 291.509,691.423 293.676,692.756 295,695.5C 298.969,702.3 303.135,708.966 307.5,715.5C 305.303,717.518 302.636,718.685 299.5,719C 291.182,720.719 282.849,722.219 274.5,723.5C 278.63,712.575 283.297,701.908 288.5,691.5 Z"/></g>
<g><path style="opacity:1" fill="#393240" d="M 580.5,692.5 C 583.044,692.104 585.211,692.771 587,694.5C 591.303,701.634 595.803,708.634 600.5,715.5C 589.769,718.98 578.769,721.313 567.5,722.5C 571.827,712.511 576.161,702.511 580.5,692.5 Z"/></g>
<g><path style="opacity:1" fill="#38323f" d="M 113.5,691.5 C 114.822,691.33 115.989,691.663 117,692.5C 121.086,699.007 125.42,705.34 130,711.5C 131.187,713.044 131.52,714.711 131,716.5C 120.954,719.204 110.787,721.538 100.5,723.5C 99.8333,723.167 99.1667,722.833 98.5,722.5C 103.713,712.153 108.713,701.82 113.5,691.5 Z"/></g>
<g><path style="opacity:1" fill="#372f3d" d="M 171.5,691.5 C 172.978,691.238 174.311,691.571 175.5,692.5C 180.749,699.996 185.749,707.663 190.5,715.5C 179.958,719.415 168.958,722.081 157.5,723.5C 157.343,722.127 157.51,720.793 158,719.5C 162.77,710.293 167.27,700.96 171.5,691.5 Z"/></g>
<g><path style="opacity:1" fill="#393341" d="M 231.5,691.5 C 233.74,692.568 235.574,694.234 237,696.5C 241.215,702.431 245.049,708.598 248.5,715C 248.095,715.945 247.428,716.612 246.5,717C 237.754,718.749 229.087,720.749 220.5,723C 218.741,723.798 217.074,723.631 215.5,722.5C 220.214,713.74 224.38,704.74 228,695.5C 229.032,693.973 230.199,692.64 231.5,691.5 Z"/></g>
<g><path style="opacity:1" fill="#6d93b9" d="M 172.5,696.5 C 177.632,702.156 182.298,708.323 186.5,715C 178.814,716.671 171.147,718.505 163.5,720.5C 162.417,719.635 162.251,718.635 163,717.5C 166.269,710.518 169.436,703.518 172.5,696.5 Z"/></g>
<g><path style="opacity:1" fill="#6f95bb" d="M 58.5,697.5 C 61.0538,703.605 64.3872,709.272 68.5,714.5C 62.6039,716.577 56.6039,718.244 50.5,719.5C 52.644,711.898 55.3107,704.564 58.5,697.5 Z"/></g>
<g><path style="opacity:1" fill="#6e94bb" d="M 231.5,696.5 C 235.97,702.487 240.304,708.654 244.5,715C 236.607,717.747 228.607,719.247 220.5,719.5C 224.373,711.855 228.039,704.188 231.5,696.5 Z"/></g>
<g><path style="opacity:1" fill="#6e94ba" d="M 582.5,696.5 C 587.843,702.521 592.176,709.188 595.5,716.5C 588.209,717.125 581.042,718.458 574,720.5C 573.167,720.167 572.333,719.833 571.5,719.5C 575.453,711.929 579.12,704.262 582.5,696.5 Z"/></g>
<g><path style="opacity:1" fill="#6e93ba" d="M 114.5,696.5 C 118.97,702.487 123.304,708.654 127.5,715C 120.102,716.949 112.602,718.783 105,720.5C 104.5,720.167 104,719.833 103.5,719.5C 106.94,711.624 110.607,703.957 114.5,696.5 Z"/></g>
<g><path style="opacity:1" fill="#38303e" d="M 50.5,721.5 C 50.5,720.833 50.5,720.167 50.5,719.5C 56.6039,718.244 62.6039,716.577 68.5,714.5C 64.3872,709.272 61.0538,703.605 58.5,697.5C 58.5,697.167 58.5,696.833 58.5,696.5C 59.1174,696.389 59.6174,696.056 60,695.5C 64.7476,701.994 69.2476,708.661 73.5,715.5C 72.6195,716.971 71.2861,717.804 69.5,718C 63.1316,719.107 56.7982,720.274 50.5,721.5 Z"/></g>
<g><path style="opacity:1" fill="#6d93ba" d="M 289.5,696.5 C 294.494,701.857 298.827,707.857 302.5,714.5C 295.336,717.124 288.002,719.124 280.5,720.5C 279.417,719.635 279.251,718.635 280,717.5C 283.649,710.72 286.816,703.72 289.5,696.5 Z"/></g>
<g><path style="opacity:1" fill="#393240" d="M 405.5,691.5 C 408.509,691.423 410.676,692.756 412,695.5C 415.969,702.3 420.135,708.966 424.5,715.5C 424.291,716.086 423.957,716.586 423.5,717C 412.803,719.216 402.136,721.383 391.5,723.5C 395.611,712.61 400.277,701.943 405.5,691.5 Z"/></g>
<g><path style="opacity:1" fill="#6d93b9" d="M 406.5,696.5 C 411.494,701.857 415.827,707.857 419.5,714.5C 412.081,717.253 404.414,719.253 396.5,720.5C 399.275,712.281 402.608,704.281 406.5,696.5 Z"/></g>
<g><path style="opacity:1" fill="#393340" d="M 347.5,691.5 C 349.39,691.297 350.89,691.963 352,693.5C 356.631,700.599 361.131,707.766 365.5,715C 364.318,716.735 362.651,717.735 360.5,718C 351.733,719.387 343.067,721.22 334.5,723.5C 333.833,723.167 333.167,722.833 332.5,722.5C 337.786,712.262 342.786,701.929 347.5,691.5 Z"/></g>
<g><path style="opacity:1" fill="#6d93ba" d="M 348.5,696.5 C 353.426,702.162 357.76,708.329 361.5,715C 353.652,717.917 345.652,719.417 337.5,719.5C 341.467,711.902 345.134,704.236 348.5,696.5 Z"/></g>
<g><path style="opacity:1" fill="#38303d" d="M 464.5,691.5 C 466.39,691.297 467.89,691.963 469,693.5C 473,699.5 477,705.5 481,711.5C 482.128,713.345 482.628,715.345 482.5,717.5C 472.38,718.857 462.38,720.857 452.5,723.5C 451.5,723.167 450.5,722.833 449.5,722.5C 454.313,712.05 459.313,701.717 464.5,691.5 Z"/></g>
<g><path style="opacity:1" fill="#6d93b9" d="M 465.5,696.5 C 470.426,702.162 474.76,708.329 478.5,715C 471.057,716.774 463.557,718.607 456,720.5C 455.5,720.167 455,719.833 454.5,719.5C 458.453,711.929 462.12,704.262 465.5,696.5 Z"/></g>
<g><path style="opacity:1" fill="#372f3c" d="M 523.5,690.5 C 525.017,690.511 526.184,691.177 527,692.5C 531.419,699.672 536.085,706.672 541,713.5C 541.667,714.5 541.667,715.5 541,716.5C 530.401,719.69 519.568,722.023 508.5,723.5C 513.086,712.268 518.086,701.268 523.5,690.5 Z"/></g>
<g><path style="opacity:1" fill="#6d92b9" d="M 523.5,696.5 C 528.494,701.857 532.827,707.857 536.5,714.5C 529.083,716.805 521.583,718.805 514,720.5C 516.853,712.447 520.02,704.447 523.5,696.5 Z"/></g>
<g><path style="opacity:1" fill="#38323f" d="M 440.5,741.5 C 442.592,741.561 444.092,742.561 445,744.5C 449,750.5 453,756.5 457,762.5C 458.009,764.025 458.509,765.692 458.5,767.5C 448.392,769.688 438.225,771.688 428,773.5C 427.167,773.167 426.333,772.833 425.5,772.5C 430.313,762.05 435.313,751.717 440.5,741.5 Z"/></g>
<g><path style="opacity:1" fill="#372f3d" d="M 147.5,741.5 C 149.39,741.297 150.89,741.963 152,743.5C 156.585,751.005 161.418,758.338 166.5,765.5C 166.291,766.086 165.957,766.586 165.5,767C 155.013,770.108 144.347,772.275 133.5,773.5C 133.343,772.127 133.51,770.793 134,769.5C 138.77,760.293 143.27,750.96 147.5,741.5 Z"/></g>
<g><path style="opacity:1" fill="#372f3d" d="M 206.5,741.5 C 208.592,741.561 210.092,742.561 211,744.5C 215.631,751.599 220.131,758.766 224.5,766C 224.095,766.945 223.428,767.612 222.5,768C 213.027,769.961 203.527,771.795 194,773.5C 193.167,773.167 192.333,772.833 191.5,772.5C 196.241,762.018 201.241,751.685 206.5,741.5 Z"/></g>
<g><path style="opacity:1" fill="#38303e" d="M 263.5,742.5 C 265.288,742.215 266.955,742.548 268.5,743.5C 273.5,750.833 278.5,758.167 283.5,765.5C 282.286,767.069 280.619,767.902 278.5,768C 269.214,770.156 259.881,771.989 250.5,773.5C 254.557,763.052 258.891,752.718 263.5,742.5 Z"/></g>
<g><path style="opacity:1" fill="#38303e" d="M 89.5,741.5 C 91.371,741.859 92.871,742.859 94,744.5C 98,750.5 102,756.5 106,762.5C 107.009,764.025 107.509,765.692 107.5,767.5C 96.4468,769.71 85.4468,772.044 74.5,774.5C 78.6744,763.149 83.6744,752.149 89.5,741.5 Z"/></g>
<g><path style="opacity:1" fill="#372f3c" d="M 557.5,741.5 C 558.822,741.33 559.989,741.663 561,742.5C 564.94,749.436 569.273,756.103 574,762.5C 575.187,764.044 575.52,765.711 575,767.5C 564.24,770.064 553.407,772.398 542.5,774.5C 546.658,763.18 551.658,752.18 557.5,741.5 Z"/></g>
<g><path style="opacity:1" fill="#38313e" d="M 615.5,742.5 C 617.144,742.286 618.644,742.62 620,743.5C 624.637,750.969 629.47,758.302 634.5,765.5C 633.619,766.971 632.286,767.804 630.5,768C 621.434,769.513 612.434,771.347 603.5,773.5C 602.833,773.167 602.167,772.833 601.5,772.5C 606.197,762.443 610.864,752.443 615.5,742.5 Z"/></g>
<g><path style="opacity:1" fill="#6d93ba" d="M 148.5,747.5 C 153.551,752.899 157.884,758.899 161.5,765.5C 153.97,767.806 146.303,769.473 138.5,770.5C 140.995,762.505 144.329,754.839 148.5,747.5 Z"/></g>
<g><path style="opacity:1" fill="#6e94ba" d="M 440.5,747.5 C 442.017,747.511 443.184,748.177 444,749.5C 447.303,754.969 450.803,760.302 454.5,765.5C 446.655,768.363 438.655,769.696 430.5,769.5C 434.416,762.342 437.749,755.008 440.5,747.5 Z"/></g>
<g><path style="opacity:1" fill="#38313e" d="M 323.5,741.5 C 325.592,741.561 327.092,742.561 328,744.5C 332.631,751.599 337.131,758.766 341.5,766C 341.095,766.945 340.428,767.612 339.5,768C 329.112,770.015 318.779,772.181 308.5,774.5C 312.674,763.149 317.674,752.149 323.5,741.5 Z"/></g>
<g><path style="opacity:1" fill="#6d93b9" d="M 324.5,747.5 C 328.557,752.59 332.39,757.923 336,763.5C 336.483,764.448 336.649,765.448 336.5,766.5C 329.774,767.556 323.107,768.889 316.5,770.5C 315.5,770.167 314.5,769.833 313.5,769.5C 317.196,762.109 320.862,754.776 324.5,747.5 Z"/></g>
<g><path style="opacity:1" fill="#6d93b9" d="M 558.5,747.5 C 563.215,752.574 567.215,758.24 570.5,764.5C 569.088,765.806 567.421,766.64 565.5,767C 559.883,767.79 554.383,768.956 549,770.5C 548.333,769.167 548.333,767.833 549,766.5C 552.18,760.14 555.347,753.807 558.5,747.5 Z"/></g>
<g><path style="opacity:1" fill="#6d93b9" d="M 616.5,747.5 C 617.496,747.414 618.329,747.748 619,748.5C 622.46,754.59 626.294,760.423 630.5,766C 622.15,768.373 613.817,769.873 605.5,770.5C 609.614,763.034 613.281,755.368 616.5,747.5 Z"/></g>
<g><path style="opacity:1" fill="#372f3c" d="M 498.5,741.5 C 500.39,741.297 501.89,741.963 503,743.5C 507.637,750.969 512.47,758.302 517.5,765.5C 517.023,766.478 516.357,767.311 515.5,768C 505.171,770.07 494.838,771.903 484.5,773.5C 488.979,762.723 493.645,752.057 498.5,741.5 Z"/></g>
<g><path style="opacity:1" fill="#6d93b9" d="M 499.5,747.5 C 504.494,752.857 508.827,758.857 512.5,765.5C 505.552,767.371 498.552,769.038 491.5,770.5C 490.833,770.167 490.167,769.833 489.5,769.5C 492.421,761.933 495.755,754.6 499.5,747.5 Z"/></g>
<g><path style="opacity:1" fill="#6d93ba" d="M 265.5,747.5 C 270.494,752.857 274.827,758.857 278.5,765.5C 270.882,767.655 263.215,769.655 255.5,771.5C 254.417,770.635 254.251,769.635 255,768.5C 258.498,761.505 261.998,754.505 265.5,747.5 Z"/></g>
<g><path style="opacity:1" fill="#6e94bb" d="M 89.5,747.5 C 90.4959,747.414 91.3292,747.748 92,748.5C 96.1973,754.173 99.6973,760.173 102.5,766.5C 95.7479,767.403 89.0813,768.736 82.5,770.5C 81.5,770.167 80.5,769.833 79.5,769.5C 82.8619,762.114 86.1952,754.781 89.5,747.5 Z"/></g>
<g><path style="opacity:1" fill="#6e94bb" d="M 206.5,747.5 C 208.017,747.511 209.184,748.177 210,749.5C 212.606,754.435 215.606,759.102 219,763.5C 219.483,764.448 219.649,765.448 219.5,766.5C 212.765,767.447 206.099,768.78 199.5,770.5C 198.5,770.167 197.5,769.833 196.5,769.5C 200.393,762.383 203.727,755.05 206.5,747.5 Z"/></g>
<g><path style="opacity:1" fill="#372f3c" d="M 381.5,742.5 C 383.144,742.286 384.644,742.62 386,743.5C 390.637,750.969 395.47,758.302 400.5,765.5C 400.291,766.086 399.957,766.586 399.5,767C 389.688,769.296 379.854,771.462 370,773.5C 369.167,773.167 368.333,772.833 367.5,772.5C 371.65,762.202 376.317,752.202 381.5,742.5 Z"/></g>
<g><path style="opacity:1" fill="#6d93b9" d="M 382.5,747.5 C 387.98,752.992 392.313,759.325 395.5,766.5C 387.721,767.63 380.054,769.297 372.5,771.5C 372.167,771.167 371.833,770.833 371.5,770.5C 374.892,762.716 378.558,755.05 382.5,747.5 Z"/></g>
<g><path style="opacity:1" fill="#352d3a" d="M 471.5,806.5 C 470.316,803.139 468.483,800.139 466,797.5C 464.213,800.363 462.713,803.363 461.5,806.5C 460.127,806.657 458.793,806.49 457.5,806C 459.794,801.912 461.961,797.745 464,793.5C 466.54,792.124 468.54,792.79 470,795.5C 472.041,799.084 474.208,802.584 476.5,806C 474.866,806.494 473.199,806.66 471.5,806.5 Z"/></g>
<g><path style="opacity:1" fill="#352d39" d="M 589.5,806.5 C 587.552,803.379 585.385,800.379 583,797.5C 581.268,800.394 579.768,803.394 578.5,806.5C 577.5,806.5 576.5,806.5 575.5,806.5C 576.758,802.408 578.425,798.408 580.5,794.5C 582.353,793.24 584.186,793.24 586,794.5C 588.5,798.333 591,802.167 593.5,806C 592.207,806.49 590.873,806.657 589.5,806.5 Z"/></g>
<g><path style="opacity:1" fill="#352c39" d="M 62.5,806.5 C 60.7583,803.357 58.7583,800.357 56.5,797.5C 54.3418,800.148 53.0084,803.148 52.5,806.5C 51.0222,806.762 49.6888,806.429 48.5,805.5C 50.6072,801.619 52.4405,797.619 54,793.5C 56.5848,792.115 58.5848,792.782 60,795.5C 62.1667,799 64.3333,802.5 66.5,806C 65.2068,806.49 63.8734,806.657 62.5,806.5 Z"/></g>
<g><path style="opacity:1" fill="#38313f" d="M 288.5,792.5 C 290.144,792.286 291.644,792.62 293,793.5C 295.698,797.367 298.198,801.367 300.5,805.5C 299.277,806.614 297.944,806.781 296.5,806C 294.85,803.187 292.85,800.687 290.5,798.5C 288.113,800.607 286.78,803.273 286.5,806.5C 285.167,806.5 283.833,806.5 282.5,806.5C 283.928,801.638 285.928,796.971 288.5,792.5 Z"/></g>
<g><path style="opacity:1" fill="#362e3b" d="M 347.5,792.5 C 349.39,792.297 350.89,792.963 352,794.5C 354.5,798.333 357,802.167 359.5,806C 357.741,806.798 356.074,806.631 354.5,805.5C 352.862,802.696 351.029,800.029 349,797.5C 347.139,799.888 345.806,802.554 345,805.5C 343.817,806.731 342.651,806.731 341.5,805.5C 343.24,801.021 345.24,796.687 347.5,792.5 Z"/></g>
<g><path style="opacity:1" fill="#362d3a" d="M 183.5,805.5 C 182.432,806.434 181.099,806.768 179.5,806.5C 177.758,803.357 175.758,800.357 173.5,797.5C 171.342,800.148 170.008,803.148 169.5,806.5C 168.167,806.5 166.833,806.5 165.5,806.5C 167.321,802.188 169.154,797.855 171,793.5C 171.725,792.941 172.558,792.608 173.5,792.5C 177.546,796.245 180.879,800.578 183.5,805.5 Z"/></g>
<g><path style="opacity:1" fill="#352d3a" d="M 530.5,806.5 C 528.758,803.357 526.758,800.357 524.5,797.5C 522.392,800.157 521.059,803.157 520.5,806.5C 519.127,806.657 517.793,806.49 516.5,806C 518.337,801.816 520.171,797.65 522,793.5C 522.689,792.643 523.522,791.977 524.5,791.5C 528.327,796.167 531.994,801.001 535.5,806C 533.866,806.494 532.199,806.66 530.5,806.5 Z"/></g>
<g><path style="opacity:1" fill="#6a8fb6" d="M 62.5,806.5 C 59.1667,806.5 55.8333,806.5 52.5,806.5C 53.0084,803.148 54.3418,800.148 56.5,797.5C 58.7583,800.357 60.7583,803.357 62.5,806.5 Z"/></g>
<g><path style="opacity:1" fill="#362e3b" d="M 413.5,806.5 C 411.758,803.357 409.758,800.357 407.5,797.5C 405.342,800.148 404.008,803.148 403.5,806.5C 402.127,806.657 400.793,806.49 399.5,806C 401.158,802.349 402.825,798.682 404.5,795C 405.893,792.644 407.726,792.144 410,793.5C 412.698,797.367 415.198,801.367 417.5,805.5C 416.311,806.429 414.978,806.762 413.5,806.5 Z"/></g>
<g><path style="opacity:1" fill="#352d3a" d="M 125.5,806.5 C 123.833,806.5 122.167,806.5 120.5,806.5C 119.191,803.222 117.358,800.222 115,797.5C 113.055,800.284 111.555,803.284 110.5,806.5C 109.5,806.5 108.5,806.5 107.5,806.5C 108.702,802.422 110.202,798.422 112,794.5C 112.739,793.426 113.739,792.759 115,792.5C 119.21,796.565 122.71,801.232 125.5,806.5 Z"/></g>
<g><path style="opacity:1" fill="#6a90b7" d="M 179.5,806.5 C 176.167,806.5 172.833,806.5 169.5,806.5C 170.008,803.148 171.342,800.148 173.5,797.5C 175.758,800.357 177.758,803.357 179.5,806.5 Z"/></g>
<g><path style="opacity:1" fill="#352d39" d="M 237.5,806.5 C 236.252,803.004 234.252,800.004 231.5,797.5C 229.781,800.323 228.447,803.323 227.5,806.5C 226.5,806.5 225.5,806.5 224.5,806.5C 225.495,801.161 227.995,796.828 232,793.5C 233.107,793.585 234.107,793.919 235,794.5C 237.5,798.333 240,802.167 242.5,806C 240.866,806.494 239.199,806.66 237.5,806.5 Z"/></g>
<g><path style="opacity:1" fill="#6c92ba" d="M 471.5,806.5 C 468.167,806.5 464.833,806.5 461.5,806.5C 462.713,803.363 464.213,800.363 466,797.5C 468.483,800.139 470.316,803.139 471.5,806.5 Z"/></g>
<g><path style="opacity:1" fill="#6b92b9" d="M 237.5,806.5 C 234.167,806.5 230.833,806.5 227.5,806.5C 228.447,803.323 229.781,800.323 231.5,797.5C 234.252,800.004 236.252,803.004 237.5,806.5 Z"/></g>
<g><path style="opacity:1" fill="#6a8eb5" d="M 413.5,806.5 C 410.167,806.5 406.833,806.5 403.5,806.5C 404.008,803.148 405.342,800.148 407.5,797.5C 409.758,800.357 411.758,803.357 413.5,806.5 Z"/></g>
<g><path style="opacity:1" fill="#6a90b7" d="M 530.5,806.5 C 527.167,806.5 523.833,806.5 520.5,806.5C 521.059,803.157 522.392,800.157 524.5,797.5C 526.758,800.357 528.758,803.357 530.5,806.5 Z"/></g>
<g><path style="opacity:1" fill="#6c92ba" d="M 120.5,806.5 C 117.167,806.5 113.833,806.5 110.5,806.5C 111.555,803.284 113.055,800.284 115,797.5C 117.358,800.222 119.191,803.222 120.5,806.5 Z"/></g>
<g><path style="opacity:1" fill="#6990b6" d="M 589.5,806.5 C 585.833,806.5 582.167,806.5 578.5,806.5C 579.768,803.394 581.268,800.394 583,797.5C 585.385,800.379 587.552,803.379 589.5,806.5 Z"/></g>
<g><path style="opacity:1" fill="#b2b7c7" d="M 183.5,805.5 C 196.932,806.15 210.265,806.816 223.5,807.5C 185.833,807.5 148.167,807.5 110.5,807.5C 110.5,807.167 110.5,806.833 110.5,806.5C 113.833,806.5 117.167,806.5 120.5,806.5C 122.167,806.5 123.833,806.5 125.5,806.5C 138.833,806.5 152.167,806.5 165.5,806.5C 166.833,806.5 168.167,806.5 169.5,806.5C 172.833,806.5 176.167,806.5 179.5,806.5C 181.099,806.768 182.432,806.434 183.5,805.5 Z"/></g>
</svg>
