<?xml version="1.0" encoding="UTF-8"?>
<!DOCTYPE svg PUBLIC "-//W3C//DTD SVG 1.1//EN" "http://www.w3.org/Graphics/SVG/1.1/DTD/svg11.dtd">
<svg xmlns="http://www.w3.org/2000/svg" version="1.1" width="680px" height="855px" style="shape-rendering:geometricPrecision; text-rendering:geometricPrecision; image-rendering:optimizeQuality; fill-rule:evenodd; clip-rule:evenodd" xmlns:xlink="http://www.w3.org/1999/xlink">
<g><path style="opacity:1" fill="#fefefe" d="M -0.5,-0.5 C 226.167,-0.5 452.833,-0.5 679.5,-0.5C 679.5,284.5 679.5,569.5 679.5,854.5C 452.833,854.5 226.167,854.5 -0.5,854.5C -0.5,569.5 -0.5,284.5 -0.5,-0.5 Z"/></g>
<g><path style="opacity:1" fill="#362b39" d="M 491.5,315.5 C 485.754,333.714 478.421,351.381 469.5,368.5C 469.043,369.298 468.376,369.631 467.5,369.5C 461.726,339.091 459.893,308.424 462,277.5C 426.769,268.555 396.103,251.555 370,226.5C 359.409,214.994 351.076,201.994 345,187.5C 332.556,217.609 312.056,240.442 283.5,256C 272.282,262.277 260.616,267.444 248.5,271.5C 230.466,258.466 215.132,242.799 202.5,224.5C 218.494,183.006 247.494,154.84 289.5,140C 305.419,135.517 320.753,136.85 335.5,144C 338.646,146.312 341.646,148.812 344.5,151.5C 357.586,138.474 373.253,133.974 391.5,138C 432.877,149.048 464.043,173.215 485,210.5C 495.77,232.984 499.77,256.65 497,281.5C 495.489,292.901 493.655,304.234 491.5,315.5 Z"/></g>
<g><path style="opacity:1" fill="#945350" d="M 467.5,369.5 C 467.918,370.222 468.584,370.722 469.5,371C 467.515,378.093 465.848,385.259 464.5,392.5C 457.434,427.807 441.1,457.973 415.5,483C 410.288,487.052 404.955,490.885 399.5,494.5C 383.945,504.264 366.945,508.597 348.5,507.5C 326.31,509.536 305.977,504.536 287.5,492.5C 265.278,476.086 248.778,455.086 238,429.5C 233.462,417.72 229.629,405.72 226.5,393.5C 222.583,381.968 220.917,370.302 221.5,358.5C 225.445,346.95 227.945,334.95 229,322.5C 230.314,307.198 230.814,291.864 230.5,276.5C 236.609,275.242 242.609,273.575 248.5,271.5C 260.616,267.444 272.282,262.277 283.5,256C 312.056,240.442 332.556,217.609 345,187.5C 351.076,201.994 359.409,214.994 370,226.5C 396.103,251.555 426.769,268.555 462,277.5C 459.893,308.424 461.726,339.091 467.5,369.5 Z"/></g>
<g><path style="opacity:1" fill="#2b242e" d="M 202.5,224.5 C 215.132,242.799 230.466,258.466 248.5,271.5C 242.609,273.575 236.609,275.242 230.5,276.5C 230.814,291.864 230.314,307.198 229,322.5C 227.945,334.95 225.445,346.95 221.5,358.5C 212.034,343.233 205.034,326.899 200.5,309.5C 196.437,296.336 194.77,282.836 195.5,269C 194.451,253.495 196.784,238.662 202.5,224.5 Z"/></g>
<g><path style="opacity:1" fill="#372c38" d="M 400.5,280.5 C 419.504,278.833 433.504,286.333 442.5,303C 436.199,300.557 429.866,297.89 423.5,295C 407.411,288.887 392.577,291.053 379,301.5C 380.478,295.748 383.645,290.914 388.5,287C 392.434,284.536 396.434,282.369 400.5,280.5 Z"/></g>
<g><path style="opacity:1" fill="#372c38" d="M 271.5,280.5 C 290.05,278.941 304.05,286.107 313.5,302C 313.167,302.5 312.833,303 312.5,303.5C 301.846,297.09 290.346,293.09 278,291.5C 267.965,292.346 258.798,295.679 250.5,301.5C 249.592,300.21 249.759,298.877 251,297.5C 256.029,289.581 262.863,283.914 271.5,280.5 Z"/></g>
<g><path style="opacity:1" fill="#75413b" d="M 200.5,309.5 C 205.034,326.899 212.034,343.233 221.5,358.5C 220.917,370.302 222.583,381.968 226.5,393.5C 215.802,393.984 206.802,390.317 199.5,382.5C 187.732,365.568 183.565,346.902 187,326.5C 189.609,320.225 193.942,315.558 200,312.5C 200.483,311.552 200.649,310.552 200.5,309.5 Z"/></g>
<g><path style="opacity:1" fill="#76413c" d="M 491.5,315.5 C 500.128,321.268 503.795,329.435 502.5,340C 502.55,353.475 498.883,365.808 491.5,377C 492.056,377.383 492.389,377.883 492.5,378.5C 489.071,381.75 485.404,384.917 481.5,388C 476.288,391.22 470.622,392.72 464.5,392.5C 465.848,385.259 467.515,378.093 469.5,371C 468.584,370.722 467.918,370.222 467.5,369.5C 468.376,369.631 469.043,369.298 469.5,368.5C 478.421,351.381 485.754,333.714 491.5,315.5 Z"/></g>
<g><path style="opacity:1" fill="#3b2e39" d="M 282.5,326.5 C 300.655,325.825 309.822,334.492 310,352.5C 307.922,344.822 303.756,338.655 297.5,334C 281.28,328.514 271.78,334.348 269,351.5C 266.749,339.325 271.249,330.992 282.5,326.5 Z"/></g>
<g><path style="opacity:1" fill="#3c2e39" d="M 398.5,324.5 C 410.237,323.285 418.737,327.952 424,338.5C 425.432,342.758 426.099,347.091 426,351.5C 423.848,342.351 418.681,335.518 410.5,331C 396.015,328.156 387.515,333.989 385,348.5C 382.961,336.728 387.461,328.728 398.5,324.5 Z"/></g>
<g><path style="opacity:1" fill="#77423c" d="M 362.5,350.5 C 364.284,351.574 365.451,353.24 366,355.5C 371.05,367.36 373.716,379.694 374,392.5C 368.624,397.544 362.958,402.211 357,406.5C 356.333,405.833 356.333,405.167 357,404.5C 360.96,399.407 364.793,394.241 368.5,389C 365.154,376.387 363.154,363.554 362.5,350.5 Z"/></g>
<g><path style="opacity:1" fill="#2a242d" d="M 492.5,378.5 C 497.761,380.592 501.594,384.259 504,389.5C 507.368,399.135 507.201,408.635 503.5,418C 507.822,415.861 512.489,414.194 517.5,413C 537.03,411.865 546.863,421.032 547,440.5C 544.613,448.057 540.113,454.057 533.5,458.5C 533.833,458.833 534.167,459.167 534.5,459.5C 544.683,453.81 555.016,453.31 565.5,458C 568.523,460.177 570.523,463.011 571.5,466.5C 572.229,471.13 572.563,475.797 572.5,480.5C 568.769,492.413 561.436,501.58 550.5,508C 559.567,507.747 568.233,509.414 576.5,513C 581.829,518.034 581.496,522.701 575.5,527C 574.207,527.49 572.873,527.657 571.5,527.5C 568.813,527.336 566.146,527.503 563.5,528C 564.044,528.717 564.711,529.217 565.5,529.5C 585.256,539.348 591.423,554.681 584,575.5C 580.209,584.9 573.209,589.234 563,588.5C 557.874,588.838 553.041,587.838 548.5,585.5C 550.947,589.25 553.781,593.25 557,597.5C 560.999,604.332 563.499,611.665 564.5,619.5C 560.7,617.766 557.034,615.766 553.5,613.5C 552.609,612.89 551.609,612.557 550.5,612.5C 550.158,611.662 549.492,611.328 548.5,611.5C 547.71,610.599 546.71,609.932 545.5,609.5C 530.827,602.663 515.827,596.663 500.5,591.5C 498.786,590.262 496.786,589.595 494.5,589.5C 491.79,587.892 488.79,586.725 485.5,586C 476.154,583.83 466.82,581.663 457.5,579.5C 448.572,576.844 439.572,574.01 430.5,571C 424.152,568.009 418.819,563.842 414.5,558.5C 413.023,554.213 411.023,550.213 408.5,546.5C 406.748,538.774 404.415,531.441 401.5,524.5C 399.89,514.589 399.224,504.589 399.5,494.5C 404.955,490.885 410.288,487.052 415.5,483C 441.1,457.973 457.434,427.807 464.5,392.5C 470.622,392.72 476.288,391.22 481.5,388C 485.404,384.917 489.071,381.75 492.5,378.5 Z"/></g>
<g><path style="opacity:1" fill="#2a242d" d="M 199.5,382.5 C 206.802,390.317 215.802,393.984 226.5,393.5C 229.629,405.72 233.462,417.72 238,429.5C 248.778,455.086 265.278,476.086 287.5,492.5C 287.679,503.19 287.345,513.857 286.5,524.5C 284.901,524.232 283.568,524.566 282.5,525.5C 281.211,532.616 279.544,539.616 277.5,546.5C 275.195,550.432 272.862,554.432 270.5,558.5C 266.921,563.572 262.254,567.405 256.5,570C 246.762,573.302 237.095,576.469 227.5,579.5C 214.544,581.77 201.877,585.103 189.5,589.5C 187.597,589.796 185.93,590.463 184.5,591.5C 169.194,596.152 154.527,602.152 140.5,609.5C 139.167,609.833 137.833,610.167 136.5,610.5C 136.5,610.167 136.5,609.833 136.5,609.5C 139.252,600.835 143.918,593.335 150.5,587C 123.118,593.628 110.285,582.794 112,554.5C 115.063,543.023 121.896,534.69 132.5,529.5C 133.473,529.013 134.473,528.513 135.5,528C 132.183,527.502 128.85,527.335 125.5,527.5C 118.452,525.143 116.786,520.643 120.5,514C 124.282,511.098 128.615,509.432 133.5,509C 138.5,508.667 143.5,508.333 148.5,508C 138.708,502.595 131.542,494.761 127,484.5C 124.345,476.03 125.345,468.03 130,460.5C 133.956,456.465 138.789,454.465 144.5,454.5C 151.751,455.318 158.751,456.818 165.5,459C 146.927,443.748 146.927,428.748 165.5,414C 175.533,411.104 184.867,412.604 193.5,418.5C 193.833,417.833 194.167,417.167 194.5,416.5C 191.802,407.126 191.968,397.793 195,388.5C 196.332,386.34 197.832,384.34 199.5,382.5 Z"/></g>
<g><path style="opacity:1" fill="#fbf9f9" d="M 315.5,431.5 C 342.835,431.333 370.169,431.5 397.5,432C 380.017,446.265 360.017,451.598 337.5,448C 324.067,445.566 311.733,440.566 300.5,433C 305.684,432.826 310.684,432.326 315.5,431.5 Z"/></g>
<g><path style="opacity:1" fill="#89878b" d="M 571.5,466.5 C 572.973,469.017 573.64,471.85 573.5,475C 573.494,477.033 573.161,478.866 572.5,480.5C 572.563,475.797 572.229,471.13 571.5,466.5 Z"/></g>
<g><path style="opacity:1" fill="#76413b" d="M 287.5,492.5 C 305.977,504.536 326.31,509.536 348.5,507.5C 366.945,508.597 383.945,504.264 399.5,494.5C 399.224,504.589 399.89,514.589 401.5,524.5C 361.921,532.121 322.254,532.454 282.5,525.5C 283.568,524.566 284.901,524.232 286.5,524.5C 287.345,513.857 287.679,503.19 287.5,492.5 Z"/></g>
<g><path style="opacity:1" fill="#f96a59" d="M 401.5,524.5 C 404.415,531.441 406.748,538.774 408.5,546.5C 364.833,546.5 321.167,546.5 277.5,546.5C 279.544,539.616 281.211,532.616 282.5,525.5C 322.254,532.454 361.921,532.121 401.5,524.5 Z"/></g>
<g><path style="opacity:1" fill="#ada9af" d="M 125.5,527.5 C 128.85,527.335 132.183,527.502 135.5,528C 134.473,528.513 133.473,529.013 132.5,529.5C 130.167,528.833 127.833,528.167 125.5,527.5 Z"/></g>
<g><path style="opacity:1" fill="#949095" d="M 571.5,527.5 C 569.5,528.167 567.5,528.833 565.5,529.5C 564.711,529.217 564.044,528.717 563.5,528C 566.146,527.503 568.813,527.336 571.5,527.5 Z"/></g>
<g><path style="opacity:1" fill="#fcdedd" d="M 277.5,546.5 C 321.167,546.5 364.833,546.5 408.5,546.5C 411.023,550.213 413.023,554.213 414.5,558.5C 366.5,558.5 318.5,558.5 270.5,558.5C 272.862,554.432 275.195,550.432 277.5,546.5 Z"/></g>
<g><path style="opacity:1" fill="#fc6f5e" d="M 270.5,558.5 C 318.5,558.5 366.5,558.5 414.5,558.5C 418.819,563.842 424.152,568.009 430.5,571C 439.572,574.01 448.572,576.844 457.5,579.5C 380.833,579.5 304.167,579.5 227.5,579.5C 237.095,576.469 246.762,573.302 256.5,570C 262.254,567.405 266.921,563.572 270.5,558.5 Z"/></g>
<g><path style="opacity:1" fill="#fde0e0" d="M 227.5,579.5 C 304.167,579.5 380.833,579.5 457.5,579.5C 466.82,581.663 476.154,583.83 485.5,586C 488.79,586.725 491.79,587.892 494.5,589.5C 392.833,590.833 291.167,590.833 189.5,589.5C 201.877,585.103 214.544,581.77 227.5,579.5 Z"/></g>
<g><path style="opacity:1" fill="#fbb8b2" d="M 189.5,589.5 C 291.167,590.833 392.833,590.833 494.5,589.5C 496.786,589.595 498.786,590.262 500.5,591.5C 395.167,591.5 289.833,591.5 184.5,591.5C 185.93,590.463 187.597,589.796 189.5,589.5 Z"/></g>
<g><path style="opacity:1" fill="#fb6a59" d="M 184.5,591.5 C 289.833,591.5 395.167,591.5 500.5,591.5C 515.827,596.663 530.827,602.663 545.5,609.5C 410.5,610.833 275.5,610.833 140.5,609.5C 154.527,602.152 169.194,596.152 184.5,591.5 Z"/></g>
<g><path style="opacity:1" fill="#fc8476" d="M 140.5,609.5 C 275.5,610.833 410.5,610.833 545.5,609.5C 546.71,609.932 547.71,610.599 548.5,611.5C 410.999,611.833 273.666,611.5 136.5,610.5C 137.833,610.167 139.167,609.833 140.5,609.5 Z"/></g>
<g><path style="opacity:1" fill="#fddede" d="M 136.5,609.5 C 136.5,609.833 136.5,610.167 136.5,610.5C 273.666,611.5 410.999,611.833 548.5,611.5C 549.492,611.328 550.158,611.662 550.5,612.5C 416.166,612.333 281.833,612.5 147.5,613C 148.766,613.309 149.933,613.809 151,614.5C 282.709,613.52 414.209,613.187 545.5,613.5C 548.131,613.321 550.465,613.987 552.5,615.5C 553.298,615.043 553.631,614.376 553.5,613.5C 557.034,615.766 560.7,617.766 564.5,619.5C 565.167,620.167 565.833,620.833 566.5,621.5C 417.5,622.833 268.5,622.833 119.5,621.5C 125.38,617.733 131.046,613.733 136.5,609.5 Z"/></g>
<g><path style="opacity:1" fill="#fbe6e5" d="M 550.5,612.5 C 551.609,612.557 552.609,612.89 553.5,613.5C 553.631,614.376 553.298,615.043 552.5,615.5C 550.465,613.987 548.131,613.321 545.5,613.5C 414.209,613.187 282.709,613.52 151,614.5C 149.933,613.809 148.766,613.309 147.5,613C 281.833,612.5 416.166,612.333 550.5,612.5 Z"/></g>
<g><path style="opacity:1" fill="#fcd4d4" d="M 119.5,621.5 C 268.5,622.833 417.5,622.833 566.5,621.5C 567.71,621.932 568.71,622.599 569.5,623.5C 418.5,623.5 267.5,623.5 116.5,623.5C 116.973,622.094 117.973,621.427 119.5,621.5 Z"/></g>
<g><path style="opacity:1" fill="#fc6b5b" d="M 116.5,623.5 C 267.5,623.5 418.5,623.5 569.5,623.5C 578.051,629.041 586.051,635.375 593.5,642.5C 426.167,643.833 258.833,643.833 91.5,642.5C 99.5493,635.783 107.883,629.45 116.5,623.5 Z"/></g>
<g><path style="opacity:1" fill="#fdbbb5" d="M 91.5,642.5 C 258.833,643.833 426.167,643.833 593.5,642.5C 594.167,642.5 594.5,642.833 594.5,643.5C 426.5,644.833 258.5,644.833 90.5,643.5C 90.5,642.833 90.8333,642.5 91.5,642.5 Z"/></g>
<g><path style="opacity:1" fill="#fedbda" d="M 90.5,643.5 C 258.5,644.833 426.5,644.833 594.5,643.5C 599.208,647.207 603.208,651.54 606.5,656.5C 430.5,656.5 254.5,656.5 78.5,656.5C 78.5,655.833 78.8333,655.5 79.5,655.5C 254.5,655.667 429.5,655.5 604.5,655C 429.666,654.833 255,654.333 80.5,653.5C 83.5,649.833 86.8333,646.5 90.5,643.5 Z"/></g>
<g><path style="opacity:1" fill="#fdf0f0" d="M 80.5,653.5 C 255,654.333 429.666,654.833 604.5,655C 429.5,655.5 254.5,655.667 79.5,655.5C 79.3284,654.508 79.6618,653.842 80.5,653.5 Z"/></g>
<g><path style="opacity:1" fill="#fc6958" d="M 78.5,656.5 C 254.5,656.5 430.5,656.5 606.5,656.5C 607.5,656.833 608.167,657.5 608.5,658.5C 605.813,658.336 603.146,658.503 600.5,659C 579.989,664.375 559.655,669.875 539.5,675.5C 537.833,675.5 536.167,675.5 534.5,675.5C 377.999,675.833 221.666,675.5 65.5,674.5C 69.0587,667.941 73.3921,661.941 78.5,656.5 Z"/></g>
<g><path style="opacity:1" fill="#be544b" d="M 608.5,658.5 C 612.521,663.196 616.188,668.196 619.5,673.5C 593.188,675.491 566.521,676.158 539.5,675.5C 559.655,669.875 579.989,664.375 600.5,659C 603.146,658.503 605.813,658.336 608.5,658.5 Z"/></g>
<g><path style="opacity:1" fill="#fb8174" d="M 65.5,674.5 C 221.666,675.5 377.999,675.833 534.5,675.5C 534.5,675.833 534.5,676.167 534.5,676.5C 533.833,676.5 533.167,676.5 532.5,676.5C 376.332,676.833 220.332,676.5 64.5,675.5C 64.5,674.833 64.8333,674.5 65.5,674.5 Z"/></g>
<g><path style="opacity:1" fill="#bd645e" d="M 619.5,673.5 C 620.338,673.842 620.672,674.508 620.5,675.5C 592.005,676.498 563.338,676.831 534.5,676.5C 534.5,676.167 534.5,675.833 534.5,675.5C 536.167,675.5 537.833,675.5 539.5,675.5C 566.521,676.158 593.188,675.491 619.5,673.5 Z"/></g>
<g><path style="opacity:1" fill="#fdd7d6" d="M 64.5,675.5 C 220.332,676.5 376.332,676.833 532.5,676.5C 530.095,677.768 527.428,678.435 524.5,678.5C 371.001,677.5 217.334,677.167 63.5,677.5C 63.3284,676.508 63.6618,675.842 64.5,675.5 Z"/></g>
<g><path style="opacity:1" fill="#fde1e0" d="M 63.5,677.5 C 217.334,677.167 371.001,677.5 524.5,678.5C 512.253,681.226 500.253,684.56 488.5,688.5C 487.167,688.5 485.833,688.5 484.5,688.5C 341.833,688.5 199.167,688.5 56.5,688.5C 58.5974,684.628 60.9308,680.961 63.5,677.5 Z"/></g>
<g><path style="opacity:1" fill="#bda7a9" d="M 620.5,675.5 C 623.905,679.295 626.571,683.628 628.5,688.5C 581.833,688.5 535.167,688.5 488.5,688.5C 500.253,684.56 512.253,681.226 524.5,678.5C 527.428,678.435 530.095,677.768 532.5,676.5C 533.167,676.5 533.833,676.5 534.5,676.5C 563.338,676.831 592.005,676.498 620.5,675.5 Z"/></g>
<g><path style="opacity:1" fill="#fc8275" d="M 56.5,688.5 C 199.167,688.5 341.833,688.5 484.5,688.5C 483.791,689.404 482.791,689.737 481.5,689.5C 339.763,689.168 198.097,689.502 56.5,690.5C 56.5,689.833 56.5,689.167 56.5,688.5 Z"/></g>
<g><path style="opacity:1" fill="#fc6958" d="M 481.5,689.5 C 461.278,695.437 440.945,701.104 420.5,706.5C 418.302,706.875 416.302,707.542 414.5,708.5C 413.833,708.5 413.167,708.5 412.5,708.5C 291.162,709.165 170.162,708.498 49.5,706.5C 51.3221,700.864 53.6554,695.531 56.5,690.5C 198.097,689.502 339.763,689.168 481.5,689.5 Z"/></g>
<g><path style="opacity:1" fill="#bd554c" d="M 484.5,688.5 C 485.833,688.5 487.167,688.5 488.5,688.5C 535.167,688.5 581.833,688.5 628.5,688.5C 631.44,694.714 634.107,701.047 636.5,707.5C 564.331,707.833 492.331,707.499 420.5,706.5C 440.945,701.104 461.278,695.437 481.5,689.5C 482.791,689.737 483.791,689.404 484.5,688.5 Z"/></g>
<g><path style="opacity:1" fill="#be493f" d="M 420.5,706.5 C 492.331,707.499 564.331,707.833 636.5,707.5C 562.669,708.499 488.669,708.833 414.5,708.5C 416.302,707.542 418.302,706.875 420.5,706.5 Z"/></g>
<g><path style="opacity:1" fill="#fcb5af" d="M 49.5,706.5 C 170.162,708.498 291.162,709.165 412.5,708.5C 411.081,709.451 409.415,709.784 407.5,709.5C 287.666,709.833 167.999,709.5 48.5,708.5C 48.3284,707.508 48.6618,706.842 49.5,706.5 Z"/></g>
<g><path style="opacity:1" fill="#fde1e0" d="M 48.5,708.5 C 167.999,709.5 287.666,709.833 407.5,709.5C 396.386,713.257 385.053,716.757 373.5,720C 263.834,720.5 154.167,720.667 44.5,720.5C 45.2613,716.216 46.5947,712.216 48.5,708.5 Z"/></g>
<g><path style="opacity:1" fill="#c0a3a4" d="M 636.5,707.5 C 638.746,711.805 640.08,716.471 640.5,721.5C 548.833,721.5 457.167,721.5 365.5,721.5C 258.5,721.5 151.5,721.5 44.5,721.5C 44.5,721.167 44.5,720.833 44.5,720.5C 154.167,720.667 263.834,720.5 373.5,720C 385.053,716.757 396.386,713.257 407.5,709.5C 409.415,709.784 411.081,709.451 412.5,708.5C 413.167,708.5 413.833,708.5 414.5,708.5C 488.669,708.833 562.669,708.499 636.5,707.5 Z"/></g>
<g><path style="opacity:1" fill="#fb6a59" d="M 44.5,721.5 C 151.5,721.5 258.5,721.5 365.5,721.5C 343.874,727.99 322.207,734.323 300.5,740.5C 299.5,740.5 298.5,740.5 297.5,740.5C 212.167,740.5 126.833,740.5 41.5,740.5C 41.5,739.5 41.5,738.5 41.5,737.5C 42.1817,732.107 43.1817,726.773 44.5,721.5 Z"/></g>
<g><path style="opacity:1" fill="#bc544b" d="M 365.5,721.5 C 457.167,721.5 548.833,721.5 640.5,721.5C 641.924,723.515 642.59,725.848 642.5,728.5C 642.656,731.066 642.322,733.566 641.5,736C 641.944,737.762 642.444,737.595 643,735.5C 643.494,737.134 643.66,738.801 643.5,740.5C 529.167,740.5 414.833,740.5 300.5,740.5C 322.207,734.323 343.874,727.99 365.5,721.5 Z"/></g>
<g><path style="opacity:1" fill="#fb8b7d" d="M 41.5,737.5 C 41.5,738.5 41.5,739.5 41.5,740.5C 126.833,740.5 212.167,740.5 297.5,740.5C 297.5,740.833 297.5,741.167 297.5,741.5C 296.5,741.5 295.5,741.5 294.5,741.5C 209.833,741.5 125.167,741.5 40.5,741.5C 40.2322,739.901 40.5655,738.568 41.5,737.5 Z"/></g>
<g><path style="opacity:1" fill="#be6b65" d="M 642.5,728.5 C 643.581,731.627 644.247,734.96 644.5,738.5C 644.5,739.5 644.5,740.5 644.5,741.5C 528.833,741.5 413.167,741.5 297.5,741.5C 297.5,741.167 297.5,740.833 297.5,740.5C 298.5,740.5 299.5,740.5 300.5,740.5C 414.833,740.5 529.167,740.5 643.5,740.5C 643.66,738.801 643.494,737.134 643,735.5C 642.444,737.595 641.944,737.762 641.5,736C 642.322,733.566 642.656,731.066 642.5,728.5 Z"/></g>
<g><path style="opacity:1" fill="#fde0df" d="M 40.5,741.5 C 125.167,741.5 209.833,741.5 294.5,741.5C 282.403,745.612 270.07,749.279 257.5,752.5C 184.5,752.5 111.5,752.5 38.5,752.5C 39.349,748.899 40.0157,745.232 40.5,741.5 Z"/></g>
<g><path style="opacity:1" fill="#bda6a8" d="M 644.5,738.5 C 646.145,743.234 646.811,748.234 646.5,753.5C 516.833,753.5 387.167,753.5 257.5,753.5C 257.5,753.167 257.5,752.833 257.5,752.5C 270.07,749.279 282.403,745.612 294.5,741.5C 295.5,741.5 296.5,741.5 297.5,741.5C 413.167,741.5 528.833,741.5 644.5,741.5C 644.5,740.5 644.5,739.5 644.5,738.5 Z"/></g>
<g><path style="opacity:1" fill="#fccbc7" d="M 38.5,752.5 C 111.5,752.5 184.5,752.5 257.5,752.5C 257.5,752.833 257.5,753.167 257.5,753.5C 255.5,753.5 253.5,753.5 251.5,753.5C 180.429,753.17 109.429,753.503 38.5,754.5C 38.5,753.833 38.5,753.167 38.5,752.5 Z"/></g>
<g><path style="opacity:1" fill="#bd4e45" d="M 247.5,755.5 C 248.568,754.566 249.901,754.232 251.5,754.5C 382.835,754.167 514.168,754.5 645.5,755.5C 645.333,755.833 645.167,756.167 645,756.5C 512.57,755.501 380.07,755.168 247.5,755.5 Z"/></g>
<g><path style="opacity:1" fill="#fb6b5b" d="M 251.5,753.5 C 251.5,753.833 251.5,754.167 251.5,754.5C 249.901,754.232 248.568,754.566 247.5,755.5C 229.389,760.092 211.389,765.092 193.5,770.5C 191.214,770.595 189.214,771.262 187.5,772.5C 186.209,772.263 185.209,772.596 184.5,773.5C 182.833,773.5 181.167,773.5 179.5,773.5C 132.5,773.5 85.5,773.5 38.5,773.5C 38.5,770.5 38.5,767.5 38.5,764.5C 38.5,761.167 38.5,757.833 38.5,754.5C 109.429,753.503 180.429,753.17 251.5,753.5 Z"/></g>
<g><path style="opacity:1" fill="#bc554c" d="M 251.5,754.5 C 251.5,754.167 251.5,753.833 251.5,753.5C 253.5,753.5 255.5,753.5 257.5,753.5C 387.167,753.5 516.833,753.5 646.5,753.5C 646.5,754.5 646.5,755.5 646.5,756.5C 646.5,757.167 646.5,757.833 646.5,758.5C 645.515,762.634 645.182,766.968 645.5,771.5C 494.666,771.833 343.999,771.5 193.5,770.5C 211.389,765.092 229.389,760.092 247.5,755.5C 380.07,755.168 512.57,755.501 645,756.5C 645.167,756.167 645.333,755.833 645.5,755.5C 514.168,754.5 382.835,754.167 251.5,754.5 Z"/></g>
<g><path style="opacity:1" fill="#bc5044" d="M 646.5,758.5 C 646.5,763.167 646.5,767.833 646.5,772.5C 493.5,772.5 340.5,772.5 187.5,772.5C 189.214,771.262 191.214,770.595 193.5,770.5C 343.999,771.5 494.666,771.833 645.5,771.5C 645.182,766.968 645.515,762.634 646.5,758.5 Z"/></g>
<g><path style="opacity:1" fill="#bc5f57" d="M 646.5,756.5 C 647.489,761.975 647.822,767.642 647.5,773.5C 493.167,773.5 338.833,773.5 184.5,773.5C 185.209,772.596 186.209,772.263 187.5,772.5C 340.5,772.5 493.5,772.5 646.5,772.5C 646.5,767.833 646.5,763.167 646.5,758.5C 646.5,757.833 646.5,757.167 646.5,756.5 Z"/></g>
<g><path style="opacity:1" fill="#fcc3be" d="M 38.5,764.5 C 38.5,767.5 38.5,770.5 38.5,773.5C 85.5,773.5 132.5,773.5 179.5,773.5C 178.791,774.404 177.791,774.737 176.5,774.5C 130.5,774.5 84.5,774.5 38.5,774.5C 38.7845,776.415 38.4511,778.081 37.5,779.5C 37.1795,774.305 37.5128,769.305 38.5,764.5 Z"/></g>
<g><path style="opacity:1" fill="#fde1e0" d="M 176.5,774.5 C 164.167,778.037 151.834,781.703 139.5,785.5C 105.663,785.168 71.9959,785.502 38.5,786.5C 38.5,786.833 38.5,787.167 38.5,787.5C 37.5269,785.052 37.1936,782.385 37.5,779.5C 38.4511,778.081 38.7845,776.415 38.5,774.5C 84.5,774.5 130.5,774.5 176.5,774.5 Z"/></g>
<g><path style="opacity:1" fill="#bca6a8" d="M 179.5,773.5 C 181.167,773.5 182.833,773.5 184.5,773.5C 338.833,773.5 493.167,773.5 647.5,773.5C 647.5,777.5 647.5,781.5 647.5,785.5C 478.167,785.5 308.833,785.5 139.5,785.5C 151.834,781.703 164.167,778.037 176.5,774.5C 177.791,774.737 178.791,774.404 179.5,773.5 Z"/></g>
<g><path style="opacity:1" fill="#c67975" d="M 38.5,786.5 C 71.9959,785.502 105.663,785.168 139.5,785.5C 308.833,785.5 478.167,785.5 647.5,785.5C 647.817,789.702 647.483,793.702 646.5,797.5C 646.5,793.833 646.5,790.167 646.5,786.5C 475.167,786.5 303.833,786.5 132.5,786.5C 101.167,786.5 69.8333,786.5 38.5,786.5 Z"/></g>
<g><path style="opacity:1" fill="#bc544b" d="M 132.5,786.5 C 303.833,786.5 475.167,786.5 646.5,786.5C 646.5,790.167 646.5,793.833 646.5,797.5C 646.81,800.713 646.477,803.713 645.5,806.5C 645.664,803.813 645.497,801.146 645,798.5C 644.503,800.81 644.337,803.143 644.5,805.5C 452.333,805.833 260.333,805.5 68.5,804.5C 90.0115,798.87 111.345,792.87 132.5,786.5 Z"/></g>
<g><path style="opacity:1" fill="#fb6a5a" d="M 38.5,786.5 C 69.8333,786.5 101.167,786.5 132.5,786.5C 111.345,792.87 90.0115,798.87 68.5,804.5C 58.948,806.284 49.2813,806.95 39.5,806.5C 39.2329,800.162 38.8995,793.829 38.5,787.5C 38.5,787.167 38.5,786.833 38.5,786.5 Z"/></g>
<g><path style="opacity:1" fill="#c16056" d="M 645.5,806.5 C 443.5,807.833 241.5,807.833 39.5,806.5C 49.2813,806.95 58.948,806.284 68.5,804.5C 260.333,805.5 452.333,805.833 644.5,805.5C 644.337,803.143 644.503,800.81 645,798.5C 645.497,801.146 645.664,803.813 645.5,806.5 Z"/></g>
</svg>
