<?xml version="1.0" encoding="UTF-8"?>
<!DOCTYPE svg PUBLIC "-//W3C//DTD SVG 1.1//EN" "http://www.w3.org/Graphics/SVG/1.1/DTD/svg11.dtd">
<svg xmlns="http://www.w3.org/2000/svg" version="1.1" width="680px" height="855px" style="shape-rendering:geometricPrecision; text-rendering:geometricPrecision; image-rendering:optimizeQuality; fill-rule:evenodd; clip-rule:evenodd" xmlns:xlink="http://www.w3.org/1999/xlink">
<g><path style="opacity:1" fill="#fefefe" d="M -0.5,-0.5 C 226.167,-0.5 452.833,-0.5 679.5,-0.5C 679.5,284.5 679.5,569.5 679.5,854.5C 452.833,854.5 226.167,854.5 -0.5,854.5C -0.5,569.5 -0.5,284.5 -0.5,-0.5 Z"/></g>
<g><path style="opacity:1" fill="#fcddc0" d="M 432.5,103.5 C 421.96,153.89 393.293,190.056 346.5,212C 345.207,212.49 343.873,212.657 342.5,212.5C 335.793,209.955 331.793,205.122 330.5,198C 331.994,193.166 334.994,189.499 339.5,187C 328.925,189.98 318.258,192.98 307.5,196C 291.944,198.932 276.277,201.099 260.5,202.5C 257.593,219.461 253.427,236.127 248,252.5C 244.709,260.125 240.209,266.958 234.5,273C 232.35,274.411 230.016,275.245 227.5,275.5C 228.64,300.161 229.64,324.828 230.5,349.5C 230.5,352.5 230.5,355.5 230.5,358.5C 227.167,358.5 223.833,358.5 220.5,358.5C 219.539,356.735 219.205,354.735 219.5,352.5C 219.556,347.269 218.889,342.269 217.5,337.5C 217.5,336.833 217.5,336.167 217.5,335.5C 217.477,329.288 216.81,323.288 215.5,317.5C 215.387,312.482 215.053,307.482 214.5,302.5C 213.5,302.5 212.5,302.5 211.5,302.5C 212.263,301.732 213.263,301.232 214.5,301C 210.079,263.02 207.746,224.854 207.5,186.5C 178.785,164.722 181.118,146.888 214.5,133C 229.877,127.858 245.544,123.858 261.5,121C 245.898,121.564 230.565,119.897 215.5,116C 204.992,112.426 199.825,105.259 200,94.5C 202.1,91.5332 204.934,89.6998 208.5,89C 243.58,87.7682 277.913,92.2682 311.5,102.5C 312.696,102.154 312.696,101.654 311.5,101C 293.116,95.1395 275.783,87.1395 259.5,77C 257,74.5 254.5,72 252,69.5C 250.729,65.8339 251.896,63.3339 255.5,62C 307.119,57.9934 356.785,65.9934 404.5,86C 414.706,90.5942 424.039,96.4275 432.5,103.5 Z"/></g>
<g><path style="opacity:1" fill="#d3b8a3" d="M 432.5,103.5 C 442.957,112.081 448.957,123.081 450.5,136.5C 464.607,141.101 474.44,150.435 480,164.5C 481.741,169.054 483.074,173.721 484,178.5C 485.67,219.298 484.17,259.965 479.5,300.5C 482.781,300.42 485.781,301.087 488.5,302.5C 485.482,302.296 482.482,301.963 479.5,301.5C 479.167,306.833 478.833,312.167 478.5,317.5C 476.335,330.968 474.669,344.634 473.5,358.5C 469.833,358.5 466.167,358.5 462.5,358.5C 463.637,332.503 464.637,306.503 465.5,280.5C 465.167,279.167 464.833,277.833 464.5,276.5C 459.612,274.117 455.445,270.783 452,266.5C 447.831,260.834 444.165,254.834 441,248.5C 434.321,232.297 429.154,215.63 425.5,198.5C 402.767,206.349 379.434,211.683 355.5,214.5C 350.907,214.621 346.574,213.954 342.5,212.5C 343.873,212.657 345.207,212.49 346.5,212C 393.293,190.056 421.96,153.89 432.5,103.5 Z"/></g>
<g><path style="opacity:1" fill="#955450" d="M 342.5,212.5 C 346.574,213.954 350.907,214.621 355.5,214.5C 379.434,211.683 402.767,206.349 425.5,198.5C 429.154,215.63 434.321,232.297 441,248.5C 444.165,254.834 447.831,260.834 452,266.5C 455.445,270.783 459.612,274.117 464.5,276.5C 464.833,277.833 465.167,279.167 465.5,280.5C 464.637,306.503 463.637,332.503 462.5,358.5C 466.167,358.5 469.833,358.5 473.5,358.5C 474.669,344.634 476.335,330.968 478.5,317.5C 478.54,339.515 475.873,361.182 470.5,382.5C 472.743,383.474 475.076,383.808 477.5,383.5C 475.107,384.21 472.607,384.877 470,385.5C 462.664,419.678 446.831,449.178 422.5,474C 417.306,478.027 411.973,481.86 406.5,485.5C 405.511,489.107 405.177,492.774 405.5,496.5C 404.834,493.642 404.167,490.642 403.5,487.5C 394.366,493.268 384.366,496.768 373.5,498C 358.867,499.518 344.2,499.851 329.5,499C 316.911,496.372 305.244,491.538 294.5,484.5C 269.801,467.159 252.301,444.159 242,415.5C 237.921,405.431 234.754,395.098 232.5,384.5C 228.629,384.815 224.962,384.482 221.5,383.5C 224.833,383.5 228.167,383.5 231.5,383.5C 229.739,375.601 228.406,367.601 227.5,359.5C 228.833,359.5 230.167,359.5 231.5,359.5C 231.813,355.958 231.479,352.625 230.5,349.5C 229.64,324.828 228.64,300.161 227.5,275.5C 230.016,275.245 232.35,274.411 234.5,273C 240.209,266.958 244.709,260.125 248,252.5C 253.427,236.127 257.593,219.461 260.5,202.5C 276.277,201.099 291.944,198.932 307.5,196C 318.258,192.98 328.925,189.98 339.5,187C 334.994,189.499 331.994,193.166 330.5,198C 331.793,205.122 335.793,209.955 342.5,212.5 Z"/></g>
<g><path style="opacity:1" fill="#372c38" d="M 277.5,260.5 C 296.384,258.441 310.384,265.607 319.5,282C 319.167,282.5 318.833,283 318.5,283.5C 308.158,276.661 296.824,272.661 284.5,271.5C 274.199,272.266 264.866,275.599 256.5,281.5C 256.167,281.167 255.833,280.833 255.5,280.5C 260.031,270.63 267.365,263.963 277.5,260.5 Z"/></g>
<g><path style="opacity:1" fill="#362c38" d="M 406.5,260.5 C 425.281,258.889 439.281,266.222 448.5,282.5C 448.167,282.833 447.833,283.167 447.5,283.5C 436.781,276.705 425.114,272.705 412.5,271.5C 402.199,271.909 393.032,275.242 385,281.5C 388.656,271.012 395.823,264.012 406.5,260.5 Z"/></g>
<g><path style="opacity:1" fill="#76413b" d="M 488.5,302.5 C 505.717,309.259 512.217,321.926 508,340.5C 506.357,355.954 499.857,368.787 488.5,379C 485.274,381.575 481.607,383.075 477.5,383.5C 475.076,383.808 472.743,383.474 470.5,382.5C 475.873,361.182 478.54,339.515 478.5,317.5C 478.833,312.167 479.167,306.833 479.5,301.5C 482.482,301.963 485.482,302.296 488.5,302.5 Z"/></g>
<g><path style="opacity:1" fill="#76413b" d="M 211.5,302.5 C 212.5,302.5 213.5,302.5 214.5,302.5C 215.053,307.482 215.387,312.482 215.5,317.5C 215.276,323.739 215.943,329.739 217.5,335.5C 217.5,336.167 217.5,336.833 217.5,337.5C 217.302,342.75 217.969,347.75 219.5,352.5C 219.205,354.735 219.539,356.735 220.5,358.5C 222.607,359.468 224.941,359.802 227.5,359.5C 228.406,367.601 229.739,375.601 231.5,383.5C 228.167,383.5 224.833,383.5 221.5,383.5C 213.699,381.514 207.533,377.181 203,370.5C 193.559,355.5 189.892,339.166 192,321.5C 195.089,311.576 201.589,305.243 211.5,302.5 Z"/></g>
<g><path style="opacity:1" fill="#77423c" d="M 368.5,295.5 C 370.085,297.831 371.251,300.497 372,303.5C 376.001,324.004 378.834,344.671 380.5,365.5C 380.167,367.833 379.833,370.167 379.5,372.5C 371.794,377.517 363.794,381.684 355.5,385C 361.389,379.476 367.556,374.31 374,369.5C 371.212,344.948 369.379,320.281 368.5,295.5 Z"/></g>
<g><path style="opacity:1" fill="#372c38" d="M 391.5,328.5 C 390.461,324.658 390.461,320.658 391.5,316.5C 396.397,306.553 404.397,302.72 415.5,305C 426.316,309.142 431.482,316.976 431,328.5C 428.768,321.865 424.935,316.365 419.5,312C 408.077,307.03 399.244,309.864 393,320.5C 391.921,323.063 391.421,325.729 391.5,328.5 Z"/></g>
<g><path style="opacity:1" fill="#3a2e39" d="M 288.5,306.5 C 306.587,305.754 315.753,314.421 316,332.5C 313.764,323.949 308.931,317.449 301.5,313C 286.624,309.527 277.79,315.361 275,330.5C 273.055,318.711 277.555,310.711 288.5,306.5 Z"/></g>
<g><path style="opacity:1" fill="#9d6e62" d="M 215.5,317.5 C 216.81,323.288 217.477,329.288 217.5,335.5C 215.943,329.739 215.276,323.739 215.5,317.5 Z"/></g>
<g><path style="opacity:1" fill="#5f3e42" d="M 391.5,316.5 C 390.461,320.658 390.461,324.658 391.5,328.5C 391.631,329.376 391.298,330.043 390.5,330.5C 390.167,328.667 389.833,326.833 389.5,325C 389.36,321.85 390.027,319.017 391.5,316.5 Z"/></g>
<g><path style="opacity:1" fill="#9b6c5f" d="M 217.5,337.5 C 218.889,342.269 219.556,347.269 219.5,352.5C 217.969,347.75 217.302,342.75 217.5,337.5 Z"/></g>
<g><path style="opacity:1" fill="#c19282" d="M 230.5,349.5 C 231.479,352.625 231.813,355.958 231.5,359.5C 230.167,359.5 228.833,359.5 227.5,359.5C 224.941,359.802 222.607,359.468 220.5,358.5C 223.833,358.5 227.167,358.5 230.5,358.5C 230.5,355.5 230.5,352.5 230.5,349.5 Z"/></g>
<g><path style="opacity:1" fill="#c49f9d" d="M 333.5,411.5 C 324.833,412.167 316.167,412.833 307.5,413.5C 306.957,413.44 306.624,413.107 306.5,412.5C 315.475,411.502 324.475,411.168 333.5,411.5 Z"/></g>
<g><path style="opacity:1" fill="#fcfbfa" d="M 333.5,411.5 C 356.836,411.333 380.169,411.5 403.5,412C 386.703,425.904 367.37,431.237 345.5,428C 331.659,426.208 318.992,421.375 307.5,413.5C 316.167,412.833 324.833,412.167 333.5,411.5 Z"/></g>
<g><path style="opacity:1" fill="#76413b" d="M 294.5,484.5 C 305.244,491.538 316.911,496.372 329.5,499C 344.2,499.851 358.867,499.518 373.5,498C 384.366,496.768 394.366,493.268 403.5,487.5C 404.167,490.642 404.834,493.642 405.5,496.5C 406.032,502.152 406.365,507.819 406.5,513.5C 406.5,516.5 406.5,519.5 406.5,522.5C 366.62,529.318 326.62,535.318 286.5,540.5C 291.784,522.234 294.45,503.568 294.5,484.5 Z"/></g>
<g><path style="opacity:1" fill="#955450" d="M 406.5,513.5 C 408.162,529.314 413.328,543.981 422,557.5C 425.552,560.719 429.385,563.552 433.5,566C 445.042,569.682 456.709,572.848 468.5,575.5C 469.984,576.473 470.484,577.807 470,579.5C 451.891,616.599 422.724,640.099 382.5,650C 336.042,660.384 294.709,650.384 258.5,620C 244.885,607.919 234.885,593.419 228.5,576.5C 242.715,572.706 256.715,568.206 270.5,563C 277.684,556.793 283.017,549.293 286.5,540.5C 326.62,535.318 366.62,529.318 406.5,522.5C 406.5,519.5 406.5,516.5 406.5,513.5 Z"/></g>
<g><path style="opacity:1" fill="#87bae5" d="M 559.5,606.5 C 559.106,619.219 557.272,631.886 554,644.5C 548.393,660.655 542.393,676.655 536,692.5C 519.917,726.333 503.084,759.666 485.5,792.5C 484.167,792.5 483.5,793.167 483.5,794.5C 483.167,795.167 482.833,795.833 482.5,796.5C 481.501,723.002 481.167,649.335 481.5,575.5C 481.5,575.167 481.5,574.833 481.5,574.5C 488.026,568.772 495.693,566.438 504.5,567.5C 532.654,567.046 550.988,580.046 559.5,606.5 Z"/></g>
<g><path style="opacity:1" fill="#87bae5" d="M 214.5,575.5 C 214.667,649.167 214.5,722.834 214,796.5C 213.617,795.944 213.117,795.611 212.5,795.5C 191.488,758.475 172.321,720.475 155,681.5C 147.206,662.447 141.206,642.781 137,622.5C 136.501,617.845 136.334,613.179 136.5,608.5C 141.656,586.511 155.322,573.011 177.5,568C 188.403,566.744 199.07,567.744 209.5,571C 211.66,571.996 213.327,573.496 214.5,575.5 Z"/></g>
<g><path style="opacity:1" fill="#fceced" d="M 228.5,576.5 C 234.885,593.419 244.885,607.919 258.5,620C 294.709,650.384 336.042,660.384 382.5,650C 422.724,640.099 451.891,616.599 470,579.5C 470.484,577.807 469.984,576.473 468.5,575.5C 470.952,575.376 472.952,574.376 474.5,572.5C 476.762,573.467 479.095,574.134 481.5,574.5C 481.5,574.833 481.5,575.167 481.5,575.5C 480.501,614.33 480.168,653.33 480.5,692.5C 411.117,713.348 341.783,734.515 272.5,756C 253.523,761.149 234.523,766.316 215.5,771.5C 215.5,706.167 215.5,640.833 215.5,575.5C 218.978,574.046 222.645,573.046 226.5,572.5C 226.338,574.527 226.505,576.527 227,578.5C 227.278,577.584 227.778,576.918 228.5,576.5 Z"/></g>
<g><path style="opacity:1" fill="#b5cde7" d="M 214.5,575.5 C 214.833,575.5 215.167,575.5 215.5,575.5C 215.5,640.833 215.5,706.167 215.5,771.5C 215.666,780.506 215.5,789.506 215,798.5C 214.23,797.402 213.397,797.402 212.5,798.5C 212.5,797.5 212.5,796.5 212.5,795.5C 213.117,795.611 213.617,795.944 214,796.5C 214.5,722.834 214.667,649.167 214.5,575.5 Z"/></g>
<g><path style="opacity:1" fill="#acc9e6" d="M 481.5,575.5 C 481.167,649.335 481.501,723.002 482.5,796.5C 482.217,797.289 481.717,797.956 481,798.5C 480.5,763.168 480.333,727.835 480.5,692.5C 480.168,653.33 480.501,614.33 481.5,575.5 Z"/></g>
<g><path style="opacity:1" fill="#6f96bd" d="M 559.5,606.5 C 620.455,642.204 650.788,695.704 650.5,767C 650.565,777.559 649.899,788.059 648.5,798.5C 594.167,798.5 539.833,798.5 485.5,798.5C 485.5,796.5 485.5,794.5 485.5,792.5C 503.084,759.666 519.917,726.333 536,692.5C 542.393,676.655 548.393,660.655 554,644.5C 557.272,631.886 559.106,619.219 559.5,606.5 Z"/></g>
<g><path style="opacity:1" fill="#6f96bd" d="M 136.5,608.5 C 136.334,613.179 136.501,617.845 137,622.5C 141.206,642.781 147.206,662.447 155,681.5C 172.321,720.475 191.488,758.475 212.5,795.5C 212.5,796.5 212.5,797.5 212.5,798.5C 158.5,798.5 104.5,798.5 50.5,798.5C 45.1611,758.366 50.3278,719.7 66,682.5C 81.8583,650.477 105.358,625.81 136.5,608.5 Z"/></g>
<g><path style="opacity:1" fill="#e8d8d9" d="M 480.5,692.5 C 480.333,727.835 480.5,763.168 481,798.5C 481.717,797.956 482.217,797.289 482.5,796.5C 482.833,795.833 483.167,795.167 483.5,794.5C 484.451,795.919 484.784,797.585 484.5,799.5C 339.666,799.833 194.999,799.5 50.5,798.5C 104.5,798.5 158.5,798.5 212.5,798.5C 213.397,797.402 214.23,797.402 215,798.5C 215.5,789.506 215.666,780.506 215.5,771.5C 234.523,766.316 253.523,761.149 272.5,756C 341.783,734.515 411.117,713.348 480.5,692.5 Z"/></g>
<g><path style="opacity:1" fill="#c9cad3" d="M 485.5,792.5 C 485.5,794.5 485.5,796.5 485.5,798.5C 539.833,798.5 594.167,798.5 648.5,798.5C 594.003,799.499 539.336,799.832 484.5,799.5C 484.784,797.585 484.451,795.919 483.5,794.5C 483.5,793.167 484.167,792.5 485.5,792.5 Z"/></g>
</svg>
