<?xml version="1.0" encoding="UTF-8"?>
<!DOCTYPE svg PUBLIC "-//W3C//DTD SVG 1.1//EN" "http://www.w3.org/Graphics/SVG/1.1/DTD/svg11.dtd">
<svg xmlns="http://www.w3.org/2000/svg" version="1.1" width="680px" height="855px" style="shape-rendering:geometricPrecision; text-rendering:geometricPrecision; image-rendering:optimizeQuality; fill-rule:evenodd; clip-rule:evenodd" xmlns:xlink="http://www.w3.org/1999/xlink">
<g><path style="opacity:1" fill="#fefefe" d="M -0.5,-0.5 C 226.167,-0.5 452.833,-0.5 679.5,-0.5C 679.5,284.5 679.5,569.5 679.5,854.5C 452.833,854.5 226.167,854.5 -0.5,854.5C -0.5,569.5 -0.5,284.5 -0.5,-0.5 Z"/></g>
<g><path style="opacity:1" fill="#fb6b5a" d="M 580.5,635.5 C 566.014,624.414 550.347,615.081 533.5,607.5C 532.893,607.624 532.56,607.957 532.5,608.5C 531.508,608.672 530.842,608.338 530.5,607.5C 543.755,590.886 549.255,571.886 547,550.5C 545.65,544.117 543.317,538.117 540,532.5C 532.948,523.782 526.281,514.782 520,505.5C 515.488,496.634 512.155,487.3 510,477.5C 508.723,447.53 508.056,417.53 508,387.5C 506.884,378.689 504.384,370.356 500.5,362.5C 499.186,363.313 498.019,364.313 497,365.5C 496.601,365.272 496.435,364.938 496.5,364.5C 502.112,340.395 494.112,322.395 472.5,310.5C 451.2,311.525 430.533,308.025 410.5,300C 407.761,298.974 405.428,297.474 403.5,295.5C 408.566,295.34 413.566,295.84 418.5,297C 426.374,299.935 434.041,303.435 441.5,307.5C 441.833,307.167 442.167,306.833 442.5,306.5C 430.657,286.776 413.99,280.776 392.5,288.5C 386.228,284.063 380.728,278.73 376,272.5C 377.948,280.082 380.782,287.415 384.5,294.5C 383.488,295.872 382.488,297.205 381.5,298.5C 364.503,295.777 348.836,289.611 334.5,280C 316.976,267.307 302.31,251.807 290.5,233.5C 276.535,246.628 262.369,259.628 248,272.5C 231.239,294.168 223.072,318.835 223.5,346.5C 222.58,406.641 244.914,455.974 290.5,494.5C 291.469,509.785 291.802,525.119 291.5,540.5C 290.19,556.868 288.523,573.201 286.5,589.5C 273.244,598.493 258.911,606.66 243.5,614C 222.021,623.303 199.688,626.636 176.5,624C 153.594,618.972 136.094,606.472 124,586.5C 117.448,575.946 112.781,564.613 110,552.5C 109.132,544.726 109.632,537.06 111.5,529.5C 111.376,528.893 111.043,528.56 110.5,528.5C 126.467,512.7 142.634,497.034 159,481.5C 165.641,475.051 169.475,467.217 170.5,458C 170.671,454.871 169.838,452.037 168,449.5C 161,441.833 154,434.167 147,426.5C 128.656,403.791 123.656,378.458 132,350.5C 133.393,346.714 135.059,343.048 137,339.5C 143.276,329.558 149.943,319.892 157,310.5C 169.681,284.443 178.348,257.109 183,228.5C 187.771,205.505 196.438,184.172 209,164.5C 222.324,145.587 240.491,137.087 263.5,139C 270.194,140.905 276.86,142.571 283.5,144C 302.296,118.593 327.63,104.593 359.5,102C 402.641,98.2755 440.641,110.276 473.5,138C 490.932,158.135 504.265,180.801 513.5,206C 518.811,242.749 529.311,277.915 545,311.5C 553.068,325.247 560.735,339.247 568,353.5C 569.663,359.496 571.33,365.496 573,371.5C 573.667,377.5 573.667,383.5 573,389.5C 567.062,405.979 560.729,422.313 554,438.5C 551.436,450.138 552.436,461.471 557,472.5C 565.329,488.5 574.662,503.833 585,518.5C 604.349,548.861 606.683,580.527 592,613.5C 588.396,621.045 584.563,628.378 580.5,635.5 Z"/></g>
<g><path style="opacity:1" fill="#f09b7c" d="M 381.5,298.5 C 380.054,300.704 379.22,303.037 379,305.5C 386.335,300.081 394.501,296.748 403.5,295.5C 405.428,297.474 407.761,298.974 410.5,300C 430.533,308.025 451.2,311.525 472.5,310.5C 473.732,338.283 471.066,365.616 464.5,392.5C 457.804,422.223 444.971,448.889 426,472.5C 417.877,480.799 409.043,488.132 399.5,494.5C 382.512,505.038 364.012,509.371 344,507.5C 324.741,508.798 306.908,504.465 290.5,494.5C 244.914,455.974 222.58,406.641 223.5,346.5C 223.072,318.835 231.239,294.168 248,272.5C 262.369,259.628 276.535,246.628 290.5,233.5C 302.31,251.807 316.976,267.307 334.5,280C 348.836,289.611 364.503,295.777 381.5,298.5 Z"/></g>
<g><path style="opacity:1" fill="#f0997a" d="M 392.5,288.5 C 389.872,290.488 387.205,292.488 384.5,294.5C 380.782,287.415 377.948,280.082 376,272.5C 380.728,278.73 386.228,284.063 392.5,288.5 Z"/></g>
<g><path style="opacity:1" fill="#352b37" d="M 403.5,295.5 C 394.501,296.748 386.335,300.081 379,305.5C 379.22,303.037 380.054,300.704 381.5,298.5C 382.488,297.205 383.488,295.872 384.5,294.5C 387.205,292.488 389.872,290.488 392.5,288.5C 413.99,280.776 430.657,286.776 442.5,306.5C 442.167,306.833 441.833,307.167 441.5,307.5C 434.041,303.435 426.374,299.935 418.5,297C 413.566,295.84 408.566,295.34 403.5,295.5 Z"/></g>
<g><path style="opacity:1" fill="#352b38" d="M 287.5,296.5 C 281.681,295.347 275.681,295.181 269.5,296C 268.584,296.278 267.918,296.778 267.5,297.5C 261.117,298.941 255.283,301.608 250,305.5C 255.07,292.464 264.736,285.464 279,284.5C 294.571,285.592 306.071,292.925 313.5,306.5C 313.167,306.833 312.833,307.167 312.5,307.5C 304.792,302.483 296.459,298.817 287.5,296.5 Z"/></g>
<g><path style="opacity:1" fill="#b57866" d="M 287.5,296.5 C 280.798,296.336 274.131,296.669 267.5,297.5C 267.918,296.778 268.584,296.278 269.5,296C 275.681,295.181 281.681,295.347 287.5,296.5 Z"/></g>
<g><path style="opacity:1" fill="#c47c66" d="M 472.5,310.5 C 494.112,322.395 502.112,340.395 496.5,364.5C 495.226,372.749 491.226,379.916 484.5,386C 478.801,391.066 472.134,393.233 464.5,392.5C 471.066,365.616 473.732,338.283 472.5,310.5 Z"/></g>
<g><path style="opacity:1" fill="#3b2f3a" d="M 309.5,350.5 C 309.737,351.791 309.404,352.791 308.5,353.5C 304.182,339.507 294.849,334.007 280.5,337C 273.369,341.484 269.536,347.984 269,356.5C 266.862,338.642 274.695,330.142 292.5,331C 302.464,333.766 308.131,340.266 309.5,350.5 Z"/></g>
<g><path style="opacity:1" fill="#3b2f3a" d="M 425.5,350.5 C 425.672,351.492 425.338,352.158 424.5,352.5C 420.956,339.121 412.289,332.955 398.5,334C 390.503,337.51 386.17,343.677 385.5,352.5C 384.527,350.052 384.194,347.385 384.5,344.5C 386.991,334.737 393.324,329.403 403.5,328.5C 416.524,330.19 423.857,337.524 425.5,350.5 Z"/></g>
<g><path style="opacity:1" fill="#95655b" d="M 384.5,344.5 C 384.194,347.385 384.527,350.052 385.5,352.5C 385.719,353.675 385.386,354.675 384.5,355.5C 383.192,351.685 383.192,348.019 384.5,344.5 Z"/></g>
<g><path style="opacity:1" fill="#97675c" d="M 425.5,350.5 C 426.788,352.035 426.788,353.701 425.5,355.5C 424.614,354.675 424.281,353.675 424.5,352.5C 425.338,352.158 425.672,351.492 425.5,350.5 Z"/></g>
<g><path style="opacity:1" fill="#845b54" d="M 309.5,350.5 C 310.629,352.628 310.796,354.961 310,357.5C 309.209,356.255 308.709,354.922 308.5,353.5C 309.404,352.791 309.737,351.791 309.5,350.5 Z"/></g>
<g><path style="opacity:1" fill="#a36854" d="M 363.5,356.5 C 370.729,368.742 374.229,382.075 374,396.5C 368.624,401.544 362.958,406.211 357,410.5C 356.333,409.833 356.333,409.167 357,408.5C 360.961,403.405 364.794,398.238 368.5,393C 364.908,381.099 363.242,368.932 363.5,356.5 Z"/></g>
<g><path style="opacity:1" fill="#d35450" d="M 530.5,607.5 C 513.064,599.577 495.064,593.243 476.5,588.5C 476.5,587.833 476.167,587.5 475.5,587.5C 468.707,585.242 461.707,583.575 454.5,582.5C 453.791,581.596 452.791,581.263 451.5,581.5C 440.033,579.262 429.367,575.096 419.5,569C 414.558,564.286 410.725,558.786 408,552.5C 405.788,545.436 403.621,538.436 401.5,531.5C 399.864,519.23 399.197,506.897 399.5,494.5C 409.043,488.132 417.877,480.799 426,472.5C 444.971,448.889 457.804,422.223 464.5,392.5C 472.134,393.233 478.801,391.066 484.5,386C 491.226,379.916 495.226,372.749 496.5,364.5C 496.435,364.938 496.601,365.272 497,365.5C 498.019,364.313 499.186,363.313 500.5,362.5C 504.384,370.356 506.884,378.689 508,387.5C 508.056,417.53 508.723,447.53 510,477.5C 512.155,487.3 515.488,496.634 520,505.5C 526.281,514.782 532.948,523.782 540,532.5C 543.317,538.117 545.65,544.117 547,550.5C 549.255,571.886 543.755,590.886 530.5,607.5 Z"/></g>
<g><path style="opacity:1" fill="#f3af97" d="M 346.5,435.5 C 363.671,434.173 381.005,434.173 398.5,435.5C 398.376,436.107 398.043,436.44 397.5,436.5C 380.675,435.503 363.675,435.17 346.5,435.5 Z"/></g>
<g><path style="opacity:1" fill="#fefdfc" d="M 346.5,435.5 C 363.675,435.17 380.675,435.503 397.5,436.5C 375.851,453.036 351.851,457.203 325.5,449C 316.496,446.331 308.163,442.331 300.5,437C 316.005,436.831 331.339,436.331 346.5,435.5 Z"/></g>
<g><path style="opacity:1" fill="#c47c66" d="M 290.5,494.5 C 306.908,504.465 324.741,508.798 344,507.5C 364.012,509.371 382.512,505.038 399.5,494.5C 399.197,506.897 399.864,519.23 401.5,531.5C 364.737,536.03 328.07,541.363 291.5,547.5C 291.5,545.167 291.5,542.833 291.5,540.5C 291.802,525.119 291.469,509.785 290.5,494.5 Z"/></g>
<g><path style="opacity:1" fill="#d35450" d="M 110.5,528.5 C 111.043,528.56 111.376,528.893 111.5,529.5C 109.632,537.06 109.132,544.726 110,552.5C 112.781,564.613 117.448,575.946 124,586.5C 136.094,606.472 153.594,618.972 176.5,624C 199.688,626.636 222.021,623.303 243.5,614C 258.911,606.66 273.244,598.493 286.5,589.5C 283.856,616.981 271.856,639.481 250.5,657C 246.403,659.37 242.736,662.203 239.5,665.5C 209.985,683.761 178.652,687.595 145.5,677C 128.445,668.659 114.445,656.826 103.5,641.5C 86.8404,618.011 81.8404,592.178 88.5,564C 93.445,550.594 100.778,538.761 110.5,528.5 Z"/></g>
<g><path style="opacity:1" fill="#f09b7c" d="M 401.5,531.5 C 403.621,538.436 405.788,545.436 408,552.5C 410.725,558.786 414.558,564.286 419.5,569C 429.367,575.096 440.033,579.262 451.5,581.5C 450.968,587.152 450.635,592.819 450.5,598.5C 448.437,622.786 444.103,646.786 437.5,670.5C 430.351,673.121 423.018,675.121 415.5,676.5C 412.572,676.565 409.905,677.232 407.5,678.5C 380.934,684.158 353.934,685.991 326.5,684C 319.507,683.334 312.507,682.834 305.5,682.5C 301.409,681.105 297.076,680.438 292.5,680.5C 274.067,677.812 256.401,672.812 239.5,665.5C 242.736,662.203 246.403,659.37 250.5,657C 271.856,639.481 283.856,616.981 286.5,589.5C 288.523,573.201 290.19,556.868 291.5,540.5C 291.5,542.833 291.5,545.167 291.5,547.5C 328.07,541.363 364.737,536.03 401.5,531.5 Z"/></g>
<g><path style="opacity:1" fill="#362c39" d="M 454.5,582.5 C 461.707,583.575 468.707,585.242 475.5,587.5C 475.007,589.806 474.674,592.139 474.5,594.5C 469.598,615.503 466.932,636.837 466.5,658.5C 457.244,663.288 447.578,667.288 437.5,670.5C 444.103,646.786 448.437,622.786 450.5,598.5C 451.326,592.916 452.66,587.582 454.5,582.5 Z"/></g>
<g><path style="opacity:1" fill="#aa7163" d="M 475.5,587.5 C 476.167,587.5 476.5,587.833 476.5,588.5C 476.405,590.786 475.738,592.786 474.5,594.5C 474.674,592.139 475.007,589.806 475.5,587.5 Z"/></g>
<g><path style="opacity:1" fill="#74514f" d="M 451.5,581.5 C 452.791,581.263 453.791,581.596 454.5,582.5C 452.66,587.582 451.326,592.916 450.5,598.5C 450.635,592.819 450.968,587.152 451.5,581.5 Z"/></g>
<g><path style="opacity:1" fill="#f09b7c" d="M 476.5,588.5 C 495.064,593.243 513.064,599.577 530.5,607.5C 530.842,608.338 531.508,608.672 532.5,608.5C 514.788,630.886 492.788,647.553 466.5,658.5C 466.932,636.837 469.598,615.503 474.5,594.5C 475.738,592.786 476.405,590.786 476.5,588.5 Z"/></g>
<g><path style="opacity:1" fill="#6f9b98" d="M 580.5,635.5 C 591.588,644.919 601.255,655.586 609.5,667.5C 574.274,695.366 535.107,716.033 492,729.5C 386.724,759.248 281.224,760.081 175.5,732C 137.97,721.314 103.136,705.147 71,683.5C 70.6174,684.056 70.1174,684.389 69.5,684.5C 78.186,668.158 89.5193,653.824 103.5,641.5C 114.445,656.826 128.445,668.659 145.5,677C 178.652,687.595 209.985,683.761 239.5,665.5C 256.401,672.812 274.067,677.812 292.5,680.5C 296.591,681.895 300.924,682.562 305.5,682.5C 312.507,682.834 319.507,683.334 326.5,684C 353.934,685.991 380.934,684.158 407.5,678.5C 410.495,678.706 413.162,678.04 415.5,676.5C 423.018,675.121 430.351,673.121 437.5,670.5C 447.578,667.288 457.244,663.288 466.5,658.5C 492.788,647.553 514.788,630.886 532.5,608.5C 532.56,607.957 532.893,607.624 533.5,607.5C 550.347,615.081 566.014,624.414 580.5,635.5 Z"/></g>
<g><path style="opacity:1" fill="#5e8584" d="M 609.5,667.5 C 628.199,694.088 638.699,723.755 641,756.5C 641.667,770.5 641.667,784.5 641,798.5C 640.817,801.365 640.317,804.031 639.5,806.5C 443.001,807.5 246.334,807.833 49.5,807.5C 44.6154,770.065 48.7821,733.732 62,698.5C 64.2742,693.613 66.7742,688.946 69.5,684.5C 70.1174,684.389 70.6174,684.056 71,683.5C 103.136,705.147 137.97,721.314 175.5,732C 281.224,760.081 386.724,759.248 492,729.5C 535.107,716.033 574.274,695.366 609.5,667.5 Z"/></g>
<g><path style="opacity:1" fill="#af9988" d="M 415.5,676.5 C 413.162,678.04 410.495,678.706 407.5,678.5C 409.905,677.232 412.572,676.565 415.5,676.5 Z"/></g>
<g><path style="opacity:1" fill="#af988a" d="M 292.5,680.5 C 297.076,680.438 301.409,681.105 305.5,682.5C 300.924,682.562 296.591,681.895 292.5,680.5 Z"/></g>
<g><path style="opacity:1" fill="#4d7b79" d="M 639.5,806.5 C 443.166,806.667 246.833,806.5 50.5,806C 246.5,805.5 442.5,805.333 638.5,805.5C 638.34,803.801 638.506,802.134 639,800.5C 639.495,802.473 639.662,804.473 639.5,806.5 Z"/></g>
</svg>
