<?xml version="1.0" encoding="UTF-8"?>
<!DOCTYPE svg PUBLIC "-//W3C//DTD SVG 1.1//EN" "http://www.w3.org/Graphics/SVG/1.1/DTD/svg11.dtd">
<svg xmlns="http://www.w3.org/2000/svg" version="1.1" width="680px" height="855px" style="shape-rendering:geometricPrecision; text-rendering:geometricPrecision; image-rendering:optimizeQuality; fill-rule:evenodd; clip-rule:evenodd" xmlns:xlink="http://www.w3.org/1999/xlink">
<g><path style="opacity:1" fill="#fefefe" d="M -0.5,-0.5 C 226.167,-0.5 452.833,-0.5 679.5,-0.5C 679.5,284.5 679.5,569.5 679.5,854.5C 452.833,854.5 226.167,854.5 -0.5,854.5C -0.5,569.5 -0.5,284.5 -0.5,-0.5 Z"/></g>
<g><path style="opacity:1" fill="#fc6b5a" d="M 437.5,121.5 C 434.723,151.098 425.056,178.432 408.5,203.5C 377.809,218.425 345.475,227.925 311.5,232C 288.401,234.585 266.067,231.751 244.5,223.5C 230.418,215.439 217.752,205.439 206.5,193.5C 183.379,163.267 189.046,140.1 223.5,124C 234.051,119.575 245.051,117.742 256.5,118.5C 253.957,93.6987 265.291,81.032 290.5,80.5C 297.503,80.5337 304.169,82.0337 310.5,85C 318.719,90.6172 326.386,96.9505 333.5,104C 343.257,110.439 353.924,114.439 365.5,116C 389.73,115.341 413.73,117.174 437.5,121.5 Z"/></g>
<g><path style="opacity:1" fill="#d45451" d="M 437.5,121.5 C 451.212,125.045 459.712,133.712 463,147.5C 463.169,154.856 463.669,162.189 464.5,169.5C 465.417,168.873 466.417,168.539 467.5,168.5C 473.378,166.935 479.378,166.268 485.5,166.5C 491.483,167.75 495.983,171.083 499,176.5C 503.043,184.675 504.876,193.341 504.5,202.5C 503.956,214.56 502.79,226.56 501,238.5C 496.279,260.383 490.779,282.05 484.5,303.5C 478.229,309.27 472.062,315.27 466,321.5C 464.66,315.978 462.826,310.645 460.5,305.5C 460.5,288.833 460.5,272.167 460.5,255.5C 449.122,257.561 440.622,253.561 435,243.5C 432.725,238.411 431.058,233.078 430,227.5C 429.007,216.185 428.173,204.852 427.5,193.5C 421.587,197.623 415.254,200.957 408.5,203.5C 425.056,178.432 434.723,151.098 437.5,121.5 Z"/></g>
<g><path style="opacity:1" fill="#e27e78" d="M 485.5,166.5 C 479.378,166.268 473.378,166.935 467.5,168.5C 473.272,165.52 479.272,164.853 485.5,166.5 Z"/></g>
<g><path style="opacity:1" fill="#d45451" d="M 206.5,193.5 C 217.752,205.439 230.418,215.439 244.5,223.5C 233.84,251.432 228.84,280.432 229.5,310.5C 223.809,305.803 218.142,301.137 212.5,296.5C 210.563,285.21 208.73,273.877 207,262.5C 200.862,246.01 198.529,229.01 200,211.5C 200.709,204.866 202.875,198.866 206.5,193.5 Z"/></g>
<g><path style="opacity:1" fill="#fdab9d" d="M 460.5,305.5 C 448.094,285.313 430.094,277.146 406.5,281C 387.451,287.38 375.285,300.213 370,319.5C 369.148,318.429 368.315,317.429 367.5,316.5C 367.3,310.301 366.134,304.301 364,298.5C 364.114,303.606 363.28,308.273 361.5,312.5C 356.886,311.45 352.22,311.283 347.5,312C 342.872,313.981 338.539,316.481 334.5,319.5C 324.673,288.576 303.673,276.076 271.5,282C 254.696,288.303 244.03,300.137 239.5,317.5C 236.138,315.157 232.804,312.824 229.5,310.5C 228.84,280.432 233.84,251.432 244.5,223.5C 266.067,231.751 288.401,234.585 311.5,232C 345.475,227.925 377.809,218.425 408.5,203.5C 415.254,200.957 421.587,197.623 427.5,193.5C 428.173,204.852 429.007,216.185 430,227.5C 431.058,233.078 432.725,238.411 435,243.5C 440.622,253.561 449.122,257.561 460.5,255.5C 460.5,272.167 460.5,288.833 460.5,305.5 Z"/></g>
<g><path style="opacity:1" fill="#5c464c" d="M 286.5,261.5 C 280.464,261.36 274.464,261.693 268.5,262.5C 271.695,260.97 275.195,260.304 279,260.5C 281.69,260.503 284.19,260.836 286.5,261.5 Z"/></g>
<g><path style="opacity:1" fill="#372c39" d="M 286.5,261.5 C 298.693,264.356 307.693,271.356 313.5,282.5C 313.167,282.833 312.833,283.167 312.5,283.5C 301.949,276.816 290.449,272.816 278,271.5C 267.976,272.343 258.809,275.676 250.5,281.5C 252.836,272.151 258.836,265.818 268.5,262.5C 274.464,261.693 280.464,261.36 286.5,261.5 Z"/></g>
<g><path style="opacity:1" fill="#382e3a" d="M 399.5,260.5 C 418.625,258.562 432.958,265.895 442.5,282.5C 442.167,282.833 441.833,283.167 441.5,283.5C 430.641,276.602 418.807,272.602 406,271.5C 396.012,272.273 387.012,275.606 379,281.5C 380.023,275.437 383.19,270.604 388.5,267C 392.23,264.807 395.897,262.64 399.5,260.5 Z"/></g>
<g><path style="opacity:1" fill="#cc887f" d="M 208.5,299.5 C 208.281,300.675 208.614,301.675 209.5,302.5C 211.419,303.612 213.086,304.946 214.5,306.5C 216.042,315.128 217.375,323.795 218.5,332.5C 219.404,350.168 222.071,367.502 226.5,384.5C 217.799,385.41 210.132,383.077 203.5,377.5C 188.58,360.562 183.08,340.895 187,318.5C 188.979,314.044 191.813,310.21 195.5,307C 199.928,304.459 204.262,301.959 208.5,299.5 Z"/></g>
<g><path style="opacity:1" fill="#cc887f" d="M 491.5,305.5 C 502.09,315.627 505.59,327.96 502,342.5C 499.76,355.55 494.26,367.05 485.5,377C 479.401,381.978 472.401,384.478 464.5,384.5C 467.013,373.6 469.013,362.6 470.5,351.5C 466.958,351.813 463.625,351.479 460.5,350.5C 464.226,350.823 467.893,350.489 471.5,349.5C 473.909,337.858 477.242,326.525 481.5,315.5C 484.5,311.833 487.833,308.5 491.5,305.5 Z"/></g>
<g><path style="opacity:1" fill="#d35550" d="M 214.5,306.5 C 219.569,309.695 224.235,313.362 228.5,317.5C 228.5,323.167 228.5,328.833 228.5,334.5C 225.012,334.46 221.679,333.793 218.5,332.5C 217.375,323.795 216.042,315.128 214.5,306.5 Z"/></g>
<g><path style="opacity:1" fill="#feac9d" d="M 363.5,321.5 C 363.783,337.332 365.45,352.998 368.5,368.5C 361.711,374.118 355.044,379.951 348.5,386C 356.973,382.092 365.306,377.592 373.5,372.5C 373.875,363.332 373.875,354.332 373.5,345.5C 384.272,368.893 402.605,378.726 428.5,375C 442.747,371.391 453.413,363.224 460.5,350.5C 463.625,351.479 466.958,351.813 470.5,351.5C 469.013,362.6 467.013,373.6 464.5,384.5C 457.669,415.162 444.169,442.495 424,466.5C 416.89,473.781 409.057,480.115 400.5,485.5C 399.505,491.128 399.171,496.794 399.5,502.5C 398.834,497.651 398.167,492.651 397.5,487.5C 381.549,496.445 364.382,500.445 346,499.5C 324.965,501.316 305.798,496.316 288.5,484.5C 288.5,483.833 288.167,483.5 287.5,483.5C 271.494,472.829 258.661,459.163 249,442.5C 238.663,424.333 231.163,404.999 226.5,384.5C 222.071,367.502 219.404,350.168 218.5,332.5C 221.679,333.793 225.012,334.46 228.5,334.5C 228.5,328.833 228.5,323.167 228.5,317.5C 231.789,319.616 234.956,321.949 238,324.5C 238.731,350.212 251.231,367.045 275.5,375C 309.907,378.055 329.741,362.555 335,328.5C 339.672,322.087 345.839,318.087 353.5,316.5C 357.432,317.133 360.766,318.799 363.5,321.5 Z"/></g>
<g><path style="opacity:1" fill="#ce8980" d="M 363.5,321.5 C 365.836,323.004 367.669,325.004 369,327.5C 369.758,333.739 371.258,339.739 373.5,345.5C 373.875,354.332 373.875,363.332 373.5,372.5C 365.306,377.592 356.973,382.092 348.5,386C 355.044,379.951 361.711,374.118 368.5,368.5C 365.45,352.998 363.783,337.332 363.5,321.5 Z"/></g>
<g><path style="opacity:1" fill="#d25651" d="M 481.5,315.5 C 477.242,326.525 473.909,337.858 471.5,349.5C 467.893,350.489 464.226,350.823 460.5,350.5C 463.608,343.875 465.441,336.875 466,329.5C 470.759,324.234 475.925,319.567 481.5,315.5 Z"/></g>
<g><path style="opacity:1" fill="#775f6a" d="M 361.5,312.5 C 363.728,313.377 365.728,314.71 367.5,316.5C 368.315,317.429 369.148,318.429 370,319.5C 375.285,300.213 387.451,287.38 406.5,281C 430.094,277.146 448.094,285.313 460.5,305.5C 462.826,310.645 464.66,315.978 466,321.5C 472.062,315.27 478.229,309.27 484.5,303.5C 487.729,299.63 490.062,300.297 491.5,305.5C 487.833,308.5 484.5,311.833 481.5,315.5C 475.925,319.567 470.759,324.234 466,329.5C 465.441,336.875 463.608,343.875 460.5,350.5C 453.413,363.224 442.747,371.391 428.5,375C 402.605,378.726 384.272,368.893 373.5,345.5C 371.258,339.739 369.758,333.739 369,327.5C 367.669,325.004 365.836,323.004 363.5,321.5C 360.766,318.799 357.432,317.133 353.5,316.5C 345.839,318.087 339.672,322.087 335,328.5C 329.741,362.555 309.907,378.055 275.5,375C 251.231,367.045 238.731,350.212 238,324.5C 234.956,321.949 231.789,319.616 228.5,317.5C 224.235,313.362 219.569,309.695 214.5,306.5C 213.086,304.946 211.419,303.612 209.5,302.5C 208.614,301.675 208.281,300.675 208.5,299.5C 209.262,297.738 210.596,296.738 212.5,296.5C 218.142,301.137 223.809,305.803 229.5,310.5C 232.804,312.824 236.138,315.157 239.5,317.5C 244.03,300.137 254.696,288.303 271.5,282C 303.673,276.076 324.673,288.576 334.5,319.5C 338.539,316.481 342.872,313.981 347.5,312C 352.22,311.283 356.886,311.45 361.5,312.5 Z"/></g>
<g><path style="opacity:1" fill="#ca877e" d="M 367.5,316.5 C 365.728,314.71 363.728,313.377 361.5,312.5C 363.28,308.273 364.114,303.606 364,298.5C 366.134,304.301 367.3,310.301 367.5,316.5 Z"/></g>
<g><path style="opacity:1" fill="#a8c6da" d="M 410.5,285.5 C 435.211,284.252 451.378,295.252 459,318.5C 461.922,346.551 449.756,363.718 422.5,370C 396.681,370.486 381.181,357.986 376,332.5C 375.419,307.921 386.919,292.254 410.5,285.5 Z"/></g>
<g><path style="opacity:1" fill="#6c7787" d="M 385.5,316.5 C 384.461,320.658 384.461,324.658 385.5,328.5C 385.719,329.675 385.386,330.675 384.5,331.5C 384.167,329.5 383.833,327.5 383.5,325.5C 383.343,322.186 384.009,319.186 385.5,316.5 Z"/></g>
<g><path style="opacity:1" fill="#372f3b" d="M 385.5,328.5 C 384.461,324.658 384.461,320.658 385.5,316.5C 391.288,305.287 400.288,301.787 412.5,306C 422.158,311.818 426.658,320.318 426,331.5C 423.867,323.7 419.701,317.2 413.5,312C 401.915,306.64 393.081,309.474 387,320.5C 385.921,323.063 385.421,325.729 385.5,328.5 Z"/></g>
<g><path style="opacity:1" fill="#a7c6da" d="M 279.5,285.5 C 312.863,285.694 329.029,302.36 328,335.5C 321.146,359.861 304.979,371.361 279.5,370C 253.68,362.547 242.18,345.38 245,318.5C 250.218,300.828 261.718,289.828 279.5,285.5 Z"/></g>
<g><path style="opacity:1" fill="#39313e" d="M 281.5,306.5 C 300.099,305.268 309.599,313.935 310,332.5C 307.453,323.215 301.953,316.381 293.5,312C 278.478,310.339 270.311,317.172 269,332.5C 266.519,320.466 270.686,311.799 281.5,306.5 Z"/></g>
<g><path style="opacity:1" fill="#fecdc4" d="M 363.5,411.5 C 374.674,410.176 386.007,410.176 397.5,411.5C 397.376,412.107 397.043,412.44 396.5,412.5C 385.679,411.505 374.679,411.172 363.5,411.5 Z"/></g>
<g><path style="opacity:1" fill="#feded8" d="M 345.5,411.5 C 330.833,412.167 316.167,412.833 301.5,413.5C 300.957,413.44 300.624,413.107 300.5,412.5C 315.485,411.501 330.485,411.167 345.5,411.5 Z"/></g>
<g><path style="opacity:1" fill="#fefdfd" d="M 345.5,411.5 C 351.5,411.5 357.5,411.5 363.5,411.5C 374.679,411.172 385.679,411.505 396.5,412.5C 383.652,423.342 368.652,428.675 351.5,428.5C 333.256,428.304 316.59,423.304 301.5,413.5C 316.167,412.833 330.833,412.167 345.5,411.5 Z"/></g>
<g><path style="opacity:1" fill="#cc887e" d="M 288.5,484.5 C 305.798,496.316 324.965,501.316 346,499.5C 364.382,500.445 381.549,496.445 397.5,487.5C 398.167,492.651 398.834,497.651 399.5,502.5C 399.5,503.167 399.5,503.833 399.5,504.5C 362.153,513.392 325.153,512.392 288.5,501.5C 288.5,495.833 288.5,490.167 288.5,484.5 Z"/></g>
<g><path style="opacity:1" fill="#e8c0b7" d="M 287.5,483.5 C 288.167,483.5 288.5,483.833 288.5,484.5C 288.5,490.167 288.5,495.833 288.5,501.5C 287.209,501.737 286.209,501.404 285.5,500.5C 287.45,495.265 288.117,489.598 287.5,483.5 Z"/></g>
<g><path style="opacity:1" fill="#fea45b" d="M 277.5,499.5 C 280.158,498.477 282.825,498.811 285.5,500.5C 286.209,501.404 287.209,501.737 288.5,501.5C 325.153,512.392 362.153,513.392 399.5,504.5C 403.382,503.197 407.382,502.53 411.5,502.5C 412.105,519.921 416.605,536.254 425,551.5C 433.028,561.766 443.528,567.766 456.5,569.5C 457.739,570.212 458.239,571.212 458,572.5C 424.057,599.116 385.39,611.783 342,610.5C 300.707,610.844 263.54,599.01 230.5,575C 229.5,574 228.5,573 227.5,572C 230.401,571.125 233.068,569.958 235.5,568.5C 248.102,566.386 257.936,560.053 265,549.5C 267.81,543.555 270.31,537.555 272.5,531.5C 273.966,530.653 274.8,529.32 275,527.5C 275.908,522.147 276.908,516.813 278,511.5C 278.812,507.311 278.645,503.311 277.5,499.5 Z"/></g>
<g><path style="opacity:1" fill="#dc955f" d="M 277.5,499.5 C 278.645,503.311 278.812,507.311 278,511.5C 276.908,516.813 275.908,522.147 275,527.5C 274.8,529.32 273.966,530.653 272.5,531.5C 274.603,520.906 276.27,510.239 277.5,499.5 Z"/></g>
<g><path style="opacity:1" fill="#d58950" d="M 235.5,568.5 C 233.068,569.958 230.401,571.125 227.5,572C 228.5,573 229.5,574 230.5,575C 263.54,599.01 300.707,610.844 342,610.5C 385.39,611.783 424.057,599.116 458,572.5C 458.239,571.212 457.739,570.212 456.5,569.5C 480.883,576.35 504.883,584.517 528.5,594C 538.977,598.736 548.977,604.236 558.5,610.5C 549.954,645.613 545.287,681.28 544.5,717.5C 541.536,715.038 538.703,712.371 536,709.5C 524.023,718.643 512.19,727.976 500.5,737.5C 490.833,728.167 481.167,718.833 471.5,709.5C 460.5,718.833 449.5,728.167 438.5,737.5C 428.833,728.167 419.167,718.833 409.5,709.5C 399.172,718.662 389.005,727.995 379,737.5C 368.345,728.18 357.678,718.847 347,709.5C 335.687,718.645 324.52,727.978 313.5,737.5C 303.833,728.167 294.167,718.833 284.5,709.5C 274.472,719.03 264.305,728.364 254,737.5C 243.363,728.365 232.863,719.032 222.5,709.5C 211.468,719.035 200.302,728.368 189,737.5C 179.027,728.362 169.194,719.029 159.5,709.5C 152.452,716.552 145.118,723.218 137.5,729.5C 138.295,689.77 133.628,650.77 123.5,612.5C 148.607,596.621 175.607,584.788 204.5,577C 214.808,574.007 225.142,571.173 235.5,568.5 Z"/></g>
<g><path style="opacity:1" fill="#fea55c" d="M 558.5,610.5 C 605.12,640.362 631.62,683.029 638,738.5C 640.015,758.525 639.848,778.525 637.5,798.5C 608.5,798.5 579.5,798.5 550.5,798.5C 548.495,783.068 546.828,767.734 545.5,752.5C 545.702,750.05 545.369,747.717 544.5,745.5C 544.709,736.304 544.709,727.304 544.5,718.5C 544.5,718.167 544.5,717.833 544.5,717.5C 545.287,681.28 549.954,645.613 558.5,610.5 Z"/></g>
<g><path style="opacity:1" fill="#fea55b" d="M 123.5,612.5 C 133.628,650.77 138.295,689.77 137.5,729.5C 137.5,729.833 137.5,730.167 137.5,730.5C 136.67,740.34 136.003,750.34 135.5,760.5C 135.5,762.833 135.5,765.167 135.5,767.5C 134.033,777.678 132.7,788.012 131.5,798.5C 102.833,798.5 74.1667,798.5 45.5,798.5C 43.7002,773.42 44.3669,748.42 47.5,723.5C 49.4159,719.837 50.4159,715.837 50.5,711.5C 61.4658,668.549 85.7992,635.549 123.5,612.5 Z"/></g>
<g><path style="opacity:1" fill="#fbc497" d="M 50.5,711.5 C 50.4159,715.837 49.4159,719.837 47.5,723.5C 47.8984,719.239 48.8984,715.239 50.5,711.5 Z"/></g>
<g><path style="opacity:1" fill="#d58850" d="M 544.5,718.5 C 544.709,727.304 544.709,736.304 544.5,745.5C 542.037,743.539 539.703,741.372 537.5,739C 536.5,738.333 535.5,738.333 534.5,739C 523.596,748.406 512.263,757.24 500.5,765.5C 491.139,756.305 481.639,747.305 472,738.5C 460.485,747.259 449.151,756.259 438,765.5C 428.333,756.5 418.667,747.5 409,738.5C 399.012,747.821 389.012,757.154 379,766.5C 368.322,757.153 357.655,747.82 347,738.5C 336.552,746.61 326.386,755.11 316.5,764C 315.391,764.638 314.225,765.138 313,765.5C 303.361,756.695 293.861,747.695 284.5,738.5C 274.47,747.699 264.304,756.699 254,765.5C 243.239,756.86 232.739,747.86 222.5,738.5C 210.895,747.269 199.728,756.602 189,766.5C 179.625,756.79 169.958,747.457 160,738.5C 151.378,745.287 143.211,752.62 135.5,760.5C 136.003,750.34 136.67,740.34 137.5,730.5C 137.34,732.199 137.506,733.866 138,735.5C 145.317,729.017 152.484,722.35 159.5,715.5C 169.552,725.053 179.385,734.719 189,744.5C 199.366,733.971 210.533,724.304 222.5,715.5C 233.543,724.403 243.709,734.069 253,744.5C 263.35,734.649 273.85,724.983 284.5,715.5C 294.655,725.327 304.655,734.993 314.5,744.5C 315.881,741.621 317.881,739.121 320.5,737C 329.055,729.441 337.888,722.274 347,715.5C 356.303,723.3 365.47,731.3 374.5,739.5C 375.065,741.51 376.065,743.176 377.5,744.5C 388.115,734.89 398.782,725.224 409.5,715.5C 419.553,725.222 429.553,734.888 439.5,744.5C 441.546,740.942 444.213,737.775 447.5,735C 455.355,728.311 463.355,721.811 471.5,715.5C 481.553,725.222 491.553,734.888 501.5,744.5C 502.881,741.621 504.881,739.121 507.5,737C 516.5,730 525.5,723 534.5,716C 538.114,717.578 541.281,720.078 544,723.5C 544.494,721.866 544.66,720.199 544.5,718.5 Z"/></g>
<g><path style="opacity:1" fill="#785f68" d="M 544.5,717.5 C 544.5,717.833 544.5,718.167 544.5,718.5C 544.66,720.199 544.494,721.866 544,723.5C 541.281,720.078 538.114,717.578 534.5,716C 525.5,723 516.5,730 507.5,737C 504.881,739.121 502.881,741.621 501.5,744.5C 491.553,734.888 481.553,725.222 471.5,715.5C 463.355,721.811 455.355,728.311 447.5,735C 444.213,737.775 441.546,740.942 439.5,744.5C 429.553,734.888 419.553,725.222 409.5,715.5C 398.782,725.224 388.115,734.89 377.5,744.5C 376.065,743.176 375.065,741.51 374.5,739.5C 365.47,731.3 356.303,723.3 347,715.5C 337.888,722.274 329.055,729.441 320.5,737C 317.881,739.121 315.881,741.621 314.5,744.5C 304.655,734.993 294.655,725.327 284.5,715.5C 273.85,724.983 263.35,734.649 253,744.5C 243.709,734.069 233.543,724.403 222.5,715.5C 210.533,724.304 199.366,733.971 189,744.5C 179.385,734.719 169.552,725.053 159.5,715.5C 152.484,722.35 145.317,729.017 138,735.5C 137.506,733.866 137.34,732.199 137.5,730.5C 137.5,730.167 137.5,729.833 137.5,729.5C 145.118,723.218 152.452,716.552 159.5,709.5C 169.194,719.029 179.027,728.362 189,737.5C 200.302,728.368 211.468,719.035 222.5,709.5C 232.863,719.032 243.363,728.365 254,737.5C 264.305,728.364 274.472,719.03 284.5,709.5C 294.167,718.833 303.833,728.167 313.5,737.5C 324.52,727.978 335.687,718.645 347,709.5C 357.678,718.847 368.345,728.18 379,737.5C 389.005,727.995 399.172,718.662 409.5,709.5C 419.167,718.833 428.833,728.167 438.5,737.5C 449.5,728.167 460.5,718.833 471.5,709.5C 481.167,718.833 490.833,728.167 500.5,737.5C 512.19,727.976 524.023,718.643 536,709.5C 538.703,712.371 541.536,715.038 544.5,717.5 Z"/></g>
<g><path style="opacity:1" fill="#d58850" d="M 545.5,752.5 C 546.828,767.734 548.495,783.068 550.5,798.5C 410.833,798.5 271.167,798.5 131.5,798.5C 132.7,788.012 134.033,777.678 135.5,767.5C 135.351,768.552 135.517,769.552 136,770.5C 144.012,763.154 152.012,755.82 160,748.5C 169.433,758.102 178.933,767.435 188.5,776.5C 199.532,766.965 210.698,757.632 222,748.5C 232.836,757.593 243.502,766.927 254,776.5C 264.017,766.982 274.183,757.649 284.5,748.5C 294.153,757.652 303.653,766.986 313,776.5C 324.167,766.923 335.501,757.59 347,748.5C 357.637,757.635 368.137,766.968 378.5,776.5C 388.833,767.167 399.167,757.833 409.5,748.5C 418.419,758.086 427.752,767.419 437.5,776.5C 448.542,766.789 459.876,757.456 471.5,748.5C 481.167,757.833 490.833,767.167 500.5,776.5C 511.354,767.145 522.354,757.978 533.5,749C 534.5,748.333 535.5,748.333 536.5,749C 539.333,751.833 542.167,754.667 545,757.5C 545.494,755.866 545.66,754.199 545.5,752.5 Z"/></g>
<g><path style="opacity:1" fill="#775e68" d="M 544.5,745.5 C 545.369,747.717 545.702,750.05 545.5,752.5C 545.66,754.199 545.494,755.866 545,757.5C 542.167,754.667 539.333,751.833 536.5,749C 535.5,748.333 534.5,748.333 533.5,749C 522.354,757.978 511.354,767.145 500.5,776.5C 490.833,767.167 481.167,757.833 471.5,748.5C 459.876,757.456 448.542,766.789 437.5,776.5C 427.752,767.419 418.419,758.086 409.5,748.5C 399.167,757.833 388.833,767.167 378.5,776.5C 368.137,766.968 357.637,757.635 347,748.5C 335.501,757.59 324.167,766.923 313,776.5C 303.653,766.986 294.153,757.652 284.5,748.5C 274.183,757.649 264.017,766.982 254,776.5C 243.502,766.927 232.836,757.593 222,748.5C 210.698,757.632 199.532,766.965 188.5,776.5C 178.933,767.435 169.433,758.102 160,748.5C 152.012,755.82 144.012,763.154 136,770.5C 135.517,769.552 135.351,768.552 135.5,767.5C 135.5,765.167 135.5,762.833 135.5,760.5C 143.211,752.62 151.378,745.287 160,738.5C 169.958,747.457 179.625,756.79 189,766.5C 199.728,756.602 210.895,747.269 222.5,738.5C 232.739,747.86 243.239,756.86 254,765.5C 264.304,756.699 274.47,747.699 284.5,738.5C 293.861,747.695 303.361,756.695 313,765.5C 314.225,765.138 315.391,764.638 316.5,764C 326.386,755.11 336.552,746.61 347,738.5C 357.655,747.82 368.322,757.153 379,766.5C 389.012,757.154 399.012,747.821 409,738.5C 418.667,747.5 428.333,756.5 438,765.5C 449.151,756.259 460.485,747.259 472,738.5C 481.639,747.305 491.139,756.305 500.5,765.5C 512.263,757.24 523.596,748.406 534.5,739C 535.5,738.333 536.5,738.333 537.5,739C 539.703,741.372 542.037,743.539 544.5,745.5 Z"/></g>
</svg>
